{
.appVersion = "1141";
DisplayStrings = (
A,
H
);
copyright = "©2018 The Font Bureau, Inc.";
customParameters = (
{
name = glyphOrder;
value = (
space,
exclam,
quotedbl,
numbersign,
dollar,
percent,
ampersand,
quotesingle,
parenleft,
parenright,
asterisk,
plus,
comma,
hyphen,
period,
slash,
zero,
one,
two,
three,
four,
five,
six,
seven,
eight,
nine,
colon,
semicolon,
less,
equal,
greater,
question,
at,
A,
B,
C,
D,
E,
F,
G,
H,
I,
J,
K,
L,
M,
N,
O,
P,
Q,
R,
S,
T,
U,
V,
W,
X,
Y,
Z,
bracketleft,
backslash,
bracketright,
asciicircum,
underscore,
grave,
a,
b,
c,
d,
e,
f,
g,
h,
i,
j,
k,
l,
m,
n,
o,
p,
q,
r,
s,
t,
u,
v,
w,
x,
y,
z,
braceleft,
bar,
braceright,
asciitilde,
exclamdown,
cent,
sterling,
currency,
yen,
brokenbar,
section,
dieresis,
copyright,
ordfeminine,
guillemotleft,
logicalnot,
registered,
macron,
degree,
plusminus,
twosuperior,
threesuperior,
acute,
mu,
paragraph,
periodcentered,
cedilla,
onesuperior,
ordmasculine,
guillemotright,
onequarter,
onehalf,
threequarters,
questiondown,
Agrave,
Aacute,
Acircumflex,
Atilde,
Adieresis,
Aring,
AE,
Ccedilla,
Egrave,
Eacute,
Ecircumflex,
Edieresis,
Igrave,
Iacute,
Icircumflex,
Idieresis,
Eth,
Ntilde,
Ograve,
Oacute,
Ocircumflex,
Otilde,
Odieresis,
multiply,
Oslash,
OE,
Ugrave,
Uacute,
Ucircumflex,
Udieresis,
Yacute,
Thorn,
germandbls,
agrave,
aacute,
acircumflex,
atilde,
adieresis,
aring,
ae,
ccedilla,
egrave,
eacute,
ecircumflex,
edieresis,
igrave,
iacute,
icircumflex,
idieresis,
eth,
ntilde,
ograve,
oacute,
ocircumflex,
otilde,
odieresis,
divide,
oslash,
oe,
ugrave,
uacute,
ucircumflex,
udieresis,
yacute,
thorn,
ydieresis,
dotlessi,
circumflex,
caron,
breve,
dotaccent,
ring,
ogonek,
tilde,
hungarumlaut,
quoteleft,
quoteright,
minus,
C.copy_1,
D.copy_1,
E.copy_1,
F.copy_1,
H.copy_1
);
},
{
name = GRAD;
value = "New Value";
}
);
date = "2018-08-08 18:37:29 +0000";
disablesNiceNames = 1;
familyName = Adsworth;
fontMaster = (
{
ascender = 1500;
capHeight = 1500;
descender = -500;
horizontalStems = (
130
);

glyphs = (
{
glyphname = comma;
lastChange = "2018-08-08 18:49:00 +0000";
layers = (
{
layerId = "BFBF8D55-D2EA-42C2-8EE4-A778DD08AD04";
paths = (
{
closed = 1;
nodes = (
"296 -16 LINE SMOOTH",
"246 -16 OFFCURVE",
"190 43 OFFCURVE",
"190 93 QCURVE SMOOTH",
"190 100 LINE SMOOTH",
"190 149 OFFCURVE",
"247 210 OFFCURVE",
"296 210 QCURVE SMOOTH",
"298 210 LINE SMOOTH",
"351 210 OFFCURVE",
"410 149 OFFCURVE",
"410 100 QCURVE SMOOTH",
"410 93 LINE SMOOTH",
"410 44 OFFCURVE",
"350 -16 OFFCURVE",
"298 -16 QCURVE SMOOTH"
);
},
{
closed = 1;
nodes = (
"181 -162 LINE",
"332 71 LINE"
);
}
);
width = 600;
},
{
layerId = "1E479C38-E7C4-45DB-9AC0-D96E7E2DA744";
paths = (
{
closed = 1;
nodes = (
"296 -16 LINE SMOOTH",
"246 -16 OFFCURVE",
"190 43 OFFCURVE",
"190 93 QCURVE SMOOTH",
"190 100 LINE SMOOTH",
"190 149 OFFCURVE",
"247 210 OFFCURVE",
"296 210 QCURVE SMOOTH",
"298 210 LINE SMOOTH",
"351 210 OFFCURVE",
"410 149 OFFCURVE",
"410 100 QCURVE SMOOTH",
"410 93 LINE SMOOTH",
"410 44 OFFCURVE",
"350 -16 OFFCURVE",
"298 -16 QCURVE SMOOTH"
);
},
{
closed = 1;
nodes = (
"181 -162 LINE",
"332 71 LINE"
);
}
);
width = 600;
},
{
layerId = "6A9C0B59-300C-41DD-B63B-D1D6BE2B1BF1";
paths = (
{
closed = 1;
nodes = (
"296 -16 LINE SMOOTH",
"246 -16 OFFCURVE",
"190 43 OFFCURVE",
"190 93 QCURVE SMOOTH",
"190 100 LINE SMOOTH",
"190 149 OFFCURVE",
"247 210 OFFCURVE",
"296 210 QCURVE SMOOTH",
"298 210 LINE SMOOTH",
"351 210 OFFCURVE",
"410 149 OFFCURVE",
"410 100 QCURVE SMOOTH",
"410 93 LINE SMOOTH",
"410 44 OFFCURVE",
"350 -16 OFFCURVE",
"298 -16 QCURVE SMOOTH"
);
},
{
closed = 1;
nodes = (
"181 -162 LINE",
"332 71 LINE"
);
}
);
width = 600;
}
);
unicode = 002C;
},
{
glyphname = hyphen;
lastChange = "2018-08-08 18:49:00 +0000";
layers = (
{
layerId = "BFBF8D55-D2EA-42C2-8EE4-A778DD08AD04";
paths = (
{
closed = 1;
nodes = (
"266 720 LINE",
"266 865 LINE",
"1166 865 LINE",
"1166 720 LINE"
);
}
);
width = 1432;
},
{
layerId = "1E479C38-E7C4-45DB-9AC0-D96E7E2DA744";
paths = (
{
closed = 1;
nodes = (
"266 720 LINE",
"266 865 LINE",
"1166 865 LINE",
"1166 720 LINE"
);
}
);
width = 1432;
},
{
layerId = "6A9C0B59-300C-41DD-B63B-D1D6BE2B1BF1";
paths = (
{
closed = 1;
nodes = (
"266 720 LINE",
"266 865 LINE",
"1166 865 LINE",
"1166 720 LINE"
);
}
);
width = 1432;
}
);
unicode = 002D;
},
{
glyphname = period;
lastChange = "2018-08-08 18:49:00 +0000";
layers = (
{
layerId = "BFBF8D55-D2EA-42C2-8EE4-A778DD08AD04";
paths = (
{
closed = 1;
nodes = (
"350 -16 OFFCURVE",
"410 44 OFFCURVE",
"410 93 QCURVE SMOOTH",
"410 100 LINE SMOOTH",
"410 149 OFFCURVE",
"351 210 OFFCURVE",
"298 210 QCURVE SMOOTH",
"296 210 LINE SMOOTH",
"247 210 OFFCURVE",
"190 149 OFFCURVE",
"190 100 QCURVE SMOOTH",
"190 93 LINE SMOOTH",
"190 43 OFFCURVE",
"246 -16 OFFCURVE",
"296 -16 QCURVE SMOOTH",
"298 -16 LINE SMOOTH"
);
}
);
width = 600;
},
{
layerId = "1E479C38-E7C4-45DB-9AC0-D96E7E2DA744";
paths = (
{
closed = 1;
nodes = (
"350 -16 OFFCURVE",
"410 44 OFFCURVE",
"410 93 QCURVE SMOOTH",
"410 100 LINE SMOOTH",
"410 149 OFFCURVE",
"351 210 OFFCURVE",
"298 210 QCURVE SMOOTH",
"296 210 LINE SMOOTH",
"247 210 OFFCURVE",
"190 149 OFFCURVE",
"190 100 QCURVE SMOOTH",
"190 93 LINE SMOOTH",
"190 43 OFFCURVE",
"246 -16 OFFCURVE",
"296 -16 QCURVE SMOOTH",
"298 -16 LINE SMOOTH"
);
}
);
width = 600;
},
{
layerId = "6A9C0B59-300C-41DD-B63B-D1D6BE2B1BF1";
paths = (
{
closed = 1;
nodes = (
"350 -16 OFFCURVE",
"410 44 OFFCURVE",
"410 93 QCURVE SMOOTH",
"410 100 LINE SMOOTH",
"410 149 OFFCURVE",
"351 210 OFFCURVE",
"298 210 QCURVE SMOOTH",
"296 210 LINE SMOOTH",
"247 210 OFFCURVE",
"190 149 OFFCURVE",
"190 100 QCURVE SMOOTH",
"190 93 LINE SMOOTH",
"190 43 OFFCURVE",
"246 -16 OFFCURVE",
"296 -16 QCURVE SMOOTH",
"298 -16 LINE SMOOTH"
);
}
);
width = 600;
}
);
unicode = 002E;
},
{
glyphname = zero;
lastChange = "2018-08-08 18:49:00 +0000";
layers = (
{
layerId = "BFBF8D55-D2EA-42C2-8EE4-A778DD08AD04";
paths = (
{
closed = 1;
nodes = (
"368 -25 OFFCURVE",
"64 402 OFFCURVE",
"64 724 QCURVE SMOOTH",
"64 775 LINE SMOOTH",
"64 1097 OFFCURVE",
"364 1524 OFFCURVE",
"614 1524 QCURVE SMOOTH",
"621 1524 LINE SMOOTH",
"875 1524 OFFCURVE",
"1175 1097 OFFCURVE",
"1175 775 QCURVE SMOOTH",
"1175 724 LINE SMOOTH",
"1175 402 OFFCURVE",
"879 -25 OFFCURVE",
"625 -25 QCURVE SMOOTH",
"618 -25 LINE SMOOTH"
);
},
{
closed = 1;
nodes = (
"808 125 OFFCURVE",
"1011 487 OFFCURVE",
"1011 727 QCURVE SMOOTH",
"1011 769 LINE SMOOTH",
"1011 1008 OFFCURVE",
"811 1372 OFFCURVE",
"621 1372 QCURVE SMOOTH",
"614 1372 LINE SMOOTH",
"434 1372 OFFCURVE",
"228 1008 OFFCURVE",
"228 769 QCURVE SMOOTH",
"228 727 LINE SMOOTH",
"228 487 OFFCURVE",
"431 125 OFFCURVE",
"614 125 QCURVE SMOOTH",
"621 125 LINE SMOOTH"
);
}
);
width = 1239;
},
{
layerId = "1E479C38-E7C4-45DB-9AC0-D96E7E2DA744";
paths = (
{
closed = 1;
nodes = (
"363 -25 OFFCURVE",
"77 402 OFFCURVE",
"77 724 QCURVE SMOOTH",
"77 775 LINE SMOOTH",
"77 1097 OFFCURVE",
"359 1524 OFFCURVE",
"614 1524 QCURVE SMOOTH",
"620 1524 LINE SMOOTH",
"879 1524 OFFCURVE",
"1162 1097 OFFCURVE",
"1162 775 QCURVE SMOOTH",
"1162 724 LINE SMOOTH",
"1162 402 OFFCURVE",
"882 -25 OFFCURVE",
"624 -25 QCURVE SMOOTH",
"618 -25 LINE SMOOTH"
);
},
{
closed = 1;
nodes = (
"862 13 OFFCURVE",
"1122 438 OFFCURVE",
"1122 722 QCURVE SMOOTH",
"1122 772 LINE SMOOTH",
"1122 1055 OFFCURVE",
"866 1486 OFFCURVE",
"621 1486 QCURVE SMOOTH",
"613 1486 LINE SMOOTH",
"381 1486 OFFCURVE",
"117 1055 OFFCURVE",
"117 772 QCURVE SMOOTH",
"117 722 LINE SMOOTH",
"117 438 OFFCURVE",
"376 13 OFFCURVE",
"613 13 QCURVE SMOOTH",
"621 13 LINE SMOOTH"
);
}
);
width = 1239;
},
{
layerId = "6A9C0B59-300C-41DD-B63B-D1D6BE2B1BF1";
paths = (
{
closed = 1;
nodes = (
"368 -25 OFFCURVE",
"64 402 OFFCURVE",
"64 724 QCURVE SMOOTH",
"64 775 LINE SMOOTH",
"64 1097 OFFCURVE",
"364 1524 OFFCURVE",
"614 1524 QCURVE SMOOTH",
"621 1524 LINE SMOOTH",
"875 1524 OFFCURVE",
"1175 1097 OFFCURVE",
"1175 775 QCURVE SMOOTH",
"1175 724 LINE SMOOTH",
"1175 402 OFFCURVE",
"879 -25 OFFCURVE",
"625 -25 QCURVE SMOOTH",
"618 -25 LINE SMOOTH"
);
},
{
closed = 1;
nodes = (
"808 125 OFFCURVE",
"1011 487 OFFCURVE",
"1011 727 QCURVE SMOOTH",
"1011 769 LINE SMOOTH",
"1011 1008 OFFCURVE",
"811 1372 OFFCURVE",
"621 1372 QCURVE SMOOTH",
"614 1372 LINE SMOOTH",
"434 1372 OFFCURVE",
"228 1008 OFFCURVE",
"228 769 QCURVE SMOOTH",
"228 727 LINE SMOOTH",
"228 487 OFFCURVE",
"431 125 OFFCURVE",
"614 125 QCURVE SMOOTH",
"621 125 LINE SMOOTH"
);
}
);
width = 1239;
}
);
unicode = 0030;
},
{
glyphname = one;
lastChange = "2018-08-08 18:49:00 +0000";
layers = (
{
layerId = "BFBF8D55-D2EA-42C2-8EE4-A778DD08AD04";
paths = (
{
closed = 1;
nodes = (
"192 1500 LINE",
"352 1500 LINE",
"352 0 LINE",
"192 0 LINE"
);
}
);
width = 544;
},
{
layerId = "1E479C38-E7C4-45DB-9AC0-D96E7E2DA744";
paths = (
{
closed = 1;
nodes = (
"252 1500 LINE",
"292 1500 LINE",
"292 0 LINE",
"252 0 LINE"
);
}
);
width = 544;
},
{
layerId = "6A9C0B59-300C-41DD-B63B-D1D6BE2B1BF1";
paths = (
{
closed = 1;
nodes = (
"192 1500 LINE",
"352 1500 LINE",
"352 0 LINE",
"192 0 LINE"
);
}
);
width = 544;
}
);
unicode = 0031;
},
{
glyphname = two;
lastChange = "2018-08-08 18:49:00 +0000";
layers = (
{
layerId = "BFBF8D55-D2EA-42C2-8EE4-A778DD08AD04";
paths = (
{
closed = 1;
nodes = (
"35 0 LINE",
"35 135 LINE",
"612 871 LINE SMOOTH",
"662 934 OFFCURVE",
"725 1062 OFFCURVE",
"725 1152 QCURVE SMOOTH",
"725 1156 LINE SMOOTH",
"725 1259 OFFCURVE",
"590 1372 OFFCURVE",
"458 1372 QCURVE SMOOTH",
"443 1372 LINE SMOOTH",
"320 1372 OFFCURVE",
"170 1253 OFFCURVE",
"167 1140 QCURVE SMOOTH",
"166 1108 LINE",
"9 1110 LINE",
"11 1170 LINE SMOOTH",
"16 1327 OFFCURVE",
"251 1520 OFFCURVE",
"448 1520 QCURVE SMOOTH",
"467 1520 LINE SMOOTH",
"671 1520 OFFCURVE",
"889 1312 OFFCURVE",
"889 1166 QCURVE SMOOTH",
"889 1159 LINE SMOOTH",
"889 1041 OFFCURVE",
"820 893 OFFCURVE",
"776 838 QCURVE SMOOTH",
"227 145 LINE",
"905 145 LINE",
"905 0 LINE"
);
}
);
width = 915;
},
{
layerId = "1E479C38-E7C4-45DB-9AC0-D96E7E2DA744";
paths = (
{
closed = 1;
nodes = (
"35 0 LINE",
"35 40 LINE",
"689 858 LINE SMOOTH",
"736 917 OFFCURVE",
"815 1075 OFFCURVE",
"815 1178 QCURVE SMOOTH",
"815 1201 LINE SMOOTH",
"815 1324 OFFCURVE",
"630 1485 OFFCURVE",
"460 1485 QCURVE SMOOTH",
"451 1485 LINE SMOOTH",
"292 1485 OFFCURVE",
"95 1315 OFFCURVE",
"88 1154 QCURVE SMOOTH",
"87 1108 LINE",
"46 1108 LINE",
"48 1170 LINE SMOOTH",
"53 1336 OFFCURVE",
"268 1524 OFFCURVE",
"450 1524 QCURVE SMOOTH",
"458 1524 LINE SMOOTH",
"655 1524 OFFCURVE",
"858 1332 OFFCURVE",
"858 1200 QCURVE SMOOTH",
"858 1175 LINE SMOOTH",
"858 1064 OFFCURVE",
"776 902 OFFCURVE",
"721 834 QCURVE SMOOTH",
"85 38 LINE",
"885 38 LINE",
"885 0 LINE"
);
}
);
width = 915;
},
{
layerId = "6A9C0B59-300C-41DD-B63B-D1D6BE2B1BF1";
paths = (
{
closed = 1;
nodes = (
"35 0 LINE",
"35 135 LINE",
"612 871 LINE SMOOTH",
"662 934 OFFCURVE",
"725 1062 OFFCURVE",
"725 1152 QCURVE SMOOTH",
"725 1156 LINE SMOOTH",
"725 1259 OFFCURVE",
"590 1372 OFFCURVE",
"458 1372 QCURVE SMOOTH",
"443 1372 LINE SMOOTH",
"320 1372 OFFCURVE",
"170 1253 OFFCURVE",
"167 1140 QCURVE SMOOTH",
"166 1108 LINE",
"9 1110 LINE",
"11 1170 LINE SMOOTH",
"16 1327 OFFCURVE",
"251 1520 OFFCURVE",
"448 1520 QCURVE SMOOTH",
"467 1520 LINE SMOOTH",
"671 1520 OFFCURVE",
"889 1312 OFFCURVE",
"889 1166 QCURVE SMOOTH",
"889 1159 LINE SMOOTH",
"889 1041 OFFCURVE",
"820 893 OFFCURVE",
"776 838 QCURVE SMOOTH",
"227 145 LINE",
"905 145 LINE",
"905 0 LINE"
);
}
);
width = 915;
}
);
unicode = 0032;
},
{
glyphname = three;
lastChange = "2018-08-08 18:49:00 +0000";
layers = (
{
layerId = "BFBF8D55-D2EA-42C2-8EE4-A778DD08AD04";
paths = (
{
closed = 1;
nodes = (
"340 757 LINE",
"340 904 LINE",
"513 907 LINE SMOOTH",
"619 909 OFFCURVE",
"733 1061 OFFCURVE",
"733 1151 QCURVE SMOOTH",
"733 1170 LINE SMOOTH",
"733 1264 OFFCURVE",
"594 1380 OFFCURVE",
"469 1380 QCURVE",
"444 1380 LINE",
"321 1380 OFFCURVE",
"198 1267 OFFCURVE",
"190 1177 QCURVE SMOOTH",
"187 1143 LINE",
"30 1145 LINE",
"32 1181 LINE SMOOTH",
"39 1311 OFFCURVE",
"257 1520 OFFCURVE",
"448 1520 QCURVE",
"467 1520 LINE",
"671 1520 OFFCURVE",
"887 1319 OFFCURVE",
"887 1174 QCURVE SMOOTH",
"887 1167 LINE SMOOTH",
"887 1043 OFFCURVE",
"734 853 OFFCURVE",
"620 829 QCURVE",
"740 812 OFFCURVE",
"928 614 OFFCURVE",
"928 450 QCURVE SMOOTH",
"928 420 LINE SMOOTH",
"928 246 OFFCURVE",
"671 -10 OFFCURVE",
"467 -10 QCURVE",
"448 -10 LINE",
"251 -10 OFFCURVE",
"17 195 OFFCURVE",
"11 352 QCURVE SMOOTH",
"9 408 LINE",
"166 410 LINE",
"167 356 LINE SMOOTH",
"169 266 OFFCURVE",
"337 130 OFFCURVE",
"460 130 QCURVE",
"485 130 LINE",
"617 130 OFFCURVE",
"765 306 OFFCURVE",
"765 419 QCURVE SMOOTH",
"765 460 LINE SMOOTH",
"765 593 OFFCURVE",
"581 755 OFFCURVE",
"450 756 QCURVE SMOOTH"
);
}
);
width = 966;
},
{
layerId = "1E479C38-E7C4-45DB-9AC0-D96E7E2DA744";
paths = (
{
closed = 1;
nodes = (
"340 818 LINE",
"340 864 LINE",
"513 864 LINE SMOOTH",
"649 864 OFFCURVE",
"831 1027 OFFCURVE",
"831 1156 QCURVE SMOOTH",
"831 1184 LINE SMOOTH",
"831 1318 OFFCURVE",
"641 1484 OFFCURVE",
"472 1484 QCURVE SMOOTH",
"439 1484 LINE SMOOTH",
"282 1484 OFFCURVE",
"89 1290 OFFCURVE",
"84 1171 QCURVE SMOOTH",
"82 1145 LINE",
"41 1145 LINE",
"43 1181 LINE SMOOTH",
"49 1311 OFFCURVE",
"250 1520 OFFCURVE",
"446 1520 QCURVE SMOOTH",
"464 1520 LINE SMOOTH",
"661 1520 OFFCURVE",
"871 1339 OFFCURVE",
"871 1174 QCURVE SMOOTH",
"871 1167 LINE SMOOTH",
"871 1013 OFFCURVE",
"710 854 OFFCURVE",
"612 836 QCURVE",
"728 819 OFFCURVE",
"910 614 OFFCURVE",
"910 450 QCURVE SMOOTH",
"910 420 LINE SMOOTH",
"910 246 OFFCURVE",
"661 -10 OFFCURVE",
"485 -10 QCURVE SMOOTH",
"469 -10 LINE SMOOTH",
"254 -10 OFFCURVE",
"28 195 OFFCURVE",
"22 352 QCURVE SMOOTH",
"20 408 LINE",
"61 410 LINE",
"62 334 LINE SMOOTH",
"64 212 OFFCURVE",
"292 28 OFFCURVE",
"458 28 QCURVE SMOOTH",
"492 28 LINE SMOOTH",
"671 28 OFFCURVE",
"871 265 OFFCURVE",
"871 421 QCURVE SMOOTH",
"871 439 LINE SMOOTH",
"871 592 OFFCURVE",
"661 816 OFFCURVE",
"500 817 QCURVE SMOOTH"
);
}
);
width = 966;
},
{
layerId = "6A9C0B59-300C-41DD-B63B-D1D6BE2B1BF1";
paths = (
{
closed = 1;
nodes = (
"340 757 LINE",
"340 904 LINE",
"513 907 LINE SMOOTH",
"619 909 OFFCURVE",
"733 1061 OFFCURVE",
"733 1151 QCURVE SMOOTH",
"733 1170 LINE SMOOTH",
"733 1264 OFFCURVE",
"594 1380 OFFCURVE",
"469 1380 QCURVE",
"444 1380 LINE",
"321 1380 OFFCURVE",
"198 1267 OFFCURVE",
"190 1177 QCURVE SMOOTH",
"187 1143 LINE",
"30 1145 LINE",
"32 1181 LINE SMOOTH",
"39 1311 OFFCURVE",
"257 1520 OFFCURVE",
"448 1520 QCURVE",
"467 1520 LINE",
"671 1520 OFFCURVE",
"887 1319 OFFCURVE",
"887 1174 QCURVE SMOOTH",
"887 1167 LINE SMOOTH",
"887 1043 OFFCURVE",
"734 853 OFFCURVE",
"620 829 QCURVE",
"740 812 OFFCURVE",
"928 614 OFFCURVE",
"928 450 QCURVE SMOOTH",
"928 420 LINE SMOOTH",
"928 246 OFFCURVE",
"671 -10 OFFCURVE",
"467 -10 QCURVE",
"448 -10 LINE",
"251 -10 OFFCURVE",
"17 195 OFFCURVE",
"11 352 QCURVE SMOOTH",
"9 408 LINE",
"166 410 LINE",
"167 356 LINE SMOOTH",
"169 266 OFFCURVE",
"337 130 OFFCURVE",
"460 130 QCURVE",
"485 130 LINE",
"617 130 OFFCURVE",
"765 306 OFFCURVE",
"765 419 QCURVE SMOOTH",
"765 460 LINE SMOOTH",
"765 593 OFFCURVE",
"581 755 OFFCURVE",
"450 756 QCURVE SMOOTH"
);
}
);
width = 966;
}
);
unicode = 0033;
},
{
glyphname = four;
lastChange = "2018-08-08 18:49:00 +0000";
layers = (
{
layerId = "BFBF8D55-D2EA-42C2-8EE4-A778DD08AD04";
paths = (
{
closed = 1;
nodes = (
"677 1500 LINE",
"835 1497 LINE",
"835 2 LINE",
"677 0 LINE"
);
},
{
closed = 1;
nodes = (
"1033 398 LINE",
"14 398 LINE",
"-2 520 LINE",
"696 1525 LINE",
"814 1443 LINE",
"191 547 LINE",
"1033 547 LINE"
);
}
);
width = 1009;
},
{
layerId = "1E479C38-E7C4-45DB-9AC0-D96E7E2DA744";
paths = (
{
closed = 1;
nodes = (
"736 1510 LINE",
"776 1507 LINE",
"776 2 LINE",
"736 0 LINE"
);
},
{
closed = 1;
nodes = (
"1013 498 LINE",
"44 498 LINE",
"28 520 LINE",
"696 1485 LINE",
"726 1459 LINE",
"87 537 LINE",
"1013 537 LINE"
);
}
);
width = 1009;
},
{
layerId = "6A9C0B59-300C-41DD-B63B-D1D6BE2B1BF1";
paths = (
{
closed = 1;
nodes = (
"677 1500 LINE",
"835 1497 LINE",
"835 2 LINE",
"677 0 LINE"
);
},
{
closed = 1;
nodes = (
"1033 398 LINE",
"14 398 LINE",
"-2 520 LINE",
"696 1525 LINE",
"814 1443 LINE",
"191 547 LINE",
"1033 547 LINE"
);
}
);
width = 1009;
}
);
unicode = 0034;
},
{
glyphname = five;
lastChange = "2018-08-08 18:49:00 +0000";
layers = (
{
layerId = "BFBF8D55-D2EA-42C2-8EE4-A778DD08AD04";
paths = (
{
closed = 1;
nodes = (
"659 958 OFFCURVE",
"939 728 OFFCURVE",
"939 510 QCURVE SMOOTH",
"939 480 LINE SMOOTH",
"939 259 OFFCURVE",
"676 -25 OFFCURVE",
"477 -25 QCURVE SMOOTH",
"458 -25 LINE SMOOTH",
"261 -25 OFFCURVE",
"17 195 OFFCURVE",
"11 352 QCURVE SMOOTH",
"9 408 LINE",
"166 410 LINE",
"167 386 LINE SMOOTH",
"171 284 OFFCURVE",
"317 125 OFFCURVE",
"460 125 QCURVE SMOOTH",
"485 125 LINE SMOOTH",
"643 125 OFFCURVE",
"766 331 OFFCURVE",
"766 481 QCURVE SMOOTH",
"766 500 LINE SMOOTH",
"766 646 OFFCURVE",
"616 809 OFFCURVE",
"483 809 QCURVE SMOOTH",
"469 809 LINE SMOOTH",
"380 809 OFFCURVE",
"276 767 OFFCURVE",
"241 741 QCURVE",
"92 742 LINE",
"132 1500 LINE",
"832 1500 LINE",
"832 1355 LINE",
"279 1355 LINE",
"256 899 LINE",
"285 918 OFFCURVE",
"399 958 OFFCURVE",
"476 958 QCURVE SMOOTH",
"488 958 LINE SMOOTH"
);
}
);
width = 966;
},
{
layerId = "1E479C38-E7C4-45DB-9AC0-D96E7E2DA744";
paths = (
{
closed = 1;
nodes = (
"668 958 OFFCURVE",
"919 728 OFFCURVE",
"919 510 QCURVE SMOOTH",
"919 480 LINE SMOOTH",
"919 259 OFFCURVE",
"676 -25 OFFCURVE",
"474 -25 QCURVE SMOOTH",
"455 -25 LINE SMOOTH",
"259 -25 OFFCURVE",
"30 195 OFFCURVE",
"24 352 QCURVE SMOOTH",
"22 408 LINE",
"61 410 LINE",
"61 356 LINE SMOOTH",
"61 220 OFFCURVE",
"276 12 OFFCURVE",
"461 12 QCURVE SMOOTH",
"475 12 LINE SMOOTH",
"664 12 OFFCURVE",
"884 275 OFFCURVE",
"884 481 QCURVE SMOOTH",
"884 500 LINE SMOOTH",
"884 706 OFFCURVE",
"657 919 OFFCURVE",
"495 919 QCURVE SMOOTH",
"475 919 LINE SMOOTH",
"354 919 OFFCURVE",
"192 817 OFFCURVE",
"133 741 QCURVE",
"102 742 LINE",
"141 1500 LINE",
"816 1500 LINE",
"816 1462 LINE",
"179 1462 LINE",
"146 807 LINE",
"171 848 OFFCURVE",
"357 958 OFFCURVE",
"476 958 QCURVE SMOOTH",
"488 958 LINE SMOOTH"
);
}
);
width = 966;
},
{
layerId = "6A9C0B59-300C-41DD-B63B-D1D6BE2B1BF1";
paths = (
{
closed = 1;
nodes = (
"659 958 OFFCURVE",
"939 728 OFFCURVE",
"939 510 QCURVE SMOOTH",
"939 480 LINE SMOOTH",
"939 259 OFFCURVE",
"676 -25 OFFCURVE",
"477 -25 QCURVE SMOOTH",
"458 -25 LINE SMOOTH",
"261 -25 OFFCURVE",
"17 195 OFFCURVE",
"11 352 QCURVE SMOOTH",
"9 408 LINE",
"166 410 LINE",
"167 386 LINE SMOOTH",
"171 284 OFFCURVE",
"317 125 OFFCURVE",
"460 125 QCURVE SMOOTH",
"485 125 LINE SMOOTH",
"643 125 OFFCURVE",
"766 331 OFFCURVE",
"766 481 QCURVE SMOOTH",
"766 500 LINE SMOOTH",
"766 646 OFFCURVE",
"616 809 OFFCURVE",
"483 809 QCURVE SMOOTH",
"469 809 LINE SMOOTH",
"380 809 OFFCURVE",
"276 767 OFFCURVE",
"241 741 QCURVE",
"92 742 LINE",
"132 1500 LINE",
"832 1500 LINE",
"832 1355 LINE",
"279 1355 LINE",
"256 899 LINE",
"285 918 OFFCURVE",
"399 958 OFFCURVE",
"476 958 QCURVE SMOOTH",
"488 958 LINE SMOOTH"
);
}
);
width = 966;
}
);
unicode = 0035;
},
{
glyphname = six;
lastChange = "2018-08-08 18:49:00 +0000";
layers = (
{
layerId = "BFBF8D55-D2EA-42C2-8EE4-A778DD08AD04";
paths = (
{
closed = 1;
nodes = (
"202 487 LINE SMOOTH",
"202 316 OFFCURVE",
"407 116 OFFCURVE",
"560 116 QCURVE SMOOTH",
"567 116 LINE SMOOTH",
"725 116 OFFCURVE",
"901 286 OFFCURVE",
"901 457 QCURVE SMOOTH",
"901 484 LINE SMOOTH",
"901 655 OFFCURVE",
"728 813 OFFCURVE",
"567 813 QCURVE SMOOTH",
"560 813 LINE SMOOTH",
"410 813 OFFCURVE",
"231 683 OFFCURVE",
"203 514 QCURVE SMOOTH",
"202 508 LINE",
"116 505 LINE",
"116 519 LINE SMOOTH",
"116 708 OFFCURVE",
"357 960 OFFCURVE",
"560 960 QCURVE SMOOTH",
"567 960 LINE SMOOTH",
"795 960 OFFCURVE",
"1071 695 OFFCURVE",
"1071 489 QCURVE SMOOTH",
"1071 454 LINE SMOOTH",
"1071 248 OFFCURVE",
"779 -25 OFFCURVE",
"571 -25 QCURVE SMOOTH",
"564 -25 LINE SMOOTH",
"360 -25 OFFCURVE",
"36 253 OFFCURVE",
"40 540 QCURVE SMOOTH",
"41 612 LINE SMOOTH",
"47 1037 OFFCURVE",
"541 1530 OFFCURVE",
"856 1530 QCURVE SMOOTH",
"893 1530 LINE",
"893 1378 LINE",
"856 1378 LINE SMOOTH",
"602 1378 OFFCURVE",
"173 926 OFFCURVE",
"202 493 QCURVE"
);
}
);
width = 1099;
},
{
layerId = "1E479C38-E7C4-45DB-9AC0-D96E7E2DA744";
paths = (
{
closed = 1;
nodes = (
"102 493 LINE SMOOTH",
"102 272 OFFCURVE",
"368 14 OFFCURVE",
"567 14 QCURVE SMOOTH",
"576 14 LINE SMOOTH",
"762 14 OFFCURVE",
"1013 254 OFFCURVE",
"1013 454 QCURVE SMOOTH",
"1013 489 LINE SMOOTH",
"1013 690 OFFCURVE",
"775 918 OFFCURVE",
"576 918 QCURVE SMOOTH",
"567 918 LINE SMOOTH",
"382 918 OFFCURVE",
"102 703 OFFCURVE",
"102 527 QCURVE SMOOTH",
"102 509 LINE",
"77 505 LINE",
"77 519 LINE SMOOTH",
"77 727 OFFCURVE",
"370 958 OFFCURVE",
"567 958 QCURVE SMOOTH",
"574 958 LINE SMOOTH",
"794 958 OFFCURVE",
"1053 715 OFFCURVE",
"1053 489 QCURVE SMOOTH",
"1053 454 LINE SMOOTH",
"1053 238 OFFCURVE",
"770 -25 OFFCURVE",
"570 -25 QCURVE SMOOTH",
"563 -25 LINE SMOOTH",
"365 -25 OFFCURVE",
"56 253 OFFCURVE",
"56 570 QCURVE SMOOTH",
"56 591 LINE SMOOTH",
"56 1047 OFFCURVE",
"541 1500 OFFCURVE",
"856 1500 QCURVE SMOOTH",
"893 1500 LINE",
"893 1461 LINE",
"856 1461 LINE SMOOTH",
"541 1461 OFFCURVE",
"102 1027 OFFCURVE",
"102 652 QCURVE SMOOTH"
);
}
);
width = 1099;
},
{
layerId = "6A9C0B59-300C-41DD-B63B-D1D6BE2B1BF1";
paths = (
{
closed = 1;
nodes = (
"202 487 LINE SMOOTH",
"202 316 OFFCURVE",
"407 116 OFFCURVE",
"560 116 QCURVE SMOOTH",
"567 116 LINE SMOOTH",
"725 116 OFFCURVE",
"901 286 OFFCURVE",
"901 457 QCURVE SMOOTH",
"901 484 LINE SMOOTH",
"901 655 OFFCURVE",
"728 813 OFFCURVE",
"567 813 QCURVE SMOOTH",
"560 813 LINE SMOOTH",
"410 813 OFFCURVE",
"231 683 OFFCURVE",
"203 514 QCURVE SMOOTH",
"202 508 LINE",
"116 505 LINE",
"116 519 LINE SMOOTH",
"116 708 OFFCURVE",
"357 960 OFFCURVE",
"560 960 QCURVE SMOOTH",
"567 960 LINE SMOOTH",
"795 960 OFFCURVE",
"1071 695 OFFCURVE",
"1071 489 QCURVE SMOOTH",
"1071 454 LINE SMOOTH",
"1071 248 OFFCURVE",
"779 -25 OFFCURVE",
"571 -25 QCURVE SMOOTH",
"564 -25 LINE SMOOTH",
"360 -25 OFFCURVE",
"36 253 OFFCURVE",
"40 540 QCURVE SMOOTH",
"41 612 LINE SMOOTH",
"47 1037 OFFCURVE",
"541 1530 OFFCURVE",
"856 1530 QCURVE SMOOTH",
"893 1530 LINE",
"893 1378 LINE",
"856 1378 LINE SMOOTH",
"602 1378 OFFCURVE",
"173 926 OFFCURVE",
"202 493 QCURVE"
);
}
);
width = 1099;
}
);
unicode = 0036;
},
{
glyphname = seven;
lastChange = "2018-08-08 18:49:00 +0000";
layers = (
{
layerId = "BFBF8D55-D2EA-42C2-8EE4-A778DD08AD04";
paths = (
{
closed = 1;
nodes = (
"849 1500 LINE",
"850 1403 LINE",
"382 0 LINE",
"222 0 LINE",
"674 1355 LINE",
"2 1355 LINE",
"2 1500 LINE"
);
}
);
width = 863;
},
{
layerId = "1E479C38-E7C4-45DB-9AC0-D96E7E2DA744";
paths = (
{
closed = 1;
nodes = (
"821 1500 LINE",
"823 1464 LINE",
"334 0 LINE",
"289 0 LINE",
"781 1460 LINE",
"9 1460 LINE",
"8 1500 LINE"
);
}
);
width = 863;
},
{
layerId = "6A9C0B59-300C-41DD-B63B-D1D6BE2B1BF1";
paths = (
{
closed = 1;
nodes = (
"849 1500 LINE",
"850 1403 LINE",
"382 0 LINE",
"222 0 LINE",
"674 1355 LINE",
"2 1355 LINE",
"2 1500 LINE"
);
}
);
width = 863;
}
);
unicode = 0037;
},
{
glyphname = eight;
lastChange = "2018-08-08 18:49:00 +0000";
layers = (
{
layerId = "BFBF8D55-D2EA-42C2-8EE4-A778DD08AD04";
paths = (
{
closed = 1;
nodes = (
"319 -25 OFFCURVE",
"48 212 OFFCURVE",
"48 401 QCURVE SMOOTH",
"48 431 LINE SMOOTH",
"48 621 OFFCURVE",
"316 868 OFFCURVE",
"503 868 QCURVE SMOOTH",
"510 868 LINE SMOOTH",
"702 868 OFFCURVE",
"980 621 OFFCURVE",
"980 431 QCURVE SMOOTH",
"980 401 LINE SMOOTH",
"980 212 OFFCURVE",
"706 -25 OFFCURVE",
"513 -25 QCURVE SMOOTH",
"507 -25 LINE SMOOTH"
);
},
{
closed = 1;
nodes = (
"651 118 OFFCURVE",
"819 279 OFFCURVE",
"819 412 QCURVE SMOOTH",
"819 432 LINE SMOOTH",
"819 564 OFFCURVE",
"654 731 OFFCURVE",
"511 731 QCURVE SMOOTH",
"503 731 LINE SMOOTH",
"369 731 OFFCURVE",
"209 564 OFFCURVE",
"209 432 QCURVE SMOOTH",
"209 412 LINE SMOOTH",
"209 279 OFFCURVE",
"366 118 OFFCURVE",
"503 118 QCURVE SMOOTH",
"511 118 LINE SMOOTH"
);
},
{
closed = 1;
nodes = (
"340 736 OFFCURVE",
"98 946 OFFCURVE",
"98 1112 QCURVE SMOOTH",
"98 1138 LINE SMOOTH",
"98 1305 OFFCURVE",
"337 1523 OFFCURVE",
"503 1523 QCURVE SMOOTH",
"509 1523 LINE SMOOTH",
"679 1523 OFFCURVE",
"927 1305 OFFCURVE",
"927 1138 QCURVE SMOOTH",
"927 1112 LINE SMOOTH",
"927 946 OFFCURVE",
"682 736 OFFCURVE",
"512 736 QCURVE SMOOTH",
"506 736 LINE SMOOTH"
);
},
{
closed = 1;
nodes = (
"629 869 OFFCURVE",
"771 1002 OFFCURVE",
"771 1111 QCURVE SMOOTH",
"771 1128 LINE SMOOTH",
"771 1236 OFFCURVE",
"632 1373 OFFCURVE",
"508 1373 QCURVE SMOOTH",
"504 1373 LINE SMOOTH",
"389 1373 OFFCURVE",
"254 1236 OFFCURVE",
"254 1128 QCURVE SMOOTH",
"254 1111 LINE SMOOTH",
"254 1002 OFFCURVE",
"387 869 OFFCURVE",
"504 869 QCURVE SMOOTH",
"508 869 LINE SMOOTH"
);
}
);
width = 1028;
},
{
layerId = "1E479C38-E7C4-45DB-9AC0-D96E7E2DA744";
paths = (
{
closed = 1;
nodes = (
"314 -25 OFFCURVE",
"61 213 OFFCURVE",
"61 390 QCURVE SMOOTH",
"61 419 LINE SMOOTH",
"61 598 OFFCURVE",
"311 821 OFFCURVE",
"504 821 QCURVE SMOOTH",
"510 821 LINE SMOOTH",
"707 821 OFFCURVE",
"967 598 OFFCURVE",
"967 419 QCURVE SMOOTH",
"967 390 LINE SMOOTH",
"967 213 OFFCURVE",
"701 -25 OFFCURVE",
"513 -25 QCURVE SMOOTH",
"507 -25 LINE SMOOTH"
);
},
{
closed = 1;
nodes = (
"695 4 OFFCURVE",
"928 220 OFFCURVE",
"928 392 QCURVE SMOOTH",
"928 417 LINE SMOOTH",
"928 588 OFFCURVE",
"704 785 OFFCURVE",
"509 785 QCURVE SMOOTH",
"499 785 LINE SMOOTH",
"316 785 OFFCURVE",
"100 588 OFFCURVE",
"100 417 QCURVE SMOOTH",
"100 392 LINE SMOOTH",
"100 220 OFFCURVE",
"330 4 OFFCURVE",
"506 4 QCURVE SMOOTH",
"516 4 LINE SMOOTH"
);
},
{
closed = 1;
nodes = (
"335 785 OFFCURVE",
"111 986 OFFCURVE",
"111 1141 QCURVE SMOOTH",
"111 1164 LINE SMOOTH",
"111 1320 OFFCURVE",
"343 1523 OFFCURVE",
"504 1523 QCURVE SMOOTH",
"509 1523 LINE SMOOTH",
"675 1523 OFFCURVE",
"915 1320 OFFCURVE",
"915 1164 QCURVE SMOOTH",
"915 1141 LINE SMOOTH",
"915 986 OFFCURVE",
"687 785 OFFCURVE",
"512 785 QCURVE SMOOTH",
"506 785 LINE SMOOTH"
);
},
{
closed = 1;
nodes = (
"677 821 OFFCURVE",
"876 996 OFFCURVE",
"876 1141 QCURVE SMOOTH",
"876 1163 LINE SMOOTH",
"876 1307 OFFCURVE",
"681 1484 OFFCURVE",
"508 1484 QCURVE SMOOTH",
"502 1484 LINE SMOOTH",
"341 1484 OFFCURVE",
"151 1307 OFFCURVE",
"151 1163 QCURVE SMOOTH",
"151 1141 LINE SMOOTH",
"151 996 OFFCURVE",
"338 821 OFFCURVE",
"502 821 QCURVE SMOOTH",
"508 821 LINE SMOOTH"
);
}
);
width = 1028;
},
{
layerId = "6A9C0B59-300C-41DD-B63B-D1D6BE2B1BF1";
paths = (
{
closed = 1;
nodes = (
"319 -25 OFFCURVE",
"48 212 OFFCURVE",
"48 401 QCURVE SMOOTH",
"48 431 LINE SMOOTH",
"48 621 OFFCURVE",
"316 868 OFFCURVE",
"503 868 QCURVE SMOOTH",
"510 868 LINE SMOOTH",
"702 868 OFFCURVE",
"980 621 OFFCURVE",
"980 431 QCURVE SMOOTH",
"980 401 LINE SMOOTH",
"980 212 OFFCURVE",
"706 -25 OFFCURVE",
"513 -25 QCURVE SMOOTH",
"507 -25 LINE SMOOTH"
);
},
{
closed = 1;
nodes = (
"651 118 OFFCURVE",
"819 279 OFFCURVE",
"819 412 QCURVE SMOOTH",
"819 432 LINE SMOOTH",
"819 564 OFFCURVE",
"654 731 OFFCURVE",
"511 731 QCURVE SMOOTH",
"503 731 LINE SMOOTH",
"369 731 OFFCURVE",
"209 564 OFFCURVE",
"209 432 QCURVE SMOOTH",
"209 412 LINE SMOOTH",
"209 279 OFFCURVE",
"366 118 OFFCURVE",
"503 118 QCURVE SMOOTH",
"511 118 LINE SMOOTH"
);
},
{
closed = 1;
nodes = (
"340 736 OFFCURVE",
"98 946 OFFCURVE",
"98 1112 QCURVE SMOOTH",
"98 1138 LINE SMOOTH",
"98 1305 OFFCURVE",
"337 1523 OFFCURVE",
"503 1523 QCURVE SMOOTH",
"509 1523 LINE SMOOTH",
"679 1523 OFFCURVE",
"927 1305 OFFCURVE",
"927 1138 QCURVE SMOOTH",
"927 1112 LINE SMOOTH",
"927 946 OFFCURVE",
"682 736 OFFCURVE",
"512 736 QCURVE SMOOTH",
"506 736 LINE SMOOTH"
);
},
{
closed = 1;
nodes = (
"629 869 OFFCURVE",
"771 1002 OFFCURVE",
"771 1111 QCURVE SMOOTH",
"771 1128 LINE SMOOTH",
"771 1236 OFFCURVE",
"632 1373 OFFCURVE",
"508 1373 QCURVE SMOOTH",
"504 1373 LINE SMOOTH",
"389 1373 OFFCURVE",
"254 1236 OFFCURVE",
"254 1128 QCURVE SMOOTH",
"254 1111 LINE SMOOTH",
"254 1002 OFFCURVE",
"387 869 OFFCURVE",
"504 869 QCURVE SMOOTH",
"508 869 LINE SMOOTH"
);
}
);
width = 1028;
}
);
unicode = 0038;
},
{
glyphname = nine;
lastChange = "2018-08-08 18:49:00 +0000";
layers = (
{
layerId = "BFBF8D55-D2EA-42C2-8EE4-A778DD08AD04";
paths = (
{
closed = 1;
nodes = (
"897 1012 LINE SMOOTH",
"897 1183 OFFCURVE",
"693 1373 OFFCURVE",
"540 1373 QCURVE SMOOTH",
"533 1373 LINE SMOOTH",
"375 1373 OFFCURVE",
"198 1213 OFFCURVE",
"198 1042 QCURVE SMOOTH",
"198 1015 LINE SMOOTH",
"198 844 OFFCURVE",
"371 676 OFFCURVE",
"532 676 QCURVE SMOOTH",
"539 676 LINE SMOOTH",
"689 676 OFFCURVE",
"868 816 OFFCURVE",
"896 985 QCURVE SMOOTH",
"897 991 LINE",
"983 994 LINE",
"983 980 LINE SMOOTH",
"983 791 OFFCURVE",
"742 539 OFFCURVE",
"539 539 QCURVE SMOOTH",
"532 539 LINE SMOOTH",
"304 539 OFFCURVE",
"28 804 OFFCURVE",
"28 1010 QCURVE SMOOTH",
"28 1045 LINE SMOOTH",
"28 1251 OFFCURVE",
"320 1524 OFFCURVE",
"528 1524 QCURVE SMOOTH",
"535 1524 LINE SMOOTH",
"739 1524 OFFCURVE",
"1063 1246 OFFCURVE",
"1059 959 QCURVE SMOOTH",
"1058 887 LINE SMOOTH",
"1052 445 OFFCURVE",
"586 -19 OFFCURVE",
"243 -19 QCURVE SMOOTH",
"206 -19 LINE",
"206 121 LINE",
"243 121 LINE SMOOTH",
"519 121 OFFCURVE",
"927 550 OFFCURVE",
"897 1006 QCURVE"
);
}
);
width = 1099;
},
{
layerId = "1E479C38-E7C4-45DB-9AC0-D96E7E2DA744";
paths = (
{
closed = 1;
nodes = (
"997 1006 LINE SMOOTH",
"997 1227 OFFCURVE",
"731 1485 OFFCURVE",
"532 1485 QCURVE SMOOTH",
"523 1485 LINE SMOOTH",
"337 1485 OFFCURVE",
"86 1245 OFFCURVE",
"86 1045 QCURVE SMOOTH",
"86 1010 LINE SMOOTH",
"86 809 OFFCURVE",
"324 581 OFFCURVE",
"523 581 QCURVE SMOOTH",
"532 581 LINE SMOOTH",
"717 581 OFFCURVE",
"997 796 OFFCURVE",
"997 972 QCURVE SMOOTH",
"997 990 LINE",
"1022 994 LINE",
"1022 980 LINE SMOOTH",
"1022 772 OFFCURVE",
"729 541 OFFCURVE",
"532 541 QCURVE SMOOTH",
"525 541 LINE SMOOTH",
"305 541 OFFCURVE",
"46 784 OFFCURVE",
"46 1010 QCURVE SMOOTH",
"46 1045 LINE SMOOTH",
"46 1261 OFFCURVE",
"329 1524 OFFCURVE",
"529 1524 QCURVE SMOOTH",
"536 1524 LINE SMOOTH",
"734 1524 OFFCURVE",
"1043 1246 OFFCURVE",
"1043 929 QCURVE SMOOTH",
"1043 908 LINE SMOOTH",
"1043 452 OFFCURVE",
"558 -1 OFFCURVE",
"243 -1 QCURVE SMOOTH",
"206 -1 LINE",
"206 38 LINE",
"243 38 LINE SMOOTH",
"558 38 OFFCURVE",
"997 472 OFFCURVE",
"997 847 QCURVE SMOOTH"
);
}
);
width = 1099;
},
{
layerId = "6A9C0B59-300C-41DD-B63B-D1D6BE2B1BF1";
paths = (
{
closed = 1;
nodes = (
"897 1012 LINE SMOOTH",
"897 1183 OFFCURVE",
"693 1373 OFFCURVE",
"540 1373 QCURVE SMOOTH",
"533 1373 LINE SMOOTH",
"375 1373 OFFCURVE",
"198 1213 OFFCURVE",
"198 1042 QCURVE SMOOTH",
"198 1015 LINE SMOOTH",
"198 844 OFFCURVE",
"371 676 OFFCURVE",
"532 676 QCURVE SMOOTH",
"539 676 LINE SMOOTH",
"689 676 OFFCURVE",
"868 816 OFFCURVE",
"896 985 QCURVE SMOOTH",
"897 991 LINE",
"983 994 LINE",
"983 980 LINE SMOOTH",
"983 791 OFFCURVE",
"742 539 OFFCURVE",
"539 539 QCURVE SMOOTH",
"532 539 LINE SMOOTH",
"304 539 OFFCURVE",
"28 804 OFFCURVE",
"28 1010 QCURVE SMOOTH",
"28 1045 LINE SMOOTH",
"28 1251 OFFCURVE",
"320 1524 OFFCURVE",
"528 1524 QCURVE SMOOTH",
"535 1524 LINE SMOOTH",
"739 1524 OFFCURVE",
"1063 1246 OFFCURVE",
"1059 959 QCURVE SMOOTH",
"1058 887 LINE SMOOTH",
"1052 445 OFFCURVE",
"586 -19 OFFCURVE",
"243 -19 QCURVE SMOOTH",
"206 -19 LINE",
"206 121 LINE",
"243 121 LINE SMOOTH",
"519 121 OFFCURVE",
"927 550 OFFCURVE",
"897 1006 QCURVE"
);
}
);
width = 1099;
}
);
unicode = 0039;
},
{
glyphname = colon;
lastChange = "2018-08-08 18:49:00 +0000";
layers = (
{
layerId = "BFBF8D55-D2EA-42C2-8EE4-A778DD08AD04";
paths = (
{
closed = 1;
nodes = (
"350 -16 OFFCURVE",
"410 44 OFFCURVE",
"410 93 QCURVE SMOOTH",
"410 100 LINE SMOOTH",
"410 149 OFFCURVE",
"351 210 OFFCURVE",
"298 210 QCURVE SMOOTH",
"296 210 LINE SMOOTH",
"247 210 OFFCURVE",
"190 149 OFFCURVE",
"190 100 QCURVE SMOOTH",
"190 93 LINE SMOOTH",
"190 43 OFFCURVE",
"246 -16 OFFCURVE",
"296 -16 QCURVE SMOOTH",
"298 -16 LINE SMOOTH"
);
},
{
closed = 1;
nodes = (
"350 684 OFFCURVE",
"410 744 OFFCURVE",
"410 793 QCURVE SMOOTH",
"410 800 LINE SMOOTH",
"410 849 OFFCURVE",
"351 910 OFFCURVE",
"298 910 QCURVE SMOOTH",
"296 910 LINE SMOOTH",
"247 910 OFFCURVE",
"190 849 OFFCURVE",
"190 800 QCURVE SMOOTH",
"190 793 LINE SMOOTH",
"190 743 OFFCURVE",
"246 684 OFFCURVE",
"296 684 QCURVE SMOOTH",
"298 684 LINE SMOOTH"
);
}
);
width = 600;
},
{
layerId = "1E479C38-E7C4-45DB-9AC0-D96E7E2DA744";
paths = (
{
closed = 1;
nodes = (
"350 -16 OFFCURVE",
"410 44 OFFCURVE",
"410 93 QCURVE SMOOTH",
"410 100 LINE SMOOTH",
"410 149 OFFCURVE",
"351 210 OFFCURVE",
"298 210 QCURVE SMOOTH",
"296 210 LINE SMOOTH",
"247 210 OFFCURVE",
"190 149 OFFCURVE",
"190 100 QCURVE SMOOTH",
"190 93 LINE SMOOTH",
"190 43 OFFCURVE",
"246 -16 OFFCURVE",
"296 -16 QCURVE SMOOTH",
"298 -16 LINE SMOOTH"
);
},
{
closed = 1;
nodes = (
"350 684 OFFCURVE",
"410 744 OFFCURVE",
"410 793 QCURVE SMOOTH",
"410 800 LINE SMOOTH",
"410 849 OFFCURVE",
"351 910 OFFCURVE",
"298 910 QCURVE SMOOTH",
"296 910 LINE SMOOTH",
"247 910 OFFCURVE",
"190 849 OFFCURVE",
"190 800 QCURVE SMOOTH",
"190 793 LINE SMOOTH",
"190 743 OFFCURVE",
"246 684 OFFCURVE",
"296 684 QCURVE SMOOTH",
"298 684 LINE SMOOTH"
);
}
);
width = 600;
},
{
layerId = "6A9C0B59-300C-41DD-B63B-D1D6BE2B1BF1";
paths = (
{
closed = 1;
nodes = (
"350 -16 OFFCURVE",
"410 44 OFFCURVE",
"410 93 QCURVE SMOOTH",
"410 100 LINE SMOOTH",
"410 149 OFFCURVE",
"351 210 OFFCURVE",
"298 210 QCURVE SMOOTH",
"296 210 LINE SMOOTH",
"247 210 OFFCURVE",
"190 149 OFFCURVE",
"190 100 QCURVE SMOOTH",
"190 93 LINE SMOOTH",
"190 43 OFFCURVE",
"246 -16 OFFCURVE",
"296 -16 QCURVE SMOOTH",
"298 -16 LINE SMOOTH"
);
},
{
closed = 1;
nodes = (
"350 684 OFFCURVE",
"410 744 OFFCURVE",
"410 793 QCURVE SMOOTH",
"410 800 LINE SMOOTH",
"410 849 OFFCURVE",
"351 910 OFFCURVE",
"298 910 QCURVE SMOOTH",
"296 910 LINE SMOOTH",
"247 910 OFFCURVE",
"190 849 OFFCURVE",
"190 800 QCURVE SMOOTH",
"190 793 LINE SMOOTH",
"190 743 OFFCURVE",
"246 684 OFFCURVE",
"296 684 QCURVE SMOOTH",
"298 684 LINE SMOOTH"
);
}
);
width = 600;
}
);
unicode = 003A;
},
{
glyphname = semicolon;
lastChange = "2018-08-08 18:49:00 +0000";
layers = (
{
layerId = "BFBF8D55-D2EA-42C2-8EE4-A778DD08AD04";
paths = (
{
closed = 1;
nodes = (
"350 -16 OFFCURVE",
"410 44 OFFCURVE",
"410 93 QCURVE SMOOTH",
"410 100 LINE SMOOTH",
"410 149 OFFCURVE",
"351 210 OFFCURVE",
"298 210 QCURVE SMOOTH",
"296 210 LINE SMOOTH",
"247 210 OFFCURVE",
"190 149 OFFCURVE",
"190 100 QCURVE SMOOTH",
"190 93 LINE SMOOTH",
"190 43 OFFCURVE",
"246 -16 OFFCURVE",
"296 -16 QCURVE SMOOTH",
"298 -16 LINE SMOOTH"
);
},
{
closed = 1;
nodes = (
"350 684 OFFCURVE",
"410 744 OFFCURVE",
"410 793 QCURVE SMOOTH",
"410 800 LINE SMOOTH",
"410 849 OFFCURVE",
"351 910 OFFCURVE",
"298 910 QCURVE SMOOTH",
"296 910 LINE SMOOTH",
"247 910 OFFCURVE",
"190 849 OFFCURVE",
"190 800 QCURVE SMOOTH",
"190 793 LINE SMOOTH",
"190 743 OFFCURVE",
"246 684 OFFCURVE",
"296 684 QCURVE SMOOTH",
"298 684 LINE SMOOTH"
);
}
);
width = 600;
},
{
layerId = "1E479C38-E7C4-45DB-9AC0-D96E7E2DA744";
paths = (
{
closed = 1;
nodes = (
"350 -16 OFFCURVE",
"410 44 OFFCURVE",
"410 93 QCURVE SMOOTH",
"410 100 LINE SMOOTH",
"410 149 OFFCURVE",
"351 210 OFFCURVE",
"298 210 QCURVE SMOOTH",
"296 210 LINE SMOOTH",
"247 210 OFFCURVE",
"190 149 OFFCURVE",
"190 100 QCURVE SMOOTH",
"190 93 LINE SMOOTH",
"190 43 OFFCURVE",
"246 -16 OFFCURVE",
"296 -16 QCURVE SMOOTH",
"298 -16 LINE SMOOTH"
);
},
{
closed = 1;
nodes = (
"350 684 OFFCURVE",
"410 744 OFFCURVE",
"410 793 QCURVE SMOOTH",
"410 800 LINE SMOOTH",
"410 849 OFFCURVE",
"351 910 OFFCURVE",
"298 910 QCURVE SMOOTH",
"296 910 LINE SMOOTH",
"247 910 OFFCURVE",
"190 849 OFFCURVE",
"190 800 QCURVE SMOOTH",
"190 793 LINE SMOOTH",
"190 743 OFFCURVE",
"246 684 OFFCURVE",
"296 684 QCURVE SMOOTH",
"298 684 LINE SMOOTH"
);
}
);
width = 600;
},
{
layerId = "6A9C0B59-300C-41DD-B63B-D1D6BE2B1BF1";
paths = (
{
closed = 1;
nodes = (
"350 -16 OFFCURVE",
"410 44 OFFCURVE",
"410 93 QCURVE SMOOTH",
"410 100 LINE SMOOTH",
"410 149 OFFCURVE",
"351 210 OFFCURVE",
"298 210 QCURVE SMOOTH",
"296 210 LINE SMOOTH",
"247 210 OFFCURVE",
"190 149 OFFCURVE",
"190 100 QCURVE SMOOTH",
"190 93 LINE SMOOTH",
"190 43 OFFCURVE",
"246 -16 OFFCURVE",
"296 -16 QCURVE SMOOTH",
"298 -16 LINE SMOOTH"
);
},
{
closed = 1;
nodes = (
"350 684 OFFCURVE",
"410 744 OFFCURVE",
"410 793 QCURVE SMOOTH",
"410 800 LINE SMOOTH",
"410 849 OFFCURVE",
"351 910 OFFCURVE",
"298 910 QCURVE SMOOTH",
"296 910 LINE SMOOTH",
"247 910 OFFCURVE",
"190 849 OFFCURVE",
"190 800 QCURVE SMOOTH",
"190 793 LINE SMOOTH",
"190 743 OFFCURVE",
"246 684 OFFCURVE",
"296 684 QCURVE SMOOTH",
"298 684 LINE SMOOTH"
);
}
);
width = 600;
}
);
unicode = 003B;
},
{
glyphname = A;
lastChange = "2018-08-08 18:49:00 +0000";
layers = (
{
layerId = "BFBF8D55-D2EA-42C2-8EE4-A778DD08AD04";
paths = (
{
closed = 1;
nodes = (
"240 415 LINE",
"240 565 LINE",
"940 565 LINE",
"940 415 LINE"
);
},
{
closed = 1;
nodes = (
"1180 0 LINE",
"1013 0 LINE",
"590 1285 LINE",
"589 1285 LINE",
"160 0 LINE",
"0 0 LINE",
"510 1500 LINE",
"670 1500 LINE"
);
}
);
width = 1180;
},
{
layerId = "1E479C38-E7C4-45DB-9AC0-D96E7E2DA744";
paths = (
{
closed = 1;
nodes = (
"200 455 LINE",
"218 505 LINE",
"953 505 LINE",
"972 455 LINE"
);
},
{
closed = 1;
nodes = (
"1150 0 LINE",
"1103 0 LINE",
"604 1455 LINE",
"563 1456 LINE",
"67 0 LINE",
"20 0 LINE",
"534 1499 LINE",
"635 1500 LINE"
);
}
);
width = 1180;
},
{
layerId = "6A9C0B59-300C-41DD-B63B-D1D6BE2B1BF1";
paths = (
{
closed = 1;
nodes = (
"240 415 LINE",
"240 565 LINE",
"940 565 LINE",
"940 415 LINE"
);
},
{
closed = 1;
nodes = (
"1180 0 LINE",
"1013 0 LINE",
"590 1285 LINE",
"589 1285 LINE",
"160 0 LINE",
"0 0 LINE",
"510 1500 LINE",
"670 1500 LINE"
);
}
);
width = 1180;
}
);
unicode = 0041;
},
{
glyphname = B;
lastChange = "2018-08-08 18:49:00 +0000";
layers = (
{
layerId = "BFBF8D55-D2EA-42C2-8EE4-A778DD08AD04";
paths = (
{
closed = 1;
nodes = (
"192 1500 LINE",
"352 1500 LINE",
"352 0 LINE",
"192 0 LINE"
);
},
{
closed = 1;
nodes = (
"913 836 OFFCURVE",
"1166 628 OFFCURVE",
"1166 442 QCURVE SMOOTH",
"1166 415 LINE SMOOTH",
"1166 235 OFFCURVE",
"910 0 OFFCURVE",
"707 0 QCURVE SMOOTH",
"272 0 LINE",
"272 145 LINE",
"703 145 LINE SMOOTH",
"836 145 OFFCURVE",
"999 298 OFFCURVE",
"999 430 QCURVE SMOOTH",
"999 449 LINE SMOOTH",
"999 578 OFFCURVE",
"838 723 OFFCURVE",
"703 723 QCURVE SMOOTH",
"272 723 LINE",
"272 865 LINE",
"635 865 LINE SMOOTH",
"790 865 OFFCURVE",
"927 983 OFFCURVE",
"927 1102 QCURVE SMOOTH",
"927 1118 LINE SMOOTH",
"927 1222 OFFCURVE",
"780 1355 OFFCURVE",
"645 1355 QCURVE SMOOTH",
"272 1355 LINE",
"272 1500 LINE",
"672 1500 LINE SMOOTH",
"859 1500 OFFCURVE",
"1086 1289 OFFCURVE",
"1086 1121 QCURVE SMOOTH",
"1086 1105 LINE SMOOTH",
"1086 937 OFFCURVE",
"854 725 OFFCURVE",
"675 725 QCURVE",
"703 836 LINE"
);
}
);
width = 1208;
},
{
layerId = "1E479C38-E7C4-45DB-9AC0-D96E7E2DA744";
paths = (
{
closed = 1;
nodes = (
"226 1500 LINE",
"265 1500 LINE",
"265 0 LINE",
"226 0 LINE"
);
},
{
closed = 1;
nodes = (
"905 835 OFFCURVE",
"1161 628 OFFCURVE",
"1161 442 QCURVE SMOOTH",
"1161 415 LINE SMOOTH",
"1161 231 OFFCURVE",
"940 0 OFFCURVE",
"737 0 QCURVE SMOOTH",
"245 0 LINE",
"245 38 LINE",
"760 38 LINE SMOOTH",
"912 38 OFFCURVE",
"1119 248 OFFCURVE",
"1119 417 QCURVE SMOOTH",
"1119 441 LINE SMOOTH",
"1119 596 OFFCURVE",
"904 787 OFFCURVE",
"770 787 QCURVE SMOOTH",
"245 787 LINE",
"245 825 LINE",
"682 825 LINE SMOOTH",
"856 825 OFFCURVE",
"1014 978 OFFCURVE",
"1014 1142 QCURVE SMOOTH",
"1014 1153 LINE SMOOTH",
"1014 1288 OFFCURVE",
"865 1462 OFFCURVE",
"702 1462 QCURVE SMOOTH",
"245 1462 LINE",
"245 1500 LINE",
"712 1500 LINE SMOOTH",
"889 1500 OFFCURVE",
"1062 1309 OFFCURVE",
"1062 1151 QCURVE SMOOTH",
"1062 1140 LINE SMOOTH",
"1062 972 OFFCURVE",
"882 790 OFFCURVE",
"737 790 QCURVE",
"703 825 LINE"
);
}
);
width = 1208;
},
{
layerId = "6A9C0B59-300C-41DD-B63B-D1D6BE2B1BF1";
paths = (
{
closed = 1;
nodes = (
"192 1500 LINE",
"352 1500 LINE",
"352 0 LINE",
"192 0 LINE"
);
},
{
closed = 1;
nodes = (
"913 836 OFFCURVE",
"1166 628 OFFCURVE",
"1166 442 QCURVE SMOOTH",
"1166 415 LINE SMOOTH",
"1166 235 OFFCURVE",
"910 0 OFFCURVE",
"707 0 QCURVE SMOOTH",
"272 0 LINE",
"272 145 LINE",
"703 145 LINE SMOOTH",
"836 145 OFFCURVE",
"999 298 OFFCURVE",
"999 430 QCURVE SMOOTH",
"999 449 LINE SMOOTH",
"999 578 OFFCURVE",
"838 723 OFFCURVE",
"703 723 QCURVE SMOOTH",
"272 723 LINE",
"272 865 LINE",
"635 865 LINE SMOOTH",
"790 865 OFFCURVE",
"927 983 OFFCURVE",
"927 1102 QCURVE SMOOTH",
"927 1118 LINE SMOOTH",
"927 1222 OFFCURVE",
"780 1355 OFFCURVE",
"645 1355 QCURVE SMOOTH",
"272 1355 LINE",
"272 1500 LINE",
"672 1500 LINE SMOOTH",
"859 1500 OFFCURVE",
"1086 1289 OFFCURVE",
"1086 1121 QCURVE SMOOTH",
"1086 1105 LINE SMOOTH",
"1086 937 OFFCURVE",
"854 725 OFFCURVE",
"675 725 QCURVE",
"703 836 LINE"
);
}
);
width = 1208;
}
);
unicode = 0042;
},
{
glyphname = C;
lastChange = "2018-08-08 18:49:00 +0000";
layers = (
{
layerId = "BFBF8D55-D2EA-42C2-8EE4-A778DD08AD04";
paths = (
{
closed = 1;
nodes = (
"997 123 OFFCURVE",
"1238 318 OFFCURVE",
"1242 505 QCURVE SMOOTH",
"1243 552 LINE",
"1405 552 LINE",
"1405 500 LINE SMOOTH",
"1405 275 OFFCURVE",
"1088 -24 OFFCURVE",
"769 -24 QCURVE SMOOTH",
"758 -24 LINE SMOOTH",
"451 -24 OFFCURVE",
"70 381 OFFCURVE",
"70 724 QCURVE SMOOTH",
"70 775 LINE SMOOTH",
"70 1119 OFFCURVE",
"447 1524 OFFCURVE",
"752 1524 QCURVE SMOOTH",
"764 1524 LINE SMOOTH",
"1048 1524 OFFCURVE",
"1395 1234 OFFCURVE",
"1403 979 QCURVE SMOOTH",
"1404 947 LINE",
"1235 947 LINE",
"1234 974 LINE SMOOTH",
"1227 1166 OFFCURVE",
"997 1372 OFFCURVE",
"769 1372 QCURVE SMOOTH",
"758 1372 LINE SMOOTH",
"510 1372 OFFCURVE",
"234 1043 OFFCURVE",
"234 769 QCURVE SMOOTH",
"234 727 LINE SMOOTH",
"234 457 OFFCURVE",
"513 123 OFFCURVE",
"767 123 QCURVE SMOOTH",
"774 123 LINE SMOOTH"
);
}
);
width = 1445;
},
{
layerId = "1E479C38-E7C4-45DB-9AC0-D96E7E2DA744";
paths = (
{
closed = 1;
nodes = (
"1054 14 OFFCURVE",
"1330 308 OFFCURVE",
"1339 528 QCURVE SMOOTH",
"1340 552 LINE",
"1388 552 LINE",
"1386 527 LINE SMOOTH",
"1366 276 OFFCURVE",
"1074 -24 OFFCURVE",
"772 -24 QCURVE SMOOTH",
"761 -24 LINE SMOOTH",
"461 -24 OFFCURVE",
"96 381 OFFCURVE",
"96 724 QCURVE SMOOTH",
"96 775 LINE SMOOTH",
"96 1111 OFFCURVE",
"423 1524 OFFCURVE",
"755 1524 QCURVE SMOOTH",
"767 1524 LINE SMOOTH",
"1056 1524 OFFCURVE",
"1369 1251 OFFCURVE",
"1386 979 QCURVE SMOOTH",
"1388 947 LINE",
"1340 947 LINE",
"1339 973 LINE SMOOTH",
"1329 1233 OFFCURVE",
"1026 1486 OFFCURVE",
"765 1486 QCURVE SMOOTH",
"752 1486 LINE SMOOTH",
"445 1486 OFFCURVE",
"136 1087 OFFCURVE",
"136 770 QCURVE SMOOTH",
"136 722 LINE SMOOTH",
"136 398 OFFCURVE",
"460 14 OFFCURVE",
"763 14 QCURVE SMOOTH",
"772 14 LINE SMOOTH"
);
}
);
width = 1445;
},
{
layerId = "6A9C0B59-300C-41DD-B63B-D1D6BE2B1BF1";
paths = (
{
closed = 1;
nodes = (
"997 123 OFFCURVE",
"1238 318 OFFCURVE",
"1242 505 QCURVE SMOOTH",
"1243 552 LINE",
"1405 552 LINE",
"1405 500 LINE SMOOTH",
"1405 275 OFFCURVE",
"1088 -24 OFFCURVE",
"769 -24 QCURVE SMOOTH",
"758 -24 LINE SMOOTH",
"451 -24 OFFCURVE",
"70 381 OFFCURVE",
"70 724 QCURVE SMOOTH",
"70 775 LINE SMOOTH",
"70 1119 OFFCURVE",
"447 1524 OFFCURVE",
"752 1524 QCURVE SMOOTH",
"764 1524 LINE SMOOTH",
"1048 1524 OFFCURVE",
"1395 1234 OFFCURVE",
"1403 979 QCURVE SMOOTH",
"1404 947 LINE",
"1235 947 LINE",
"1234 974 LINE SMOOTH",
"1227 1166 OFFCURVE",
"997 1372 OFFCURVE",
"769 1372 QCURVE SMOOTH",
"758 1372 LINE SMOOTH",
"510 1372 OFFCURVE",
"234 1043 OFFCURVE",
"234 769 QCURVE SMOOTH",
"234 727 LINE SMOOTH",
"234 457 OFFCURVE",
"513 123 OFFCURVE",
"767 123 QCURVE SMOOTH",
"774 123 LINE SMOOTH"
);
}
);
width = 1445;
}
);
unicode = 0043;
},
{
glyphname = D;
lastChange = "2018-08-08 18:49:00 +0000";
layers = (
{
layerId = "BFBF8D55-D2EA-42C2-8EE4-A778DD08AD04";
paths = (
{
closed = 1;
nodes = (
"192 1500 LINE",
"352 1500 LINE",
"352 0 LINE",
"192 0 LINE"
);
},
{
closed = 1;
nodes = (
"882 139 OFFCURVE",
"1168 457 OFFCURVE",
"1168 727 QCURVE SMOOTH",
"1168 769 LINE SMOOTH",
"1168 1038 OFFCURVE",
"879 1358 OFFCURVE",
"668 1358 QCURVE SMOOTH",
"268 1358 LINE",
"268 1500 LINE",
"672 1500 LINE SMOOTH",
"956 1500 OFFCURVE",
"1332 1107 OFFCURVE",
"1332 775 QCURVE SMOOTH",
"1332 724 LINE SMOOTH",
"1332 392 OFFCURVE",
"952 0 OFFCURVE",
"668 0 QCURVE SMOOTH",
"268 0 LINE",
"268 139 LINE",
"671 139 LINE SMOOTH"
);
}
);
width = 1402;
},
{
layerId = "1E479C38-E7C4-45DB-9AC0-D96E7E2DA744";
paths = (
{
closed = 1;
nodes = (
"226 1500 LINE",
"266 1500 LINE",
"266 0 LINE",
"226 0 LINE"
);
},
{
closed = 1;
nodes = (
"935 38 OFFCURVE",
"1259 420 OFFCURVE",
"1259 740 QCURVE SMOOTH",
"1259 755 LINE SMOOTH",
"1259 1077 OFFCURVE",
"933 1462 OFFCURVE",
"694 1462 QCURVE SMOOTH",
"248 1462 LINE",
"248 1500 LINE",
"679 1500 LINE SMOOTH",
"947 1500 OFFCURVE",
"1302 1107 OFFCURVE",
"1302 775 QCURVE SMOOTH",
"1302 724 LINE SMOOTH",
"1302 392 OFFCURVE",
"953 0 OFFCURVE",
"675 0 QCURVE SMOOTH",
"248 0 LINE",
"248 38 LINE",
"696 38 LINE SMOOTH"
);
}
);
width = 1402;
},
{
layerId = "6A9C0B59-300C-41DD-B63B-D1D6BE2B1BF1";
paths = (
{
closed = 1;
nodes = (
"192 1500 LINE",
"352 1500 LINE",
"352 0 LINE",
"192 0 LINE"
);
},
{
closed = 1;
nodes = (
"882 139 OFFCURVE",
"1168 457 OFFCURVE",
"1168 727 QCURVE SMOOTH",
"1168 769 LINE SMOOTH",
"1168 1038 OFFCURVE",
"879 1358 OFFCURVE",
"668 1358 QCURVE SMOOTH",
"268 1358 LINE",
"268 1500 LINE",
"672 1500 LINE SMOOTH",
"956 1500 OFFCURVE",
"1332 1107 OFFCURVE",
"1332 775 QCURVE SMOOTH",
"1332 724 LINE SMOOTH",
"1332 392 OFFCURVE",
"952 0 OFFCURVE",
"668 0 QCURVE SMOOTH",
"268 0 LINE",
"268 139 LINE",
"671 139 LINE SMOOTH"
);
}
);
width = 1402;
}
);
unicode = 0044;
},
{
glyphname = E;
lastChange = "2018-08-08 18:49:00 +0000";
layers = (
{
layerId = "BFBF8D55-D2EA-42C2-8EE4-A778DD08AD04";
paths = (
{
closed = 1;
nodes = (
"192 1500 LINE",
"352 1500 LINE",
"352 0 LINE",
"192 0 LINE"
);
},
{
closed = 1;
nodes = (
"272 720 LINE",
"272 865 LINE",
"912 865 LINE",
"912 720 LINE"
);
},
{
closed = 1;
nodes = (
"272 1355 LINE",
"272 1500 LINE",
"972 1500 LINE",
"972 1355 LINE"
);
},
{
closed = 1;
nodes = (
"272 0 LINE",
"272 145 LINE",
"972 145 LINE",
"972 0 LINE"
);
}
);
width = 1028;
},
{
layerId = "1E479C38-E7C4-45DB-9AC0-D96E7E2DA744";
paths = (
{
closed = 1;
nodes = (
"226 1500 LINE",
"266 1500 LINE",
"266 0 LINE",
"226 0 LINE"
);
},
{
closed = 1;
nodes = (
"246 787 LINE",
"246 825 LINE",
"912 825 LINE",
"912 787 LINE"
);
},
{
closed = 1;
nodes = (
"246 1462 LINE",
"246 1500 LINE",
"972 1500 LINE",
"972 1462 LINE"
);
},
{
closed = 1;
nodes = (
"246 0 LINE",
"246 36 LINE",
"972 36 LINE",
"972 0 LINE"
);
}
);
width = 1028;
},
{
layerId = "6A9C0B59-300C-41DD-B63B-D1D6BE2B1BF1";
paths = (
{
closed = 1;
nodes = (
"192 1500 LINE",
"352 1500 LINE",
"352 0 LINE",
"192 0 LINE"
);
},
{
closed = 1;
nodes = (
"272 720 LINE",
"272 865 LINE",
"912 865 LINE",
"912 720 LINE"
);
},
{
closed = 1;
nodes = (
"272 1355 LINE",
"272 1500 LINE",
"972 1500 LINE",
"972 1355 LINE"
);
},
{
closed = 1;
nodes = (
"272 0 LINE",
"272 145 LINE",
"972 145 LINE",
"972 0 LINE"
);
}
);
width = 1028;
}
);
unicode = 0045;
},
{
glyphname = F;
lastChange = "2018-08-08 18:49:00 +0000";
layers = (
{
layerId = "BFBF8D55-D2EA-42C2-8EE4-A778DD08AD04";
paths = (
{
closed = 1;
nodes = (
"192 1500 LINE",
"352 1500 LINE",
"352 0 LINE",
"192 0 LINE"
);
},
{
closed = 1;
nodes = (
"272 720 LINE",
"272 865 LINE",
"882 865 LINE",
"882 720 LINE"
);
},
{
closed = 1;
nodes = (
"272 1355 LINE",
"272 1500 LINE",
"942 1500 LINE",
"942 1355 LINE"
);
}
);
width = 962;
},
{
layerId = "1E479C38-E7C4-45DB-9AC0-D96E7E2DA744";
paths = (
{
closed = 1;
nodes = (
"226 1500 LINE",
"266 1500 LINE",
"266 0 LINE",
"226 0 LINE"
);
},
{
closed = 1;
nodes = (
"247 769 LINE",
"247 805 LINE",
"882 805 LINE",
"882 769 LINE"
);
},
{
closed = 1;
nodes = (
"247 1462 LINE",
"247 1500 LINE",
"942 1500 LINE",
"942 1462 LINE"
);
}
);
width = 962;
},
{
layerId = "6A9C0B59-300C-41DD-B63B-D1D6BE2B1BF1";
paths = (
{
closed = 1;
nodes = (
"192 1500 LINE",
"352 1500 LINE",
"352 0 LINE",
"192 0 LINE"
);
},
{
closed = 1;
nodes = (
"272 720 LINE",
"272 865 LINE",
"882 865 LINE",
"882 720 LINE"
);
},
{
closed = 1;
nodes = (
"272 1355 LINE",
"272 1500 LINE",
"942 1500 LINE",
"942 1355 LINE"
);
}
);
width = 962;
}
);
unicode = 0046;
},
{
glyphname = G;
lastChange = "2018-08-08 18:49:00 +0000";
layers = (
{
layerId = "BFBF8D55-D2EA-42C2-8EE4-A778DD08AD04";
paths = (
{
closed = 1;
nodes = (
"1019 125 OFFCURVE",
"1264 323 OFFCURVE",
"1271 515 QCURVE SMOOTH",
"1274 598 LINE",
"846 597 LINE",
"846 748 LINE",
"1432 749 LINE",
"1428 540 LINE SMOOTH",
"1423 270 OFFCURVE",
"1104 -25 OFFCURVE",
"795 -25 QCURVE SMOOTH",
"784 -25 LINE SMOOTH",
"456 -25 OFFCURVE",
"70 373 OFFCURVE",
"70 724 QCURVE SMOOTH",
"70 775 LINE SMOOTH",
"70 1131 OFFCURVE",
"465 1524 OFFCURVE",
"757 1524 QCURVE SMOOTH",
"769 1524 LINE SMOOTH",
"1054 1524 OFFCURVE",
"1377 1249 OFFCURVE",
"1391 1018 QCURVE SMOOTH",
"1393 986 LINE",
"1224 986 LINE",
"1222 1013 LINE SMOOTH",
"1209 1183 OFFCURVE",
"983 1372 OFFCURVE",
"767 1372 QCURVE SMOOTH",
"756 1372 LINE SMOOTH",
"514 1372 OFFCURVE",
"234 1045 OFFCURVE",
"234 769 QCURVE SMOOTH",
"234 727 LINE SMOOTH",
"234 459 OFFCURVE",
"514 125 OFFCURVE",
"788 125 QCURVE SMOOTH",
"795 125 LINE SMOOTH"
);
}
);
width = 1505;
},
{
layerId = "1E479C38-E7C4-45DB-9AC0-D96E7E2DA744";
paths = (
{
closed = 1;
nodes = (
"1079 15 OFFCURVE",
"1371 292 OFFCURVE",
"1371 610 QCURVE SMOOTH",
"1371 670 LINE",
"846 669 LINE",
"846 707 LINE",
"1410 708 LINE",
"1407 540 LINE SMOOTH",
"1402 270 OFFCURVE",
"1104 -25 OFFCURVE",
"806 -25 QCURVE SMOOTH",
"795 -25 LINE SMOOTH",
"468 -25 OFFCURVE",
"96 389 OFFCURVE",
"96 724 QCURVE SMOOTH",
"96 775 LINE SMOOTH",
"96 1131 OFFCURVE",
"477 1524 OFFCURVE",
"759 1524 QCURVE SMOOTH",
"771 1524 LINE SMOOTH",
"1045 1524 OFFCURVE",
"1357 1244 OFFCURVE",
"1364 1018 QCURVE SMOOTH",
"1365 986 LINE",
"1316 986 LINE",
"1316 999 LINE SMOOTH",
"1316 1218 OFFCURVE",
"1027 1479 OFFCURVE",
"771 1479 QCURVE SMOOTH",
"760 1479 LINE SMOOTH",
"498 1479 OFFCURVE",
"139 1117 OFFCURVE",
"139 771 QCURVE SMOOTH",
"139 721 LINE SMOOTH",
"139 406 OFFCURVE",
"480 15 OFFCURVE",
"796 15 QCURVE SMOOTH",
"803 15 LINE SMOOTH"
);
}
);
width = 1505;
},
{
layerId = "6A9C0B59-300C-41DD-B63B-D1D6BE2B1BF1";
paths = (
{
closed = 1;
nodes = (
"1019 125 OFFCURVE",
"1264 323 OFFCURVE",
"1271 515 QCURVE SMOOTH",
"1274 598 LINE",
"846 597 LINE",
"846 748 LINE",
"1432 749 LINE",
"1428 540 LINE SMOOTH",
"1423 270 OFFCURVE",
"1104 -25 OFFCURVE",
"795 -25 QCURVE SMOOTH",
"784 -25 LINE SMOOTH",
"456 -25 OFFCURVE",
"70 373 OFFCURVE",
"70 724 QCURVE SMOOTH",
"70 775 LINE SMOOTH",
"70 1131 OFFCURVE",
"465 1524 OFFCURVE",
"757 1524 QCURVE SMOOTH",
"769 1524 LINE SMOOTH",
"1054 1524 OFFCURVE",
"1377 1249 OFFCURVE",
"1391 1018 QCURVE SMOOTH",
"1393 986 LINE",
"1224 986 LINE",
"1222 1013 LINE SMOOTH",
"1209 1183 OFFCURVE",
"983 1372 OFFCURVE",
"767 1372 QCURVE SMOOTH",
"756 1372 LINE SMOOTH",
"514 1372 OFFCURVE",
"234 1045 OFFCURVE",
"234 769 QCURVE SMOOTH",
"234 727 LINE SMOOTH",
"234 459 OFFCURVE",
"514 125 OFFCURVE",
"788 125 QCURVE SMOOTH",
"795 125 LINE SMOOTH"
);
}
);
width = 1505;
}
);
unicode = 0047;
},
{
glyphname = H;
lastChange = "2018-08-08 18:49:00 +0000";
layers = (
{
layerId = "BFBF8D55-D2EA-42C2-8EE4-A778DD08AD04";
paths = (
{
closed = 1;
nodes = (
"186 1500 LINE",
"346 1500 LINE",
"346 0 LINE",
"186 0 LINE"
);
},
{
closed = 1;
nodes = (
"1086 1500 LINE",
"1246 1500 LINE",
"1246 0 LINE",
"1086 0 LINE"
);
},
{
closed = 1;
nodes = (
"266 720 LINE",
"266 865 LINE",
"1166 865 LINE",
"1166 720 LINE"
);
}
);
width = 1432;
},
{
layerId = "1E479C38-E7C4-45DB-9AC0-D96E7E2DA744";
paths = (
{
closed = 1;
nodes = (
"226 1500 LINE",
"266 1500 LINE",
"266 0 LINE",
"226 0 LINE"
);
},
{
closed = 1;
nodes = (
"1166 1500 LINE",
"1206 1500 LINE",
"1206 0 LINE",
"1166 0 LINE"
);
},
{
closed = 1;
nodes = (
"246 785 LINE",
"246 821 LINE",
"1186 821 LINE",
"1186 785 LINE"
);
}
);
width = 1432;
},
{
layerId = "6A9C0B59-300C-41DD-B63B-D1D6BE2B1BF1";
paths = (
{
closed = 1;
nodes = (
"106 1500 LINE",
"596 1500 LINE",
"596 0 LINE",
"106 0 LINE"
);
},
{
closed = 1;
nodes = (
"836 1500 LINE",
"1326 1500 LINE",
"1326 0 LINE",
"836 0 LINE"
);
},
{
closed = 1;
nodes = (
"236 620 LINE",
"236 965 LINE",
"1196 965 LINE",
"1196 620 LINE"
);
}
);
width = 1432;
}
);
unicode = 0048;
},
{
glyphname = I;
lastChange = "2018-08-08 18:49:00 +0000";
layers = (
{
layerId = "BFBF8D55-D2EA-42C2-8EE4-A778DD08AD04";
paths = (
{
closed = 1;
nodes = (
"192 1500 LINE",
"352 1500 LINE",
"352 0 LINE",
"192 0 LINE"
);
}
);
width = 544;
},
{
layerId = "1E479C38-E7C4-45DB-9AC0-D96E7E2DA744";
paths = (
{
closed = 1;
nodes = (
"252 1500 LINE",
"292 1500 LINE",
"292 0 LINE",
"252 0 LINE"
);
}
);
width = 544;
},
{
layerId = "6A9C0B59-300C-41DD-B63B-D1D6BE2B1BF1";
paths = (
{
closed = 1;
nodes = (
"192 1500 LINE",
"352 1500 LINE",
"352 0 LINE",
"192 0 LINE"
);
}
);
width = 544;
}
);
unicode = 0049;
},
{
glyphname = J;
lastChange = "2018-08-08 18:49:00 +0000";
layers = (
{
layerId = "BFBF8D55-D2EA-42C2-8EE4-A778DD08AD04";
paths = (
{
closed = 1;
nodes = (
"869 278 OFFCURVE",
"654 -25 OFFCURVE",
"456 -25 QCURVE SMOOTH",
"434 -25 LINE SMOOTH",
"241 -25 OFFCURVE",
"24 151 OFFCURVE",
"24 319 QCURVE SMOOTH",
"24 364 LINE",
"173 364 LINE",
"173 328 LINE SMOOTH",
"173 226 OFFCURVE",
"304 114 OFFCURVE",
"429 114 QCURVE SMOOTH",
"449 114 LINE SMOOTH",
"575 114 OFFCURVE",
"709 315 OFFCURVE",
"709 505 QCURVE SMOOTH",
"709 1500 LINE",
"869 1500 LINE",
"869 500 LINE SMOOTH"
);
}
);
width = 1031;
},
{
layerId = "1E479C38-E7C4-45DB-9AC0-D96E7E2DA744";
paths = (
{
closed = 1;
nodes = (
"816 226 OFFCURVE",
"622 -25 OFFCURVE",
"445 -25 QCURVE SMOOTH",
"433 -25 LINE SMOOTH",
"238 -25 OFFCURVE",
"44 154 OFFCURVE",
"44 349 QCURVE SMOOTH",
"44 364 LINE",
"82 363 LINE",
"82 342 LINE SMOOTH",
"82 171 OFFCURVE",
"250 10 OFFCURVE",
"432 10 QCURVE SMOOTH",
"441 10 LINE SMOOTH",
"601 10 OFFCURVE",
"776 240 OFFCURVE",
"776 459 QCURVE SMOOTH",
"775 1500 LINE",
"816 1500 LINE",
"816 486 LINE SMOOTH"
);
}
);
width = 1031;
},
{
layerId = "6A9C0B59-300C-41DD-B63B-D1D6BE2B1BF1";
paths = (
{
closed = 1;
nodes = (
"869 278 OFFCURVE",
"654 -25 OFFCURVE",
"456 -25 QCURVE SMOOTH",
"434 -25 LINE SMOOTH",
"241 -25 OFFCURVE",
"24 151 OFFCURVE",
"24 319 QCURVE SMOOTH",
"24 364 LINE",
"173 364 LINE",
"173 328 LINE SMOOTH",
"173 226 OFFCURVE",
"304 114 OFFCURVE",
"429 114 QCURVE SMOOTH",
"449 114 LINE SMOOTH",
"575 114 OFFCURVE",
"709 315 OFFCURVE",
"709 505 QCURVE SMOOTH",
"709 1500 LINE",
"869 1500 LINE",
"869 500 LINE SMOOTH"
);
}
);
width = 1031;
}
);
unicode = 004A;
},
{
glyphname = K;
lastChange = "2018-08-08 18:49:00 +0000";
layers = (
{
layerId = "BFBF8D55-D2EA-42C2-8EE4-A778DD08AD04";
paths = (
{
closed = 1;
nodes = (
"192 1500 LINE",
"352 1500 LINE",
"352 757 LINE",
"467 876 LINE",
"975 1500 LINE",
"1162 1500 LINE",
"604 836 LINE",
"540 767 LINE",
"352 599 LINE",
"352 0 LINE",
"192 0 LINE"
);
},
{
closed = 1;
nodes = (
"579 904 LINE",
"1252 0 LINE",
"1062 0 LINE",
"462 806 LINE"
);
}
);
width = 1172;
},
{
layerId = "1E479C38-E7C4-45DB-9AC0-D96E7E2DA744";
paths = (
{
closed = 1;
nodes = (
"226 1500 LINE",
"266 1500 LINE",
"266 653 LINE",
"472 875 LINE",
"1065 1500 LINE",
"1122 1500 LINE",
"542 897 LINE",
"530 885 LINE",
"266 599 LINE",
"266 0 LINE",
"226 0 LINE"
);
},
{
closed = 1;
nodes = (
"539 924 LINE",
"1222 0 LINE",
"1171 0 LINE",
"509 888 LINE"
);
}
);
width = 1172;
},
{
layerId = "6A9C0B59-300C-41DD-B63B-D1D6BE2B1BF1";
paths = (
{
closed = 1;
nodes = (
"192 1500 LINE",
"352 1500 LINE",
"352 757 LINE",
"467 876 LINE",
"975 1500 LINE",
"1162 1500 LINE",
"604 836 LINE",
"540 767 LINE",
"352 599 LINE",
"352 0 LINE",
"192 0 LINE"
);
},
{
closed = 1;
nodes = (
"579 904 LINE",
"1252 0 LINE",
"1062 0 LINE",
"462 806 LINE"
);
}
);
width = 1172;
}
);
unicode = 004B;
},
{
glyphname = L;
lastChange = "2018-08-08 18:49:00 +0000";
layers = (
{
layerId = "BFBF8D55-D2EA-42C2-8EE4-A778DD08AD04";
paths = (
{
closed = 1;
nodes = (
"192 1500 LINE",
"352 1500 LINE",
"352 0 LINE",
"192 0 LINE"
);
},
{
closed = 1;
nodes = (
"272 0 LINE",
"272 145 LINE",
"972 145 LINE",
"972 0 LINE"
);
}
);
width = 992;
},
{
layerId = "1E479C38-E7C4-45DB-9AC0-D96E7E2DA744";
paths = (
{
closed = 1;
nodes = (
"226 1500 LINE",
"266 1500 LINE",
"266 0 LINE",
"226 0 LINE"
);
},
{
closed = 1;
nodes = (
"247 0 LINE",
"247 38 LINE",
"972 38 LINE",
"972 0 LINE"
);
}
);
width = 992;
},
{
layerId = "6A9C0B59-300C-41DD-B63B-D1D6BE2B1BF1";
paths = (
{
closed = 1;
nodes = (
"192 1500 LINE",
"352 1500 LINE",
"352 0 LINE",
"192 0 LINE"
);
},
{
closed = 1;
nodes = (
"272 0 LINE",
"272 145 LINE",
"972 145 LINE",
"972 0 LINE"
);
}
);
width = 992;
}
);
unicode = 004C;
},
{
glyphname = M;
lastChange = "2018-08-08 18:49:00 +0000";
layers = (
{
layerId = "BFBF8D55-D2EA-42C2-8EE4-A778DD08AD04";
paths = (
{
closed = 1;
nodes = (
"192 1500 LINE",
"367 1500 LINE",
"894 194 LINE",
"907 194 LINE",
"1440 1500 LINE",
"1617 1500 LINE",
"1617 0 LINE",
"1462 0 LINE",
"1462 1185 LINE",
"980 0 LINE",
"820 0 LINE",
"342 1175 LINE",
"342 0 LINE",
"192 0 LINE"
);
}
);
width = 1814;
},
{
layerId = "1E479C38-E7C4-45DB-9AC0-D96E7E2DA744";
paths = (
{
closed = 1;
nodes = (
"226 1500 LINE",
"287 1500 LINE",
"901 76 LINE",
"914 76 LINE",
"1522 1500 LINE",
"1589 1500 LINE",
"1589 0 LINE",
"1549 0 LINE",
"1549 1452 LINE",
"920 0 LINE",
"890 0 LINE",
"266 1455 LINE",
"266 0 LINE",
"226 0 LINE"
);
}
);
width = 1814;
},
{
layerId = "6A9C0B59-300C-41DD-B63B-D1D6BE2B1BF1";
paths = (
{
closed = 1;
nodes = (
"192 1500 LINE",
"367 1500 LINE",
"894 194 LINE",
"907 194 LINE",
"1440 1500 LINE",
"1617 1500 LINE",
"1617 0 LINE",
"1462 0 LINE",
"1462 1185 LINE",
"980 0 LINE",
"820 0 LINE",
"342 1175 LINE",
"342 0 LINE",
"192 0 LINE"
);
}
);
width = 1814;
}
);
unicode = 004D;
},
{
glyphname = N;
lastChange = "2018-08-08 18:49:00 +0000";
layers = (
{
layerId = "BFBF8D55-D2EA-42C2-8EE4-A778DD08AD04";
paths = (
{
closed = 1;
nodes = (
"192 1500 LINE",
"346 1500 LINE",
"347 1500 LINE",
"347 1498 LINE",
"1092 285 LINE",
"1092 1500 LINE",
"1247 1500 LINE",
"1247 0 LINE",
"1092 0 LINE",
"1092 13 LINE",
"347 1198 LINE",
"347 0 LINE",
"192 0 LINE"
);
}
);
width = 1439;
},
{
layerId = "1E479C38-E7C4-45DB-9AC0-D96E7E2DA744";
paths = (
{
closed = 1;
nodes = (
"226 1500 LINE",
"265 1500 LINE",
"266 1500 LINE",
"266 1498 LINE",
"1173 85 LINE",
"1173 1500 LINE",
"1213 1500 LINE",
"1213 0 LINE",
"1173 0 LINE",
"1173 13 LINE",
"266 1426 LINE",
"266 0 LINE",
"226 0 LINE"
);
}
);
width = 1439;
},
{
layerId = "6A9C0B59-300C-41DD-B63B-D1D6BE2B1BF1";
paths = (
{
closed = 1;
nodes = (
"192 1500 LINE",
"346 1500 LINE",
"347 1500 LINE",
"347 1498 LINE",
"1092 285 LINE",
"1092 1500 LINE",
"1247 1500 LINE",
"1247 0 LINE",
"1092 0 LINE",
"1092 13 LINE",
"347 1198 LINE",
"347 0 LINE",
"192 0 LINE"
);
}
);
width = 1439;
}
);
unicode = 004E;
},
{
glyphname = O;
lastChange = "2018-08-08 18:49:00 +0000";
layers = (
{
layerId = "BFBF8D55-D2EA-42C2-8EE4-A778DD08AD04";
paths = (
{
closed = 1;
nodes = (
"470 -25 OFFCURVE",
"70 402 OFFCURVE",
"70 724 QCURVE SMOOTH",
"70 775 LINE SMOOTH",
"70 1097 OFFCURVE",
"465 1524 OFFCURVE",
"793 1524 QCURVE SMOOTH",
"803 1524 LINE SMOOTH",
"1137 1524 OFFCURVE",
"1532 1097 OFFCURVE",
"1532 775 QCURVE SMOOTH",
"1532 724 LINE SMOOTH",
"1532 402 OFFCURVE",
"1142 -25 OFFCURVE",
"808 -25 QCURVE SMOOTH",
"798 -25 LINE SMOOTH"
);
},
{
closed = 1;
nodes = (
"1074 125 OFFCURVE",
"1368 487 OFFCURVE",
"1368 727 QCURVE SMOOTH",
"1368 769 LINE SMOOTH",
"1368 1008 OFFCURVE",
"1078 1372 OFFCURVE",
"803 1372 QCURVE SMOOTH",
"793 1372 LINE SMOOTH",
"532 1372 OFFCURVE",
"234 1008 OFFCURVE",
"234 769 QCURVE SMOOTH",
"234 727 LINE SMOOTH",
"234 487 OFFCURVE",
"528 125 OFFCURVE",
"793 125 QCURVE SMOOTH",
"803 125 LINE SMOOTH"
);
}
);
width = 1602;
},
{
layerId = "1E479C38-E7C4-45DB-9AC0-D96E7E2DA744";
paths = (
{
closed = 1;
nodes = (
"482 -25 OFFCURVE",
"96 402 OFFCURVE",
"96 724 QCURVE SMOOTH",
"96 775 LINE SMOOTH",
"96 1097 OFFCURVE",
"477 1524 OFFCURVE",
"793 1524 QCURVE SMOOTH",
"802 1524 LINE SMOOTH",
"1126 1524 OFFCURVE",
"1507 1097 OFFCURVE",
"1507 775 QCURVE SMOOTH",
"1507 724 LINE SMOOTH",
"1507 402 OFFCURVE",
"1131 -25 OFFCURVE",
"808 -25 QCURVE SMOOTH",
"798 -25 LINE SMOOTH"
);
},
{
closed = 1;
nodes = (
"1121 15 OFFCURVE",
"1464 449 OFFCURVE",
"1464 735 QCURVE SMOOTH",
"1464 753 LINE SMOOTH",
"1464 1040 OFFCURVE",
"1125 1479 OFFCURVE",
"804 1479 QCURVE SMOOTH",
"791 1479 LINE SMOOTH",
"487 1479 OFFCURVE",
"138 1040 OFFCURVE",
"138 753 QCURVE SMOOTH",
"138 735 LINE SMOOTH",
"138 449 OFFCURVE",
"481 15 OFFCURVE",
"791 15 QCURVE SMOOTH",
"804 15 LINE SMOOTH"
);
}
);
width = 1602;
},
{
layerId = "6A9C0B59-300C-41DD-B63B-D1D6BE2B1BF1";
paths = (
{
closed = 1;
nodes = (
"470 -25 OFFCURVE",
"70 402 OFFCURVE",
"70 724 QCURVE SMOOTH",
"70 775 LINE SMOOTH",
"70 1097 OFFCURVE",
"465 1524 OFFCURVE",
"793 1524 QCURVE SMOOTH",
"803 1524 LINE SMOOTH",
"1137 1524 OFFCURVE",
"1532 1097 OFFCURVE",
"1532 775 QCURVE SMOOTH",
"1532 724 LINE SMOOTH",
"1532 402 OFFCURVE",
"1142 -25 OFFCURVE",
"808 -25 QCURVE SMOOTH",
"798 -25 LINE SMOOTH"
);
},
{
closed = 1;
nodes = (
"1074 125 OFFCURVE",
"1368 487 OFFCURVE",
"1368 727 QCURVE SMOOTH",
"1368 769 LINE SMOOTH",
"1368 1008 OFFCURVE",
"1078 1372 OFFCURVE",
"803 1372 QCURVE SMOOTH",
"793 1372 LINE SMOOTH",
"532 1372 OFFCURVE",
"234 1008 OFFCURVE",
"234 769 QCURVE SMOOTH",
"234 727 LINE SMOOTH",
"234 487 OFFCURVE",
"528 125 OFFCURVE",
"793 125 QCURVE SMOOTH",
"803 125 LINE SMOOTH"
);
}
);
width = 1602;
}
);
unicode = 004F;
},
{
glyphname = P;
lastChange = "2018-08-08 18:49:00 +0000";
layers = (
{
layerId = "BFBF8D55-D2EA-42C2-8EE4-A778DD08AD04";
paths = (
{
closed = 1;
nodes = (
"192 1500 LINE",
"352 1500 LINE",
"352 0 LINE",
"192 0 LINE"
);
},
{
closed = 1;
nodes = (
"272 623 LINE",
"272 762 LINE",
"645 762 LINE SMOOTH",
"810 762 OFFCURVE",
"947 922 OFFCURVE",
"947 1071 QCURVE SMOOTH",
"947 1087 LINE SMOOTH",
"947 1221 OFFCURVE",
"800 1355 OFFCURVE",
"665 1355 QCURVE SMOOTH",
"272 1355 LINE",
"272 1500 LINE",
"692 1500 LINE SMOOTH",
"879 1500 OFFCURVE",
"1106 1288 OFFCURVE",
"1106 1090 QCURVE SMOOTH",
"1106 1074 LINE SMOOTH",
"1106 859 OFFCURVE",
"861 623 OFFCURVE",
"713 623 QCURVE SMOOTH"
);
}
);
width = 1145;
},
{
layerId = "1E479C38-E7C4-45DB-9AC0-D96E7E2DA744";
paths = (
{
closed = 1;
nodes = (
"226 1500 LINE",
"266 1500 LINE",
"266 0 LINE",
"226 0 LINE"
);
},
{
closed = 1;
nodes = (
"242 678 LINE",
"242 717 LINE",
"614 717 LINE SMOOTH",
"837 717 OFFCURVE",
"1023 918 OFFCURVE",
"1023 1105 QCURVE SMOOTH",
"1023 1125 LINE SMOOTH",
"1023 1293 OFFCURVE",
"823 1462 OFFCURVE",
"641 1462 QCURVE SMOOTH",
"242 1462 LINE",
"242 1500 LINE",
"649 1500 LINE SMOOTH",
"836 1500 OFFCURVE",
"1063 1301 OFFCURVE",
"1063 1116 QCURVE SMOOTH",
"1063 1101 LINE SMOOTH",
"1063 900 OFFCURVE",
"818 678 OFFCURVE",
"670 678 QCURVE SMOOTH"
);
}
);
width = 1145;
},
{
layerId = "6A9C0B59-300C-41DD-B63B-D1D6BE2B1BF1";
paths = (
{
closed = 1;
nodes = (
"192 1500 LINE",
"352 1500 LINE",
"352 0 LINE",
"192 0 LINE"
);
},
{
closed = 1;
nodes = (
"272 623 LINE",
"272 762 LINE",
"645 762 LINE SMOOTH",
"810 762 OFFCURVE",
"947 922 OFFCURVE",
"947 1071 QCURVE SMOOTH",
"947 1087 LINE SMOOTH",
"947 1221 OFFCURVE",
"800 1355 OFFCURVE",
"665 1355 QCURVE SMOOTH",
"272 1355 LINE",
"272 1500 LINE",
"692 1500 LINE SMOOTH",
"879 1500 OFFCURVE",
"1106 1288 OFFCURVE",
"1106 1090 QCURVE SMOOTH",
"1106 1074 LINE SMOOTH",
"1106 859 OFFCURVE",
"861 623 OFFCURVE",
"713 623 QCURVE SMOOTH"
);
}
);
width = 1145;
}
);
unicode = 0050;
},
{
glyphname = Q;
lastChange = "2018-08-08 18:49:00 +0000";
layers = (
{
layerId = "BFBF8D55-D2EA-42C2-8EE4-A778DD08AD04";
paths = (
{
closed = 1;
nodes = (
"470 -15 OFFCURVE",
"70 412 OFFCURVE",
"70 724 QCURVE SMOOTH",
"70 775 LINE SMOOTH",
"70 1097 OFFCURVE",
"465 1524 OFFCURVE",
"793 1524 QCURVE SMOOTH",
"803 1524 LINE SMOOTH",
"1137 1524 OFFCURVE",
"1532 1097 OFFCURVE",
"1532 775 QCURVE SMOOTH",
"1532 724 LINE SMOOTH",
"1532 412 OFFCURVE",
"1142 -15 OFFCURVE",
"808 -15 QCURVE SMOOTH",
"798 -15 LINE SMOOTH"
);
},
{
closed = 1;
nodes = (
"1074 135 OFFCURVE",
"1368 497 OFFCURVE",
"1368 737 QCURVE SMOOTH",
"1368 769 LINE SMOOTH",
"1368 1008 OFFCURVE",
"1078 1372 OFFCURVE",
"803 1372 QCURVE SMOOTH",
"793 1372 LINE SMOOTH",
"532 1372 OFFCURVE",
"234 1008 OFFCURVE",
"234 769 QCURVE SMOOTH",
"234 737 LINE SMOOTH",
"234 497 OFFCURVE",
"528 135 OFFCURVE",
"793 135 QCURVE SMOOTH",
"803 135 LINE SMOOTH"
);
},
{
closed = 1;
nodes = (
"1526 103 LINE",
"1526 -52 LINE",
"804 18 LINE",
"803 118 LINE"
);
}
);
width = 1602;
},
{
layerId = "1E479C38-E7C4-45DB-9AC0-D96E7E2DA744";
paths = (
{
closed = 1;
nodes = (
"482 -24 OFFCURVE",
"96 402 OFFCURVE",
"96 724 QCURVE SMOOTH",
"96 775 LINE SMOOTH",
"96 1097 OFFCURVE",
"477 1524 OFFCURVE",
"793 1524 QCURVE SMOOTH",
"802 1524 LINE SMOOTH",
"1126 1524 OFFCURVE",
"1507 1097 OFFCURVE",
"1507 775 QCURVE SMOOTH",
"1507 724 LINE SMOOTH",
"1507 402 OFFCURVE",
"1131 -24 OFFCURVE",
"808 -24 QCURVE SMOOTH",
"798 -24 LINE SMOOTH"
);
},
{
closed = 1;
nodes = (
"1121 15 OFFCURVE",
"1464 449 OFFCURVE",
"1464 735 QCURVE SMOOTH",
"1464 753 LINE SMOOTH",
"1464 1040 OFFCURVE",
"1125 1479 OFFCURVE",
"804 1479 QCURVE SMOOTH",
"791 1479 LINE SMOOTH",
"487 1479 OFFCURVE",
"138 1040 OFFCURVE",
"138 753 QCURVE SMOOTH",
"138 735 LINE SMOOTH",
"138 449 OFFCURVE",
"481 15 OFFCURVE",
"791 15 QCURVE SMOOTH",
"804 15 LINE SMOOTH"
);
},
{
closed = 1;
nodes = (
"1496 -15 LINE",
"1496 -80 LINE",
"704 -19 LINE",
"703 0 LINE"
);
}
);
width = 1602;
},
{
layerId = "6A9C0B59-300C-41DD-B63B-D1D6BE2B1BF1";
paths = (
{
closed = 1;
nodes = (
"470 -15 OFFCURVE",
"70 412 OFFCURVE",
"70 724 QCURVE SMOOTH",
"70 775 LINE SMOOTH",
"70 1097 OFFCURVE",
"465 1524 OFFCURVE",
"793 1524 QCURVE SMOOTH",
"803 1524 LINE SMOOTH",
"1137 1524 OFFCURVE",
"1532 1097 OFFCURVE",
"1532 775 QCURVE SMOOTH",
"1532 724 LINE SMOOTH",
"1532 412 OFFCURVE",
"1142 -15 OFFCURVE",
"808 -15 QCURVE SMOOTH",
"798 -15 LINE SMOOTH"
);
},
{
closed = 1;
nodes = (
"1074 135 OFFCURVE",
"1368 497 OFFCURVE",
"1368 737 QCURVE SMOOTH",
"1368 769 LINE SMOOTH",
"1368 1008 OFFCURVE",
"1078 1372 OFFCURVE",
"803 1372 QCURVE SMOOTH",
"793 1372 LINE SMOOTH",
"532 1372 OFFCURVE",
"234 1008 OFFCURVE",
"234 769 QCURVE SMOOTH",
"234 737 LINE SMOOTH",
"234 497 OFFCURVE",
"528 135 OFFCURVE",
"793 135 QCURVE SMOOTH",
"803 135 LINE SMOOTH"
);
},
{
closed = 1;
nodes = (
"1526 103 LINE",
"1526 -52 LINE",
"804 18 LINE",
"803 118 LINE"
);
}
);
width = 1602;
}
);
unicode = 0051;
},
{
glyphname = R;
lastChange = "2018-08-08 18:49:00 +0000";
layers = (
{
layerId = "BFBF8D55-D2EA-42C2-8EE4-A778DD08AD04";
paths = (
{
closed = 1;
nodes = (
"192 1500 LINE",
"352 1500 LINE",
"352 0 LINE",
"192 0 LINE"
);
},
{
closed = 1;
nodes = (
"272 643 LINE",
"272 782 LINE",
"625 782 LINE SMOOTH",
"790 782 OFFCURVE",
"927 932 OFFCURVE",
"927 1081 QCURVE SMOOTH",
"927 1097 LINE SMOOTH",
"927 1231 OFFCURVE",
"780 1355 OFFCURVE",
"645 1355 QCURVE SMOOTH",
"272 1355 LINE",
"272 1500 LINE",
"672 1500 LINE SMOOTH",
"859 1500 OFFCURVE",
"1086 1298 OFFCURVE",
"1086 1100 QCURVE SMOOTH",
"1086 1084 LINE SMOOTH",
"1086 869 OFFCURVE",
"841 643 OFFCURVE",
"693 643 QCURVE SMOOTH"
);
},
{
closed = 1;
nodes = (
"1250 0 LINE",
"1052 0 LINE",
"613 651 LINE",
"718 759 LINE"
);
}
);
width = 1202;
},
{
layerId = "1E479C38-E7C4-45DB-9AC0-D96E7E2DA744";
paths = (
{
closed = 1;
nodes = (
"226 1500 LINE",
"266 1500 LINE",
"266 0 LINE",
"226 0 LINE"
);
},
{
closed = 1;
nodes = (
"247 691 LINE",
"247 730 LINE",
"618 730 LINE SMOOTH",
"805 730 OFFCURVE",
"1018 922 OFFCURVE",
"1018 1112 QCURVE SMOOTH",
"1018 1133 LINE SMOOTH",
"1018 1294 OFFCURVE",
"821 1462 OFFCURVE",
"621 1462 QCURVE SMOOTH",
"247 1462 LINE",
"247 1500 LINE",
"627 1500 LINE SMOOTH",
"841 1500 OFFCURVE",
"1059 1316 OFFCURVE",
"1059 1122 QCURVE SMOOTH",
"1059 1107 LINE SMOOTH",
"1059 895 OFFCURVE",
"821 691 OFFCURVE",
"630 691 QCURVE SMOOTH"
);
},
{
closed = 1;
nodes = (
"1230 0 LINE",
"1180 0 LINE",
"684 710 LINE",
"723 725 LINE"
);
}
);
width = 1202;
},
{
layerId = "6A9C0B59-300C-41DD-B63B-D1D6BE2B1BF1";
paths = (
{
closed = 1;
nodes = (
"192 1500 LINE",
"352 1500 LINE",
"352 0 LINE",
"192 0 LINE"
);
},
{
closed = 1;
nodes = (
"272 643 LINE",
"272 782 LINE",
"625 782 LINE SMOOTH",
"790 782 OFFCURVE",
"927 932 OFFCURVE",
"927 1081 QCURVE SMOOTH",
"927 1097 LINE SMOOTH",
"927 1231 OFFCURVE",
"780 1355 OFFCURVE",
"645 1355 QCURVE SMOOTH",
"272 1355 LINE",
"272 1500 LINE",
"672 1500 LINE SMOOTH",
"859 1500 OFFCURVE",
"1086 1298 OFFCURVE",
"1086 1100 QCURVE SMOOTH",
"1086 1084 LINE SMOOTH",
"1086 869 OFFCURVE",
"841 643 OFFCURVE",
"693 643 QCURVE SMOOTH"
);
},
{
closed = 1;
nodes = (
"1250 0 LINE",
"1052 0 LINE",
"613 651 LINE",
"718 759 LINE"
);
}
);
width = 1202;
}
);
unicode = 0052;
},
{
glyphname = S;
lastChange = "2018-08-08 18:49:00 +0000";
layers = (
{
layerId = "BFBF8D55-D2EA-42C2-8EE4-A778DD08AD04";
paths = (
{
closed = 1;
nodes = (
"933 533 OFFCURVE",
"796 660 OFFCURVE",
"573 716 QCURVE SMOOTH",
"323 779 OFFCURVE",
"103 970 OFFCURVE",
"103 1135 QCURVE SMOOTH",
"103 1152 LINE SMOOTH",
"103 1320 OFFCURVE",
"345 1524 OFFCURVE",
"563 1524 QCURVE SMOOTH",
"574 1524 LINE SMOOTH",
"805 1524 OFFCURVE",
"1032 1304 OFFCURVE",
"1040 1110 QCURVE SMOOTH",
"1040 1086 LINE",
"866 1086 LINE",
"866 1104 LINE SMOOTH",
"866 1235 OFFCURVE",
"713 1377 OFFCURVE",
"570 1377 QCURVE SMOOTH",
"560 1377 LINE SMOOTH",
"424 1377 OFFCURVE",
"269 1275 OFFCURVE",
"269 1171 QCURVE SMOOTH",
"269 1159 LINE SMOOTH",
"269 1056 OFFCURVE",
"387 946 OFFCURVE",
"624 877 QCURVE SMOOTH",
"872 805 OFFCURVE",
"1098 615 OFFCURVE",
"1098 448 QCURVE SMOOTH",
"1098 404 LINE SMOOTH",
"1098 221 OFFCURVE",
"839 -25 OFFCURVE",
"592 -25 QCURVE SMOOTH",
"588 -25 LINE SMOOTH",
"315 -25 OFFCURVE",
"62 221 OFFCURVE",
"62 396 QCURVE SMOOTH",
"62 451 LINE",
"245 451 LINE",
"245 402 LINE SMOOTH",
"245 276 OFFCURVE",
"400 121 OFFCURVE",
"586 121 QCURVE SMOOTH",
"592 121 LINE SMOOTH",
"757 121 OFFCURVE",
"933 256 OFFCURVE",
"933 397 QCURVE SMOOTH",
"933 415 LINE SMOOTH"
);
}
);
width = 1160;
},
{
layerId = "1E479C38-E7C4-45DB-9AC0-D96E7E2DA744";
paths = (
{
closed = 1;
nodes = (
"1044 553 OFFCURVE",
"812 723 OFFCURVE",
"587 789 QCURVE SMOOTH",
"365 854 OFFCURVE",
"119 1020 OFFCURVE",
"119 1177 QCURVE SMOOTH",
"119 1202 LINE SMOOTH",
"119 1350 OFFCURVE",
"354 1524 OFFCURVE",
"565 1524 QCURVE SMOOTH",
"576 1524 LINE SMOOTH",
"800 1524 OFFCURVE",
"1028 1313 OFFCURVE",
"1028 1119 QCURVE SMOOTH",
"1028 1095 LINE",
"984 1096 LINE",
"984 1119 LINE SMOOTH",
"984 1293 OFFCURVE",
"773 1481 OFFCURVE",
"577 1481 QCURVE SMOOTH",
"562 1481 LINE SMOOTH",
"375 1481 OFFCURVE",
"161 1336 OFFCURVE",
"161 1198 QCURVE SMOOTH",
"161 1182 LINE SMOOTH",
"161 1046 OFFCURVE",
"370 895 OFFCURVE",
"601 827 QCURVE SMOOTH",
"826 761 OFFCURVE",
"1084 577 OFFCURVE",
"1084 408 QCURVE SMOOTH",
"1084 384 LINE SMOOTH",
"1084 201 OFFCURVE",
"822 -25 OFFCURVE",
"584 -25 QCURVE SMOOTH",
"580 -25 LINE SMOOTH",
"315 -25 OFFCURVE",
"79 221 OFFCURVE",
"79 396 QCURVE SMOOTH",
"79 451 LINE",
"119 451 LINE",
"119 392 LINE SMOOTH",
"119 241 OFFCURVE",
"329 10 OFFCURVE",
"580 10 QCURVE SMOOTH",
"589 10 LINE SMOOTH",
"810 10 OFFCURVE",
"1044 233 OFFCURVE",
"1044 385 QCURVE SMOOTH",
"1044 405 LINE SMOOTH"
);
}
);
width = 1160;
},
{
layerId = "6A9C0B59-300C-41DD-B63B-D1D6BE2B1BF1";
paths = (
{
closed = 1;
nodes = (
"933 533 OFFCURVE",
"796 660 OFFCURVE",
"573 716 QCURVE SMOOTH",
"323 779 OFFCURVE",
"103 970 OFFCURVE",
"103 1135 QCURVE SMOOTH",
"103 1152 LINE SMOOTH",
"103 1320 OFFCURVE",
"345 1524 OFFCURVE",
"563 1524 QCURVE SMOOTH",
"574 1524 LINE SMOOTH",
"805 1524 OFFCURVE",
"1032 1304 OFFCURVE",
"1040 1110 QCURVE SMOOTH",
"1040 1086 LINE",
"866 1086 LINE",
"866 1104 LINE SMOOTH",
"866 1235 OFFCURVE",
"713 1377 OFFCURVE",
"570 1377 QCURVE SMOOTH",
"560 1377 LINE SMOOTH",
"424 1377 OFFCURVE",
"269 1275 OFFCURVE",
"269 1171 QCURVE SMOOTH",
"269 1159 LINE SMOOTH",
"269 1056 OFFCURVE",
"387 946 OFFCURVE",
"624 877 QCURVE SMOOTH",
"872 805 OFFCURVE",
"1098 615 OFFCURVE",
"1098 448 QCURVE SMOOTH",
"1098 404 LINE SMOOTH",
"1098 221 OFFCURVE",
"839 -25 OFFCURVE",
"592 -25 QCURVE SMOOTH",
"588 -25 LINE SMOOTH",
"315 -25 OFFCURVE",
"62 221 OFFCURVE",
"62 396 QCURVE SMOOTH",
"62 451 LINE",
"245 451 LINE",
"245 402 LINE SMOOTH",
"245 276 OFFCURVE",
"400 121 OFFCURVE",
"586 121 QCURVE SMOOTH",
"592 121 LINE SMOOTH",
"757 121 OFFCURVE",
"933 256 OFFCURVE",
"933 397 QCURVE SMOOTH",
"933 415 LINE SMOOTH"
);
}
);
width = 1160;
}
);
unicode = 0053;
},
{
glyphname = T;
lastChange = "2018-08-08 18:49:00 +0000";
layers = (
{
layerId = "BFBF8D55-D2EA-42C2-8EE4-A778DD08AD04";
paths = (
{
closed = 1;
nodes = (
"432 1430 LINE",
"592 1430 LINE",
"592 0 LINE",
"432 0 LINE"
);
},
{
closed = 1;
nodes = (
"12 1355 LINE",
"12 1500 LINE",
"1012 1500 LINE",
"1012 1355 LINE"
);
}
);
width = 1024;
},
{
layerId = "1E479C38-E7C4-45DB-9AC0-D96E7E2DA744";
paths = (
{
closed = 1;
nodes = (
"492 1480 LINE",
"532 1480 LINE",
"532 0 LINE",
"492 0 LINE"
);
},
{
closed = 1;
nodes = (
"32 1460 LINE",
"32 1500 LINE",
"992 1500 LINE",
"992 1460 LINE"
);
}
);
width = 1024;
},
{
layerId = "6A9C0B59-300C-41DD-B63B-D1D6BE2B1BF1";
paths = (
{
closed = 1;
nodes = (
"432 1430 LINE",
"592 1430 LINE",
"592 0 LINE",
"432 0 LINE"
);
},
{
closed = 1;
nodes = (
"12 1355 LINE",
"12 1500 LINE",
"1012 1500 LINE",
"1012 1355 LINE"
);
}
);
width = 1024;
}
);
unicode = 0054;
},
{
glyphname = U;
lastChange = "2018-08-08 18:49:00 +0000";
layers = (
{
layerId = "BFBF8D55-D2EA-42C2-8EE4-A778DD08AD04";
paths = (
{
closed = 1;
nodes = (
"322 1500 LINE",
"322 563 LINE SMOOTH",
"322 356 OFFCURVE",
"508 115 OFFCURVE",
"685 115 QCURVE SMOOTH",
"693 115 LINE SMOOTH",
"876 115 OFFCURVE",
"1063 353 OFFCURVE",
"1063 563 QCURVE SMOOTH",
"1063 1500 LINE",
"1220 1500 LINE",
"1216 528 LINE SMOOTH",
"1215 247 OFFCURVE",
"914 -26 OFFCURVE",
"696 -26 QCURVE SMOOTH",
"687 -26 LINE SMOOTH",
"448 -26 OFFCURVE",
"162 286 OFFCURVE",
"162 554 QCURVE SMOOTH",
"162 1500 LINE"
);
}
);
width = 1382;
},
{
layerId = "1E479C38-E7C4-45DB-9AC0-D96E7E2DA744";
paths = (
{
closed = 1;
nodes = (
"216 1500 LINE",
"216 561 LINE SMOOTH",
"216 269 OFFCURVE",
"495 13 OFFCURVE",
"682 13 QCURVE SMOOTH",
"693 13 LINE SMOOTH",
"899 13 OFFCURVE",
"1163 281 OFFCURVE",
"1163 561 QCURVE SMOOTH",
"1163 1500 LINE",
"1206 1500 LINE",
"1202 528 LINE SMOOTH",
"1201 260 OFFCURVE",
"919 -26 OFFCURVE",
"693 -26 QCURVE SMOOTH",
"685 -26 LINE SMOOTH",
"477 -26 OFFCURVE",
"176 253 OFFCURVE",
"176 554 QCURVE SMOOTH",
"176 1500 LINE"
);
}
);
width = 1382;
},
{
layerId = "6A9C0B59-300C-41DD-B63B-D1D6BE2B1BF1";
paths = (
{
closed = 1;
nodes = (
"322 1500 LINE",
"322 563 LINE SMOOTH",
"322 356 OFFCURVE",
"508 115 OFFCURVE",
"685 115 QCURVE SMOOTH",
"693 115 LINE SMOOTH",
"876 115 OFFCURVE",
"1063 353 OFFCURVE",
"1063 563 QCURVE SMOOTH",
"1063 1500 LINE",
"1220 1500 LINE",
"1216 528 LINE SMOOTH",
"1215 247 OFFCURVE",
"914 -26 OFFCURVE",
"696 -26 QCURVE SMOOTH",
"687 -26 LINE SMOOTH",
"448 -26 OFFCURVE",
"162 286 OFFCURVE",
"162 554 QCURVE SMOOTH",
"162 1500 LINE"
);
}
);
width = 1382;
}
);
unicode = 0055;
},
{
glyphname = V;
lastChange = "2018-08-08 18:49:00 +0000";
layers = (
{
layerId = "BFBF8D55-D2EA-42C2-8EE4-A778DD08AD04";
paths = (
{
closed = 1;
nodes = (
"0 1500 LINE",
"170 1500 LINE",
"585 218 LINE",
"1007 1500 LINE",
"1170 1500 LINE",
"665 0 LINE",
"505 0 LINE"
);
}
);
width = 1180;
},
{
layerId = "1E479C38-E7C4-45DB-9AC0-D96E7E2DA744";
paths = (
{
closed = 1;
nodes = (
"10 1500 LINE",
"53 1500 LINE",
"579 51 LINE",
"1119 1500 LINE",
"1160 1500 LINE",
"601 0 LINE",
"555 0 LINE"
);
}
);
width = 1180;
},
{
layerId = "6A9C0B59-300C-41DD-B63B-D1D6BE2B1BF1";
paths = (
{
closed = 1;
nodes = (
"0 1500 LINE",
"170 1500 LINE",
"585 218 LINE",
"1007 1500 LINE",
"1170 1500 LINE",
"665 0 LINE",
"505 0 LINE"
);
}
);
width = 1180;
}
);
unicode = 0056;
},
{
glyphname = W;
lastChange = "2018-08-08 18:49:00 +0000";
layers = (
{
layerId = "BFBF8D55-D2EA-42C2-8EE4-A778DD08AD04";
paths = (
{
closed = 1;
nodes = (
"0 1500 LINE",
"170 1500 LINE",
"475 218 LINE",
"813 1500 LINE",
"959 1500 LINE",
"1295 218 LINE",
"1607 1500 LINE",
"1770 1500 LINE",
"1375 0 LINE",
"1215 0 LINE",
"891 1248 LINE",
"877 1248 LINE",
"555 0 LINE",
"395 0 LINE"
);
}
);
width = 1770;
},
{
layerId = "1E479C38-E7C4-45DB-9AC0-D96E7E2DA744";
paths = (
{
closed = 1;
nodes = (
"21 1500 LINE",
"63 1500 LINE",
"467 35 LINE",
"863 1500 LINE",
"909 1500 LINE",
"1312 35 LINE",
"1714 1500 LINE",
"1750 1500 LINE",
"1344 0 LINE",
"1281 0 LINE",
"894 1411 LINE",
"880 1411 LINE",
"495 0 LINE",
"436 0 LINE"
);
}
);
width = 1770;
},
{
layerId = "6A9C0B59-300C-41DD-B63B-D1D6BE2B1BF1";
paths = (
{
closed = 1;
nodes = (
"0 1500 LINE",
"170 1500 LINE",
"475 218 LINE",
"813 1500 LINE",
"959 1500 LINE",
"1295 218 LINE",
"1607 1500 LINE",
"1770 1500 LINE",
"1375 0 LINE",
"1215 0 LINE",
"891 1248 LINE",
"877 1248 LINE",
"555 0 LINE",
"395 0 LINE"
);
}
);
width = 1770;
}
);
unicode = 0057;
},
{
glyphname = X;
lastChange = "2018-08-08 18:49:00 +0000";
layers = (
{
layerId = "BFBF8D55-D2EA-42C2-8EE4-A778DD08AD04";
paths = (
{
closed = 1;
nodes = (
"476 810 LINE",
"504 856 LINE",
"890 1500 LINE",
"1060 1500 LINE",
"594 723 LINE",
"568 679 LINE",
"160 0 LINE",
"-10 0 LINE"
);
},
{
closed = 1;
nodes = (
"504 670 LINE",
"471 726 LINE",
"11 1500 LINE",
"191 1500 LINE",
"571 859 LINE",
"605 802 LINE",
"1080 0 LINE",
"901 0 LINE"
);
}
);
width = 1070;
},
{
layerId = "1E479C38-E7C4-45DB-9AC0-D96E7E2DA744";
paths = (
{
closed = 1;
nodes = (
"518 775 LINE",
"531 785 LINE",
"991 1500 LINE",
"1037 1500 LINE",
"559 756 LINE",
"543 742 LINE",
"66 0 LINE",
"20 0 LINE"
);
},
{
closed = 1;
nodes = (
"527 741 LINE",
"521 751 LINE",
"41 1500 LINE",
"89 1500 LINE",
"545 788 LINE",
"551 779 LINE",
"1050 0 LINE",
"1003 0 LINE"
);
}
);
width = 1070;
},
{
layerId = "6A9C0B59-300C-41DD-B63B-D1D6BE2B1BF1";
paths = (
{
closed = 1;
nodes = (
"476 810 LINE",
"504 856 LINE",
"890 1500 LINE",
"1060 1500 LINE",
"594 723 LINE",
"568 679 LINE",
"160 0 LINE",
"-10 0 LINE"
);
},
{
closed = 1;
nodes = (
"504 670 LINE",
"471 726 LINE",
"11 1500 LINE",
"191 1500 LINE",
"571 859 LINE",
"605 802 LINE",
"1080 0 LINE",
"901 0 LINE"
);
}
);
width = 1070;
}
);
unicode = 0058;
},
{
glyphname = Y;
lastChange = "2018-08-08 18:49:00 +0000";
layers = (
{
layerId = "BFBF8D55-D2EA-42C2-8EE4-A778DD08AD04";
paths = (
{
closed = 1;
nodes = (
"-40 1500 LINE",
"130 1500 LINE",
"575 656 LINE",
"1027 1500 LINE",
"1190 1500 LINE",
"653 500 LINE",
"495 500 LINE"
);
},
{
closed = 1;
nodes = (
"494 570 LINE",
"654 570 LINE",
"654 0 LINE",
"494 0 LINE"
);
}
);
width = 1150;
},
{
layerId = "1E479C38-E7C4-45DB-9AC0-D96E7E2DA744";
paths = (
{
closed = 1;
nodes = (
"-20 1500 LINE",
"30 1500 LINE",
"575 567 LINE",
"1127 1500 LINE",
"1170 1500 LINE",
"583 500 LINE",
"565 500 LINE"
);
},
{
closed = 1;
nodes = (
"554 520 LINE",
"594 520 LINE",
"594 0 LINE",
"554 0 LINE"
);
}
);
width = 1150;
},
{
layerId = "6A9C0B59-300C-41DD-B63B-D1D6BE2B1BF1";
paths = (
{
closed = 1;
nodes = (
"-40 1500 LINE",
"130 1500 LINE",
"575 656 LINE",
"1027 1500 LINE",
"1190 1500 LINE",
"653 500 LINE",
"495 500 LINE"
);
},
{
closed = 1;
nodes = (
"494 570 LINE",
"654 570 LINE",
"654 0 LINE",
"494 0 LINE"
);
}
);
width = 1150;
}
);
unicode = 0059;
},
{
glyphname = Z;
lastChange = "2018-08-08 18:49:00 +0000";
layers = (
{
layerId = "BFBF8D55-D2EA-42C2-8EE4-A778DD08AD04";
paths = (
{
closed = 1;
nodes = (
"34 0 LINE",
"29 155 LINE",
"764 1355 LINE",
"24 1355 LINE",
"24 1500 LINE",
"944 1500 LINE",
"944 1355 LINE",
"202 145 LINE",
"944 145 LINE",
"944 0 LINE"
);
}
);
width = 964;
},
{
layerId = "1E479C38-E7C4-45DB-9AC0-D96E7E2DA744";
paths = (
{
closed = 1;
nodes = (
"34 0 LINE",
"29 48 LINE",
"894 1462 LINE",
"24 1462 LINE",
"24 1500 LINE",
"944 1500 LINE",
"944 1462 LINE",
"70 38 LINE",
"944 38 LINE",
"944 0 LINE"
);
}
);
width = 964;
},
{
layerId = "6A9C0B59-300C-41DD-B63B-D1D6BE2B1BF1";
paths = (
{
closed = 1;
nodes = (
"34 0 LINE",
"29 155 LINE",
"764 1355 LINE",
"24 1355 LINE",
"24 1500 LINE",
"944 1500 LINE",
"944 1355 LINE",
"202 145 LINE",
"944 145 LINE",
"944 0 LINE"
);
}
);
width = 964;
}
);
unicode = 005A;
},
{
glyphname = a;
lastChange = "2018-08-08 18:49:00 +0000";
layers = (
{
layerId = "BFBF8D55-D2EA-42C2-8EE4-A778DD08AD04";
paths = (
{
closed = 1;
nodes = (
"239 976 OFFCURVE",
"431 1040 OFFCURVE",
"556 1040 QCURVE SMOOTH",
"716 1040 OFFCURVE",
"952 870 OFFCURVE",
"950 700 QCURVE SMOOTH",
"950 0 LINE",
"790 0 LINE",
"790 660 LINE SMOOTH",
"790 777 OFFCURVE",
"673 890 OFFCURVE",
"556 890 QCURVE SMOOTH",
"424 890 OFFCURVE",
"255 811 OFFCURVE",
"192 749 QCURVE",
"170 903 LINE"
);
},
{
closed = 1;
nodes = (
"801 96 OFFCURVE",
"612 -23 OFFCURVE",
"462 -23 QCURVE SMOOTH",
"290 -23 OFFCURVE",
"77 166 OFFCURVE",
"77 325 QCURVE SMOOTH",
"77 494 OFFCURVE",
"320 675 OFFCURVE",
"468 675 QCURVE SMOOTH",
"590 675 OFFCURVE",
"786 631 OFFCURVE",
"853 612 QCURVE",
"853 482 LINE",
"748 514 OFFCURVE",
"610 535 OFFCURVE",
"489 535 QCURVE SMOOTH",
"368 535 OFFCURVE",
"232 434 OFFCURVE",
"232 332 QCURVE SMOOTH",
"232 238 OFFCURVE",
"344 127 OFFCURVE",
"466 127 QCURVE SMOOTH",
"613 127 OFFCURVE",
"778 217 OFFCURVE",
"851 283 QCURVE",
"851 171 LINE"
);
}
);
width = 1094;
},
{
layerId = "1E479C38-E7C4-45DB-9AC0-D96E7E2DA744";
paths = (
{
closed = 1;
nodes = (
"222 965 OFFCURVE",
"410 1040 OFFCURVE",
"535 1040 QCURVE SMOOTH",
"709 1040 OFFCURVE",
"920 870 OFFCURVE",
"920 700 QCURVE SMOOTH",
"920 0 LINE",
"878 0 LINE",
"878 700 LINE SMOOTH",
"878 846 OFFCURVE",
"695 1004 OFFCURVE",
"540 1004 QCURVE SMOOTH",
"418 1004 OFFCURVE",
"236 927 OFFCURVE",
"181 868 QCURVE",
"172 914 LINE"
);
},
{
closed = 1;
nodes = (
"844 99 OFFCURVE",
"636 -23 OFFCURVE",
"475 -23 QCURVE SMOOTH",
"292 -23 OFFCURVE",
"88 157 OFFCURVE",
"88 305 QCURVE SMOOTH",
"88 457 OFFCURVE",
"321 635 OFFCURVE",
"497 635 QCURVE SMOOTH",
"639 635 OFFCURVE",
"841 592 OFFCURVE",
"901 572 QCURVE",
"901 527 LINE",
"838 554 OFFCURVE",
"624 599 OFFCURVE",
"500 599 QCURVE SMOOTH",
"339 599 OFFCURVE",
"127 439 OFFCURVE",
"127 303 QCURVE SMOOTH",
"127 178 OFFCURVE",
"311 13 OFFCURVE",
"474 13 QCURVE SMOOTH",
"621 13 OFFCURVE",
"831 131 OFFCURVE",
"899 217 QCURVE",
"899 171 LINE"
);
}
);
width = 1094;
},
{
layerId = "6A9C0B59-300C-41DD-B63B-D1D6BE2B1BF1";
paths = (
{
closed = 1;
nodes = (
"239 976 OFFCURVE",
"431 1040 OFFCURVE",
"556 1040 QCURVE SMOOTH",
"716 1040 OFFCURVE",
"952 870 OFFCURVE",
"950 700 QCURVE SMOOTH",
"950 0 LINE",
"790 0 LINE",
"790 660 LINE SMOOTH",
"790 777 OFFCURVE",
"673 890 OFFCURVE",
"556 890 QCURVE SMOOTH",
"424 890 OFFCURVE",
"255 811 OFFCURVE",
"192 749 QCURVE",
"170 903 LINE"
);
},
{
closed = 1;
nodes = (
"801 96 OFFCURVE",
"612 -23 OFFCURVE",
"462 -23 QCURVE SMOOTH",
"290 -23 OFFCURVE",
"77 166 OFFCURVE",
"77 325 QCURVE SMOOTH",
"77 494 OFFCURVE",
"320 675 OFFCURVE",
"468 675 QCURVE SMOOTH",
"590 675 OFFCURVE",
"786 631 OFFCURVE",
"853 612 QCURVE",
"853 482 LINE",
"748 514 OFFCURVE",
"610 535 OFFCURVE",
"489 535 QCURVE SMOOTH",
"368 535 OFFCURVE",
"232 434 OFFCURVE",
"232 332 QCURVE SMOOTH",
"232 238 OFFCURVE",
"344 127 OFFCURVE",
"466 127 QCURVE SMOOTH",
"613 127 OFFCURVE",
"778 217 OFFCURVE",
"851 283 QCURVE",
"851 171 LINE"
);
}
);
width = 1094;
}
);
unicode = 0061;
},
{
glyphname = b;
lastChange = "2018-08-08 18:49:00 +0000";
layers = (
{
layerId = "BFBF8D55-D2EA-42C2-8EE4-A778DD08AD04";
paths = (
{
closed = 1;
nodes = (
"150 1500 LINE",
"310 1500 LINE",
"310 0 LINE",
"150 0 LINE"
);
},
{
closed = 1;
nodes = (
"210 745 OFFCURVE",
"457 1040 OFFCURVE",
"646 1040 QCURVE SMOOTH",
"653 1040 LINE SMOOTH",
"861 1040 OFFCURVE",
"1125 745 OFFCURVE",
"1125 519 QCURVE SMOOTH",
"1125 484 LINE SMOOTH",
"1125 258 OFFCURVE",
"855 -25 OFFCURVE",
"647 -25 QCURVE SMOOTH",
"640 -25 LINE SMOOTH",
"451 -25 OFFCURVE",
"210 258 OFFCURVE",
"210 484 QCURVE SMOOTH",
"210 519 LINE SMOOTH"
);
},
{
closed = 1;
nodes = (
"288 487 LINE SMOOTH",
"288 307 OFFCURVE",
"473 106 OFFCURVE",
"626 106 QCURVE SMOOTH",
"633 106 LINE SMOOTH",
"791 106 OFFCURVE",
"957 316 OFFCURVE",
"957 487 QCURVE SMOOTH",
"957 514 LINE SMOOTH",
"957 685 OFFCURVE",
"804 903 OFFCURVE",
"643 903 QCURVE SMOOTH",
"636 903 LINE SMOOTH",
"486 903 OFFCURVE",
"288 735 OFFCURVE",
"288 514 QCURVE SMOOTH"
);
}
);
width = 1185;
},
{
layerId = "1E479C38-E7C4-45DB-9AC0-D96E7E2DA744";
paths = (
{
closed = 1;
nodes = (
"170 1500 LINE",
"210 1500 LINE",
"210 0 LINE",
"170 0 LINE"
);
},
{
closed = 1;
nodes = (
"183 785 OFFCURVE",
"447 1040 OFFCURVE",
"642 1040 QCURVE SMOOTH",
"649 1040 LINE SMOOTH",
"854 1040 OFFCURVE",
"1105 745 OFFCURVE",
"1105 519 QCURVE SMOOTH",
"1105 484 LINE SMOOTH",
"1105 258 OFFCURVE",
"858 -25 OFFCURVE",
"653 -25 QCURVE SMOOTH",
"646 -25 LINE SMOOTH",
"451 -25 OFFCURVE",
"183 238 OFFCURVE",
"183 484 QCURVE SMOOTH",
"183 519 LINE SMOOTH"
);
},
{
closed = 1;
nodes = (
"209 485 LINE SMOOTH",
"209 261 OFFCURVE",
"458 11 OFFCURVE",
"652 11 QCURVE SMOOTH",
"661 11 LINE SMOOTH",
"831 11 OFFCURVE",
"1065 273 OFFCURVE",
"1065 485 QCURVE SMOOTH",
"1065 520 LINE SMOOTH",
"1065 732 OFFCURVE",
"835 1004 OFFCURVE",
"661 1004 QCURVE SMOOTH",
"652 1004 LINE SMOOTH",
"471 1004 OFFCURVE",
"209 765 OFFCURVE",
"209 520 QCURVE SMOOTH"
);
}
);
width = 1185;
},
{
layerId = "6A9C0B59-300C-41DD-B63B-D1D6BE2B1BF1";
paths = (
{
closed = 1;
nodes = (
"150 1500 LINE",
"310 1500 LINE",
"310 0 LINE",
"150 0 LINE"
);
},
{
closed = 1;
nodes = (
"210 745 OFFCURVE",
"457 1040 OFFCURVE",
"646 1040 QCURVE SMOOTH",
"653 1040 LINE SMOOTH",
"861 1040 OFFCURVE",
"1125 745 OFFCURVE",
"1125 519 QCURVE SMOOTH",
"1125 484 LINE SMOOTH",
"1125 258 OFFCURVE",
"855 -25 OFFCURVE",
"647 -25 QCURVE SMOOTH",
"640 -25 LINE SMOOTH",
"451 -25 OFFCURVE",
"210 258 OFFCURVE",
"210 484 QCURVE SMOOTH",
"210 519 LINE SMOOTH"
);
},
{
closed = 1;
nodes = (
"288 487 LINE SMOOTH",
"288 307 OFFCURVE",
"473 106 OFFCURVE",
"626 106 QCURVE SMOOTH",
"633 106 LINE SMOOTH",
"791 106 OFFCURVE",
"957 316 OFFCURVE",
"957 487 QCURVE SMOOTH",
"957 514 LINE SMOOTH",
"957 685 OFFCURVE",
"804 903 OFFCURVE",
"643 903 QCURVE SMOOTH",
"636 903 LINE SMOOTH",
"486 903 OFFCURVE",
"288 735 OFFCURVE",
"288 514 QCURVE SMOOTH"
);
}
);
width = 1185;
}
);
unicode = 0062;
},
{
glyphname = c;
lastChange = "2018-08-08 18:49:00 +0000";
layers = (
{
layerId = "BFBF8D55-D2EA-42C2-8EE4-A778DD08AD04";
paths = (
{
closed = 1;
nodes = (
"1019 337 LINE SMOOTH",
"1001 181 OFFCURVE",
"764 -25 OFFCURVE",
"567 -25 QCURVE SMOOTH",
"560 -25 LINE SMOOTH",
"346 -25 OFFCURVE",
"60 258 OFFCURVE",
"60 484 QCURVE SMOOTH",
"60 519 LINE SMOOTH",
"60 745 OFFCURVE",
"337 1040 OFFCURVE",
"548 1040 QCURVE SMOOTH",
"569 1040 LINE SMOOTH",
"773 1040 OFFCURVE",
"1005 831 OFFCURVE",
"1018 655 QCURVE SMOOTH",
"1020 628 LINE",
"857 629 LINE",
"855 651 LINE SMOOTH",
"844 771 OFFCURVE",
"708 903 OFFCURVE",
"565 903 QCURVE SMOOTH",
"548 903 LINE SMOOTH",
"398 903 OFFCURVE",
"225 685 OFFCURVE",
"225 514 QCURVE SMOOTH",
"225 487 LINE SMOOTH",
"225 316 OFFCURVE",
"400 106 OFFCURVE",
"553 106 QCURVE SMOOTH",
"570 106 LINE SMOOTH",
"713 106 OFFCURVE",
"844 240 OFFCURVE",
"861 341 QCURVE SMOOTH",
"865 365 LINE",
"1022 363 LINE"
);
}
);
width = 1057;
},
{
layerId = "1E479C38-E7C4-45DB-9AC0-D96E7E2DA744";
paths = (
{
closed = 1;
nodes = (
"1000 337 LINE SMOOTH",
"984 195 OFFCURVE",
"775 -25 OFFCURVE",
"567 -25 QCURVE SMOOTH",
"560 -25 LINE SMOOTH",
"344 -25 OFFCURVE",
"80 248 OFFCURVE",
"80 484 QCURVE SMOOTH",
"80 519 LINE SMOOTH",
"80 755 OFFCURVE",
"336 1040 OFFCURVE",
"548 1040 QCURVE SMOOTH",
"569 1040 LINE SMOOTH",
"774 1040 OFFCURVE",
"986 831 OFFCURVE",
"999 655 QCURVE SMOOTH",
"1001 628 LINE",
"964 629 LINE",
"962 658 LINE SMOOTH",
"952 805 OFFCURVE",
"754 1004 OFFCURVE",
"563 1004 QCURVE SMOOTH",
"550 1004 LINE SMOOTH",
"359 1004 OFFCURVE",
"119 743 OFFCURVE",
"119 519 QCURVE SMOOTH",
"119 485 LINE SMOOTH",
"119 262 OFFCURVE",
"362 10 OFFCURVE",
"556 10 QCURVE SMOOTH",
"579 10 LINE SMOOTH",
"760 10 OFFCURVE",
"948 219 OFFCURVE",
"963 340 QCURVE SMOOTH",
"966 365 LINE",
"1003 363 LINE"
);
}
);
width = 1057;
},
{
layerId = "6A9C0B59-300C-41DD-B63B-D1D6BE2B1BF1";
paths = (
{
closed = 1;
nodes = (
"1019 337 LINE SMOOTH",
"1001 181 OFFCURVE",
"764 -25 OFFCURVE",
"567 -25 QCURVE SMOOTH",
"560 -25 LINE SMOOTH",
"346 -25 OFFCURVE",
"60 258 OFFCURVE",
"60 484 QCURVE SMOOTH",
"60 519 LINE SMOOTH",
"60 745 OFFCURVE",
"337 1040 OFFCURVE",
"548 1040 QCURVE SMOOTH",
"569 1040 LINE SMOOTH",
"773 1040 OFFCURVE",
"1005 831 OFFCURVE",
"1018 655 QCURVE SMOOTH",
"1020 628 LINE",
"857 629 LINE",
"855 651 LINE SMOOTH",
"844 771 OFFCURVE",
"708 903 OFFCURVE",
"565 903 QCURVE SMOOTH",
"548 903 LINE SMOOTH",
"398 903 OFFCURVE",
"225 685 OFFCURVE",
"225 514 QCURVE SMOOTH",
"225 487 LINE SMOOTH",
"225 316 OFFCURVE",
"400 106 OFFCURVE",
"553 106 QCURVE SMOOTH",
"570 106 LINE SMOOTH",
"713 106 OFFCURVE",
"844 240 OFFCURVE",
"861 341 QCURVE SMOOTH",
"865 365 LINE",
"1022 363 LINE"
);
}
);
width = 1057;
}
);
unicode = 0063;
},
{
glyphname = d;
lastChange = "2018-08-08 18:49:00 +0000";
layers = (
{
layerId = "BFBF8D55-D2EA-42C2-8EE4-A778DD08AD04";
paths = (
{
closed = 1;
nodes = (
"875 0 LINE",
"875 1500 LINE",
"1035 1500 LINE",
"1035 0 LINE"
);
},
{
closed = 1;
nodes = (
"975 484 LINE SMOOTH",
"975 258 OFFCURVE",
"734 -25 OFFCURVE",
"545 -25 QCURVE SMOOTH",
"538 -25 LINE SMOOTH",
"330 -25 OFFCURVE",
"60 258 OFFCURVE",
"60 484 QCURVE SMOOTH",
"60 519 LINE SMOOTH",
"60 745 OFFCURVE",
"334 1040 OFFCURVE",
"542 1040 QCURVE SMOOTH",
"549 1040 LINE SMOOTH",
"738 1040 OFFCURVE",
"975 745 OFFCURVE",
"975 519 QCURVE SMOOTH"
);
},
{
closed = 1;
nodes = (
"897 735 OFFCURVE",
"709 903 OFFCURVE",
"559 903 QCURVE SMOOTH",
"552 903 LINE SMOOTH",
"391 903 OFFCURVE",
"228 685 OFFCURVE",
"228 514 QCURVE SMOOTH",
"228 487 LINE SMOOTH",
"228 316 OFFCURVE",
"394 106 OFFCURVE",
"552 106 QCURVE SMOOTH",
"559 106 LINE SMOOTH",
"712 106 OFFCURVE",
"897 307 OFFCURVE",
"897 487 QCURVE SMOOTH",
"897 514 LINE SMOOTH"
);
}
);
width = 1185;
},
{
layerId = "1E479C38-E7C4-45DB-9AC0-D96E7E2DA744";
paths = (
{
closed = 1;
nodes = (
"975 0 LINE",
"975 1500 LINE",
"1015 1500 LINE",
"1015 0 LINE"
);
},
{
closed = 1;
nodes = (
"1005 484 LINE SMOOTH",
"1005 238 OFFCURVE",
"744 -25 OFFCURVE",
"555 -25 QCURVE SMOOTH",
"548 -25 LINE SMOOTH",
"340 -25 OFFCURVE",
"80 258 OFFCURVE",
"80 484 QCURVE SMOOTH",
"80 519 LINE SMOOTH",
"80 745 OFFCURVE",
"344 1040 OFFCURVE",
"552 1040 QCURVE SMOOTH",
"559 1040 LINE SMOOTH",
"748 1040 OFFCURVE",
"1005 795 OFFCURVE",
"1005 519 QCURVE SMOOTH"
);
},
{
closed = 1;
nodes = (
"977 784 OFFCURVE",
"726 1003 OFFCURVE",
"554 1003 QCURVE SMOOTH",
"545 1003 LINE SMOOTH",
"359 1003 OFFCURVE",
"121 732 OFFCURVE",
"121 518 QCURVE SMOOTH",
"121 485 LINE SMOOTH",
"121 271 OFFCURVE",
"371 9 OFFCURVE",
"543 9 QCURVE SMOOTH",
"552 9 LINE SMOOTH",
"738 9 OFFCURVE",
"977 260 OFFCURVE",
"977 485 QCURVE SMOOTH",
"977 518 LINE SMOOTH"
);
}
);
width = 1185;
},
{
layerId = "6A9C0B59-300C-41DD-B63B-D1D6BE2B1BF1";
paths = (
{
closed = 1;
nodes = (
"875 0 LINE",
"875 1500 LINE",
"1035 1500 LINE",
"1035 0 LINE"
);
},
{
closed = 1;
nodes = (
"975 484 LINE SMOOTH",
"975 258 OFFCURVE",
"734 -25 OFFCURVE",
"545 -25 QCURVE SMOOTH",
"538 -25 LINE SMOOTH",
"330 -25 OFFCURVE",
"60 258 OFFCURVE",
"60 484 QCURVE SMOOTH",
"60 519 LINE SMOOTH",
"60 745 OFFCURVE",
"334 1040 OFFCURVE",
"542 1040 QCURVE SMOOTH",
"549 1040 LINE SMOOTH",
"738 1040 OFFCURVE",
"975 745 OFFCURVE",
"975 519 QCURVE SMOOTH"
);
},
{
closed = 1;
nodes = (
"897 735 OFFCURVE",
"709 903 OFFCURVE",
"559 903 QCURVE SMOOTH",
"552 903 LINE SMOOTH",
"391 903 OFFCURVE",
"228 685 OFFCURVE",
"228 514 QCURVE SMOOTH",
"228 487 LINE SMOOTH",
"228 316 OFFCURVE",
"394 106 OFFCURVE",
"552 106 QCURVE SMOOTH",
"559 106 LINE SMOOTH",
"712 106 OFFCURVE",
"897 307 OFFCURVE",
"897 487 QCURVE SMOOTH",
"897 514 LINE SMOOTH"
);
}
);
width = 1185;
}
);
unicode = 0064;
},
{
glyphname = e;
lastChange = "2018-08-08 18:49:00 +0000";
layers = (
{
layerId = "BFBF8D55-D2EA-42C2-8EE4-A778DD08AD04";
paths = (
{
closed = 1;
nodes = (
"1019 305 LINE SMOOTH",
"1001 163 OFFCURVE",
"756 -25 OFFCURVE",
"559 -25 QCURVE SMOOTH",
"552 -25 LINE SMOOTH",
"338 -25 OFFCURVE",
"60 258 OFFCURVE",
"60 484 QCURVE SMOOTH",
"60 519 LINE SMOOTH",
"60 745 OFFCURVE",
"330 1040 OFFCURVE",
"541 1040 QCURVE SMOOTH",
"562 1040 LINE SMOOTH",
"766 1040 OFFCURVE",
"1016 821 OFFCURVE",
"1018 635 QCURVE SMOOTH",
"1020 479 LINE",
"175 479 LINE",
"175 612 LINE",
"857 612 LINE",
"855 651 LINE SMOOTH",
"849 771 OFFCURVE",
"701 901 OFFCURVE",
"558 901 QCURVE SMOOTH",
"541 901 LINE SMOOTH",
"391 901 OFFCURVE",
"222 685 OFFCURVE",
"222 514 QCURVE SMOOTH",
"222 487 LINE SMOOTH",
"222 316 OFFCURVE",
"392 111 OFFCURVE",
"545 111 QCURVE SMOOTH",
"562 111 LINE SMOOTH",
"705 111 OFFCURVE",
"850 222 OFFCURVE",
"863 311 QCURVE SMOOTH",
"867 332 LINE",
"1022 329 LINE"
);
}
);
width = 1057;
},
{
layerId = "1E479C38-E7C4-45DB-9AC0-D96E7E2DA744";
paths = (
{
closed = 1;
nodes = (
"1003 305 LINE SMOOTH",
"986 171 OFFCURVE",
"760 -25 OFFCURVE",
"561 -25 QCURVE SMOOTH",
"554 -25 LINE SMOOTH",
"345 -25 OFFCURVE",
"80 248 OFFCURVE",
"80 484 QCURVE SMOOTH",
"80 519 LINE SMOOTH",
"80 745 OFFCURVE",
"350 1040 OFFCURVE",
"543 1040 QCURVE SMOOTH",
"564 1040 LINE SMOOTH",
"769 1040 OFFCURVE",
"993 811 OFFCURVE",
"999 594 QCURVE SMOOTH",
"1000 525 LINE",
"106 525 LINE",
"106 562 LINE",
"960 562 LINE",
"960 600 LINE SMOOTH",
"960 781 OFFCURVE",
"759 1003 OFFCURVE",
"558 1003 QCURVE SMOOTH",
"553 1003 LINE SMOOTH",
"363 1003 OFFCURVE",
"120 732 OFFCURVE",
"120 517 QCURVE SMOOTH",
"120 484 LINE SMOOTH",
"120 259 OFFCURVE",
"365 11 OFFCURVE",
"551 11 QCURVE SMOOTH",
"563 11 LINE SMOOTH",
"735 11 OFFCURVE",
"947 183 OFFCURVE",
"964 310 QCURVE SMOOTH",
"967 332 LINE",
"1006 329 LINE"
);
}
);
width = 1057;
},
{
layerId = "6A9C0B59-300C-41DD-B63B-D1D6BE2B1BF1";
paths = (
{
closed = 1;
nodes = (
"1019 305 LINE SMOOTH",
"1001 163 OFFCURVE",
"756 -25 OFFCURVE",
"559 -25 QCURVE SMOOTH",
"552 -25 LINE SMOOTH",
"338 -25 OFFCURVE",
"60 258 OFFCURVE",
"60 484 QCURVE SMOOTH",
"60 519 LINE SMOOTH",
"60 745 OFFCURVE",
"330 1040 OFFCURVE",
"541 1040 QCURVE SMOOTH",
"562 1040 LINE SMOOTH",
"766 1040 OFFCURVE",
"1016 821 OFFCURVE",
"1018 635 QCURVE SMOOTH",
"1020 479 LINE",
"175 479 LINE",
"175 612 LINE",
"857 612 LINE",
"855 651 LINE SMOOTH",
"849 771 OFFCURVE",
"701 901 OFFCURVE",
"558 901 QCURVE SMOOTH",
"541 901 LINE SMOOTH",
"391 901 OFFCURVE",
"222 685 OFFCURVE",
"222 514 QCURVE SMOOTH",
"222 487 LINE SMOOTH",
"222 316 OFFCURVE",
"392 111 OFFCURVE",
"545 111 QCURVE SMOOTH",
"562 111 LINE SMOOTH",
"705 111 OFFCURVE",
"850 222 OFFCURVE",
"863 311 QCURVE SMOOTH",
"867 332 LINE",
"1022 329 LINE"
);
}
);
width = 1057;
}
);
unicode = 0065;
},
{
glyphname = f;
lastChange = "2018-08-08 18:49:00 +0000";
layers = (
{
layerId = "BFBF8D55-D2EA-42C2-8EE4-A778DD08AD04";
paths = (
{
closed = 1;
nodes = (
"16 861 LINE",
"16 1000 LINE",
"556 1000 LINE",
"556 861 LINE"
);
},
{
closed = 1;
nodes = (
"337 0 LINE",
"177 0 LINE",
"177 1290 LINE SMOOTH",
"177 1413 OFFCURVE",
"318 1553 OFFCURVE",
"425 1553 QCURVE SMOOTH",
"476 1553 OFFCURVE",
"561 1531 OFFCURVE",
"576 1526 QCURVE",
"570 1370 LINE",
"550 1380 OFFCURVE",
"495 1401 OFFCURVE",
"451 1401 QCURVE SMOOTH",
"410 1401 OFFCURVE",
"337 1328 OFFCURVE",
"337 1270 QCURVE SMOOTH"
);
}
);
width = 514;
},
{
layerId = "1E479C38-E7C4-45DB-9AC0-D96E7E2DA744";
paths = (
{
closed = 1;
nodes = (
"26 963 LINE",
"26 1000 LINE",
"546 1000 LINE",
"546 963 LINE"
);
},
{
closed = 1;
nodes = (
"277 0 LINE",
"237 0 LINE",
"237 1360 LINE SMOOTH",
"237 1447 OFFCURVE",
"338 1553 OFFCURVE",
"408 1553 QCURVE SMOOTH",
"466 1553 OFFCURVE",
"532 1532 OFFCURVE",
"546 1526 QCURVE",
"540 1478 LINE",
"527 1484 OFFCURVE",
"458 1506 OFFCURVE",
"408 1506 QCURVE SMOOTH",
"350 1506 OFFCURVE",
"277 1430 OFFCURVE",
"277 1350 QCURVE SMOOTH"
);
}
);
width = 514;
},
{
layerId = "6A9C0B59-300C-41DD-B63B-D1D6BE2B1BF1";
paths = (
{
closed = 1;
nodes = (
"16 861 LINE",
"16 1000 LINE",
"556 1000 LINE",
"556 861 LINE"
);
},
{
closed = 1;
nodes = (
"337 0 LINE",
"177 0 LINE",
"177 1290 LINE SMOOTH",
"177 1413 OFFCURVE",
"318 1553 OFFCURVE",
"425 1553 QCURVE SMOOTH",
"476 1553 OFFCURVE",
"561 1531 OFFCURVE",
"576 1526 QCURVE",
"570 1370 LINE",
"550 1380 OFFCURVE",
"495 1401 OFFCURVE",
"451 1401 QCURVE SMOOTH",
"410 1401 OFFCURVE",
"337 1328 OFFCURVE",
"337 1270 QCURVE SMOOTH"
);
}
);
width = 514;
}
);
unicode = 0066;
},
{
glyphname = g;
lastChange = "2018-08-08 18:49:00 +0000";
layers = (
{
layerId = "BFBF8D55-D2EA-42C2-8EE4-A778DD08AD04";
paths = (
{
closed = 1;
nodes = (
"975 484 LINE SMOOTH",
"975 268 OFFCURVE",
"734 -5 OFFCURVE",
"545 -5 QCURVE SMOOTH",
"538 -5 LINE SMOOTH",
"330 -5 OFFCURVE",
"60 278 OFFCURVE",
"60 484 QCURVE SMOOTH",
"60 519 LINE SMOOTH",
"60 745 OFFCURVE",
"334 1040 OFFCURVE",
"542 1040 QCURVE SMOOTH",
"549 1040 LINE SMOOTH",
"738 1040 OFFCURVE",
"975 745 OFFCURVE",
"975 519 QCURVE SMOOTH"
);
},
{
closed = 1;
nodes = (
"897 735 OFFCURVE",
"709 903 OFFCURVE",
"559 903 QCURVE SMOOTH",
"552 903 LINE SMOOTH",
"391 903 OFFCURVE",
"228 685 OFFCURVE",
"228 514 QCURVE SMOOTH",
"228 487 LINE SMOOTH",
"228 336 OFFCURVE",
"394 126 OFFCURVE",
"552 126 QCURVE SMOOTH",
"559 126 LINE SMOOTH",
"712 126 OFFCURVE",
"897 317 OFFCURVE",
"897 487 QCURVE SMOOTH",
"897 514 LINE SMOOTH"
);
},
{
closed = 1;
nodes = (
"388 -337 OFFCURVE",
"480 -350 OFFCURVE",
"515 -350 QCURVE SMOOTH",
"678 -350 OFFCURVE",
"875 -190 OFFCURVE",
"875 -2 QCURVE SMOOTH",
"875 1000 LINE",
"1035 1000 LINE",
"1035 -40 LINE SMOOTH",
"1035 -236 OFFCURVE",
"756 -500 OFFCURVE",
"503 -500 QCURVE SMOOTH",
"474 -500 OFFCURVE",
"397 -491 OFFCURVE",
"371 -484 QCURVE",
"361 -332 LINE"
);
}
);
width = 1185;
},
{
layerId = "1E479C38-E7C4-45DB-9AC0-D96E7E2DA744";
paths = (
{
closed = 1;
nodes = (
"1005 484 LINE SMOOTH",
"1005 238 OFFCURVE",
"744 -25 OFFCURVE",
"555 -25 QCURVE SMOOTH",
"548 -25 LINE SMOOTH",
"340 -25 OFFCURVE",
"80 258 OFFCURVE",
"80 484 QCURVE SMOOTH",
"80 519 LINE SMOOTH",
"80 745 OFFCURVE",
"344 1040 OFFCURVE",
"552 1040 QCURVE SMOOTH",
"559 1040 LINE SMOOTH",
"748 1040 OFFCURVE",
"1005 795 OFFCURVE",
"1005 519 QCURVE SMOOTH"
);
},
{
closed = 1;
nodes = (
"977 784 OFFCURVE",
"726 1003 OFFCURVE",
"554 1003 QCURVE SMOOTH",
"545 1003 LINE SMOOTH",
"359 1003 OFFCURVE",
"121 732 OFFCURVE",
"121 518 QCURVE SMOOTH",
"121 485 LINE SMOOTH",
"121 271 OFFCURVE",
"371 9 OFFCURVE",
"543 9 QCURVE SMOOTH",
"552 9 LINE SMOOTH",
"738 9 OFFCURVE",
"977 260 OFFCURVE",
"977 485 QCURVE SMOOTH",
"977 518 LINE SMOOTH"
);
},
{
closed = 1;
nodes = (
"388 -447 OFFCURVE",
"480 -460 OFFCURVE",
"515 -460 QCURVE SMOOTH",
"728 -460 OFFCURVE",
"975 -218 OFFCURVE",
"975 -2 QCURVE SMOOTH",
"975 1000 LINE",
"1015 1000 LINE",
"1015 -40 LINE SMOOTH",
"1015 -236 OFFCURVE",
"756 -500 OFFCURVE",
"503 -500 QCURVE SMOOTH",
"474 -500 OFFCURVE",
"397 -491 OFFCURVE",
"371 -484 QCURVE",
"361 -442 LINE"
);
}
);
width = 1185;
},
{
layerId = "6A9C0B59-300C-41DD-B63B-D1D6BE2B1BF1";
paths = (
{
closed = 1;
nodes = (
"975 484 LINE SMOOTH",
"975 268 OFFCURVE",
"734 -5 OFFCURVE",
"545 -5 QCURVE SMOOTH",
"538 -5 LINE SMOOTH",
"330 -5 OFFCURVE",
"60 278 OFFCURVE",
"60 484 QCURVE SMOOTH",
"60 519 LINE SMOOTH",
"60 745 OFFCURVE",
"334 1040 OFFCURVE",
"542 1040 QCURVE SMOOTH",
"549 1040 LINE SMOOTH",
"738 1040 OFFCURVE",
"975 745 OFFCURVE",
"975 519 QCURVE SMOOTH"
);
},
{
closed = 1;
nodes = (
"897 735 OFFCURVE",
"709 903 OFFCURVE",
"559 903 QCURVE SMOOTH",
"552 903 LINE SMOOTH",
"391 903 OFFCURVE",
"228 685 OFFCURVE",
"228 514 QCURVE SMOOTH",
"228 487 LINE SMOOTH",
"228 336 OFFCURVE",
"394 126 OFFCURVE",
"552 126 QCURVE SMOOTH",
"559 126 LINE SMOOTH",
"712 126 OFFCURVE",
"897 317 OFFCURVE",
"897 487 QCURVE SMOOTH",
"897 514 LINE SMOOTH"
);
},
{
closed = 1;
nodes = (
"388 -337 OFFCURVE",
"480 -350 OFFCURVE",
"515 -350 QCURVE SMOOTH",
"678 -350 OFFCURVE",
"875 -190 OFFCURVE",
"875 -2 QCURVE SMOOTH",
"875 1000 LINE",
"1035 1000 LINE",
"1035 -40 LINE SMOOTH",
"1035 -236 OFFCURVE",
"756 -500 OFFCURVE",
"503 -500 QCURVE SMOOTH",
"474 -500 OFFCURVE",
"397 -491 OFFCURVE",
"371 -484 QCURVE",
"361 -332 LINE"
);
}
);
width = 1185;
}
);
unicode = 0067;
},
{
glyphname = h;
lastChange = "2018-08-08 18:49:00 +0000";
layers = (
{
layerId = "BFBF8D55-D2EA-42C2-8EE4-A778DD08AD04";
paths = (
{
closed = 1;
nodes = (
"150 1500 LINE",
"310 1500 LINE",
"310 0 LINE",
"150 0 LINE"
);
},
{
closed = 1;
nodes = (
"322 918 OFFCURVE",
"541 1040 OFFCURVE",
"666 1040 QCURVE SMOOTH",
"826 1040 OFFCURVE",
"1040 870 OFFCURVE",
"1040 700 QCURVE SMOOTH",
"1040 0 LINE",
"880 0 LINE",
"880 660 LINE SMOOTH",
"880 777 OFFCURVE",
"783 890 OFFCURVE",
"666 890 QCURVE SMOOTH",
"534 890 OFFCURVE",
"350 787 OFFCURVE",
"272 699 QCURVE",
"250 823 LINE"
);
}
);
width = 1184;
},
{
layerId = "1E479C38-E7C4-45DB-9AC0-D96E7E2DA744";
paths = (
{
closed = 1;
nodes = (
"170 1500 LINE",
"210 1500 LINE",
"210 0 LINE",
"170 0 LINE"
);
},
{
closed = 1;
nodes = (
"260 921 OFFCURVE",
"517 1040 OFFCURVE",
"652 1040 QCURVE SMOOTH",
"812 1040 OFFCURVE",
"1016 870 OFFCURVE",
"1017 700 QCURVE SMOOTH",
"1021 0 LINE",
"981 0 LINE",
"977 703 LINE SMOOTH",
"976 857 OFFCURVE",
"798 1005 OFFCURVE",
"652 1005 QCURVE SMOOTH",
"528 1005 OFFCURVE",
"278 894 OFFCURVE",
"212 814 QCURVE",
"204 839 LINE"
);
}
);
width = 1184;
},
{
layerId = "6A9C0B59-300C-41DD-B63B-D1D6BE2B1BF1";
paths = (
{
closed = 1;
nodes = (
"150 1500 LINE",
"310 1500 LINE",
"310 0 LINE",
"150 0 LINE"
);
},
{
closed = 1;
nodes = (
"322 918 OFFCURVE",
"541 1040 OFFCURVE",
"666 1040 QCURVE SMOOTH",
"826 1040 OFFCURVE",
"1040 870 OFFCURVE",
"1040 700 QCURVE SMOOTH",
"1040 0 LINE",
"880 0 LINE",
"880 660 LINE SMOOTH",
"880 777 OFFCURVE",
"783 890 OFFCURVE",
"666 890 QCURVE SMOOTH",
"534 890 OFFCURVE",
"350 787 OFFCURVE",
"272 699 QCURVE",
"250 823 LINE"
);
}
);
width = 1184;
}
);
unicode = 0068;
},
{
glyphname = i;
lastChange = "2018-08-08 18:49:00 +0000";
layers = (
{
layerId = "BFBF8D55-D2EA-42C2-8EE4-A778DD08AD04";
paths = (
{
closed = 1;
nodes = (
"155 1000 LINE",
"315 1000 LINE",
"315 0 LINE",
"155 0 LINE"
);
},
{
closed = 1;
nodes = (
"285 1220 OFFCURVE",
"345 1280 OFFCURVE",
"345 1329 QCURVE SMOOTH",
"345 1336 LINE SMOOTH",
"345 1385 OFFCURVE",
"286 1446 OFFCURVE",
"233 1446 QCURVE SMOOTH",
"231 1446 LINE SMOOTH",
"182 1446 OFFCURVE",
"125 1385 OFFCURVE",
"125 1336 QCURVE SMOOTH",
"125 1329 LINE SMOOTH",
"125 1279 OFFCURVE",
"181 1220 OFFCURVE",
"231 1220 QCURVE SMOOTH",
"233 1220 LINE SMOOTH"
);
}
);
width = 470;
},
{
layerId = "1E479C38-E7C4-45DB-9AC0-D96E7E2DA744";
paths = (
{
closed = 1;
nodes = (
"215 1000 LINE",
"255 1000 LINE",
"255 0 LINE",
"215 0 LINE"
);
},
{
closed = 1;
nodes = (
"258 1344 OFFCURVE",
"284 1371 OFFCURVE",
"284 1393 QCURVE SMOOTH",
"284 1396 LINE SMOOTH",
"284 1419 OFFCURVE",
"258 1446 OFFCURVE",
"234 1446 QCURVE SMOOTH",
"233 1446 LINE SMOOTH",
"211 1446 OFFCURVE",
"186 1419 OFFCURVE",
"186 1396 QCURVE SMOOTH",
"186 1393 LINE SMOOTH",
"186 1371 OFFCURVE",
"211 1344 OFFCURVE",
"233 1344 QCURVE SMOOTH",
"234 1344 LINE SMOOTH"
);
}
);
width = 470;
},
{
layerId = "6A9C0B59-300C-41DD-B63B-D1D6BE2B1BF1";
paths = (
{
closed = 1;
nodes = (
"155 1000 LINE",
"315 1000 LINE",
"315 0 LINE",
"155 0 LINE"
);
},
{
closed = 1;
nodes = (
"285 1220 OFFCURVE",
"345 1280 OFFCURVE",
"345 1329 QCURVE SMOOTH",
"345 1336 LINE SMOOTH",
"345 1385 OFFCURVE",
"286 1446 OFFCURVE",
"233 1446 QCURVE SMOOTH",
"231 1446 LINE SMOOTH",
"182 1446 OFFCURVE",
"125 1385 OFFCURVE",
"125 1336 QCURVE SMOOTH",
"125 1329 LINE SMOOTH",
"125 1279 OFFCURVE",
"181 1220 OFFCURVE",
"231 1220 QCURVE SMOOTH",
"233 1220 LINE SMOOTH"
);
}
);
width = 470;
}
);
unicode = 0069;
},
{
glyphname = j;
lastChange = "2018-08-08 18:49:00 +0000";
layers = (
{
layerId = "BFBF8D55-D2EA-42C2-8EE4-A778DD08AD04";
paths = (
{
closed = 1;
nodes = (
"315 -236 OFFCURVE",
"77 -500 OFFCURVE",
"-139 -500 QCURVE SMOOTH",
"-164 -500 OFFCURVE",
"-229 -491 OFFCURVE",
"-252 -484 QCURVE",
"-240 -332 LINE",
"-219 -337 OFFCURVE",
"-148 -350 OFFCURVE",
"-122 -350 QCURVE SMOOTH",
"4 -350 OFFCURVE",
"155 -188 OFFCURVE",
"155 0 QCURVE SMOOTH",
"155 1000 LINE",
"315 1000 LINE",
"315 -40 LINE SMOOTH"
);
},
{
closed = 1;
nodes = (
"281 1220 OFFCURVE",
"341 1280 OFFCURVE",
"341 1329 QCURVE SMOOTH",
"341 1336 LINE SMOOTH",
"341 1385 OFFCURVE",
"282 1446 OFFCURVE",
"229 1446 QCURVE SMOOTH",
"227 1446 LINE SMOOTH",
"178 1446 OFFCURVE",
"121 1385 OFFCURVE",
"121 1336 QCURVE SMOOTH",
"121 1329 LINE SMOOTH",
"121 1279 OFFCURVE",
"177 1220 OFFCURVE",
"227 1220 QCURVE SMOOTH",
"229 1220 LINE SMOOTH"
);
}
);
width = 475;
},
{
layerId = "1E479C38-E7C4-45DB-9AC0-D96E7E2DA744";
paths = (
{
closed = 1;
nodes = (
"255 -296 OFFCURVE",
"77 -500 OFFCURVE",
"-126 -500 QCURVE SMOOTH",
"-164 -500 OFFCURVE",
"-229 -491 OFFCURVE",
"-252 -484 QCURVE",
"-245 -443 LINE",
"-224 -448 OFFCURVE",
"-148 -462 OFFCURVE",
"-122 -462 QCURVE SMOOTH",
"43 -462 OFFCURVE",
"215 -278 OFFCURVE",
"215 -60 QCURVE SMOOTH",
"215 1000 LINE",
"255 1000 LINE",
"255 -100 LINE SMOOTH"
);
},
{
closed = 1;
nodes = (
"254 1344 OFFCURVE",
"280 1371 OFFCURVE",
"280 1393 QCURVE SMOOTH",
"280 1396 LINE SMOOTH",
"280 1419 OFFCURVE",
"254 1446 OFFCURVE",
"230 1446 QCURVE SMOOTH",
"229 1446 LINE SMOOTH",
"207 1446 OFFCURVE",
"182 1419 OFFCURVE",
"182 1396 QCURVE SMOOTH",
"182 1393 LINE SMOOTH",
"182 1371 OFFCURVE",
"207 1344 OFFCURVE",
"229 1344 QCURVE SMOOTH",
"230 1344 LINE SMOOTH"
);
}
);
width = 475;
},
{
layerId = "6A9C0B59-300C-41DD-B63B-D1D6BE2B1BF1";
paths = (
{
closed = 1;
nodes = (
"315 -236 OFFCURVE",
"77 -500 OFFCURVE",
"-139 -500 QCURVE SMOOTH",
"-164 -500 OFFCURVE",
"-229 -491 OFFCURVE",
"-252 -484 QCURVE",
"-240 -332 LINE",
"-219 -337 OFFCURVE",
"-148 -350 OFFCURVE",
"-122 -350 QCURVE SMOOTH",
"4 -350 OFFCURVE",
"155 -188 OFFCURVE",
"155 0 QCURVE SMOOTH",
"155 1000 LINE",
"315 1000 LINE",
"315 -40 LINE SMOOTH"
);
},
{
closed = 1;
nodes = (
"281 1220 OFFCURVE",
"341 1280 OFFCURVE",
"341 1329 QCURVE SMOOTH",
"341 1336 LINE SMOOTH",
"341 1385 OFFCURVE",
"282 1446 OFFCURVE",
"229 1446 QCURVE SMOOTH",
"227 1446 LINE SMOOTH",
"178 1446 OFFCURVE",
"121 1385 OFFCURVE",
"121 1336 QCURVE SMOOTH",
"121 1329 LINE SMOOTH",
"121 1279 OFFCURVE",
"177 1220 OFFCURVE",
"227 1220 QCURVE SMOOTH",
"229 1220 LINE SMOOTH"
);
}
);
width = 475;
}
);
unicode = 006A;
},
{
glyphname = k;
lastChange = "2018-08-08 18:49:00 +0000";
layers = (
{
layerId = "BFBF8D55-D2EA-42C2-8EE4-A778DD08AD04";
paths = (
{
closed = 1;
nodes = (
"150 1500 LINE",
"310 1500 LINE",
"310 0 LINE",
"150 0 LINE"
);
},
{
closed = 1;
nodes = (
"310 398 LINE",
"310 533 LINE",
"426 662 LINE",
"725 997 LINE",
"913 997 LINE",
"502 556 LINE",
"438 510 LINE"
);
},
{
closed = 1;
nodes = (
"974 0 LINE",
"784 0 LINE",
"385 536 LINE",
"505 631 LINE"
);
}
);
width = 938;
},
{
layerId = "1E479C38-E7C4-45DB-9AC0-D96E7E2DA744";
paths = (
{
closed = 1;
nodes = (
"170 1500 LINE",
"210 1500 LINE",
"210 0 LINE",
"170 0 LINE"
);
},
{
closed = 1;
nodes = (
"192 297 LINE",
"192 342 LINE",
"456 598 LINE",
"838 997 LINE",
"891 997 LINE",
"494 579 LINE",
"483 573 LINE"
);
},
{
closed = 1;
nodes = (
"950 0 LINE",
"899 0 LINE",
"469 578 LINE",
"494 609 LINE"
);
}
);
width = 938;
},
{
layerId = "6A9C0B59-300C-41DD-B63B-D1D6BE2B1BF1";
paths = (
{
closed = 1;
nodes = (
"150 1500 LINE",
"310 1500 LINE",
"310 0 LINE",
"150 0 LINE"
);
},
{
closed = 1;
nodes = (
"310 398 LINE",
"310 533 LINE",
"426 662 LINE",
"725 997 LINE",
"913 997 LINE",
"502 556 LINE",
"438 510 LINE"
);
},
{
closed = 1;
nodes = (
"974 0 LINE",
"784 0 LINE",
"385 536 LINE",
"505 631 LINE"
);
}
);
width = 938;
}
);
unicode = 006B;
},
{
glyphname = l;
lastChange = "2018-08-08 18:49:00 +0000";
layers = (
{
layerId = "BFBF8D55-D2EA-42C2-8EE4-A778DD08AD04";
paths = (
{
closed = 1;
nodes = (
"157 1500 LINE",
"317 1500 LINE",
"317 0 LINE",
"157 0 LINE"
);
}
);
width = 474;
},
{
layerId = "1E479C38-E7C4-45DB-9AC0-D96E7E2DA744";
paths = (
{
closed = 1;
nodes = (
"217 1500 LINE",
"257 1500 LINE",
"257 0 LINE",
"217 0 LINE"
);
}
);
width = 474;
},
{
layerId = "6A9C0B59-300C-41DD-B63B-D1D6BE2B1BF1";
paths = (
{
closed = 1;
nodes = (
"157 1500 LINE",
"317 1500 LINE",
"317 0 LINE",
"157 0 LINE"
);
}
);
width = 474;
}
);
unicode = 006C;
},
{
glyphname = m;
lastChange = "2018-08-08 18:49:00 +0000";
layers = (
{
layerId = "BFBF8D55-D2EA-42C2-8EE4-A778DD08AD04";
paths = (
{
closed = 1;
nodes = (
"150 1000 LINE",
"310 1000 LINE",
"310 0 LINE",
"150 0 LINE"
);
},
{
closed = 1;
nodes = (
"322 933 OFFCURVE",
"523 1040 OFFCURVE",
"628 1040 QCURVE SMOOTH",
"788 1040 OFFCURVE",
"1000 870 OFFCURVE",
"1002 700 QCURVE SMOOTH",
"1002 0 LINE",
"842 0 LINE",
"842 660 LINE SMOOTH",
"842 777 OFFCURVE",
"745 890 OFFCURVE",
"626 890 QCURVE SMOOTH",
"516 890 OFFCURVE",
"350 794 OFFCURVE",
"272 706 QCURVE",
"250 838 LINE"
);
},
{
closed = 1;
nodes = (
"1022 933 OFFCURVE",
"1223 1040 OFFCURVE",
"1328 1040 QCURVE SMOOTH",
"1488 1040 OFFCURVE",
"1700 870 OFFCURVE",
"1702 700 QCURVE SMOOTH",
"1702 0 LINE",
"1542 0 LINE",
"1542 660 LINE SMOOTH",
"1542 777 OFFCURVE",
"1445 890 OFFCURVE",
"1326 890 QCURVE SMOOTH",
"1216 890 OFFCURVE",
"1050 794 OFFCURVE",
"972 706 QCURVE",
"950 838 LINE"
);
}
);
width = 1846;
},
{
layerId = "1E479C38-E7C4-45DB-9AC0-D96E7E2DA744";
paths = (
{
closed = 1;
nodes = (
"170 1000 LINE",
"210 1000 LINE",
"210 0 LINE",
"170 0 LINE"
);
},
{
closed = 1;
nodes = (
"273 928 OFFCURVE",
"496 1040 OFFCURVE",
"620 1040 QCURVE SMOOTH",
"780 1040 OFFCURVE",
"946 879 OFFCURVE",
"946 709 QCURVE SMOOTH",
"946 0 LINE",
"906 0 LINE",
"906 706 LINE SMOOTH",
"906 858 OFFCURVE",
"763 1006 OFFCURVE",
"621 1006 QCURVE SMOOTH",
"505 1006 OFFCURVE",
"284 893 OFFCURVE",
"205 806 QCURVE",
"201 849 LINE"
);
},
{
closed = 1;
nodes = (
"984 940 OFFCURVE",
"1199 1040 OFFCURVE",
"1330 1040 QCURVE SMOOTH",
"1479 1040 OFFCURVE",
"1683 870 OFFCURVE",
"1683 700 QCURVE SMOOTH",
"1683 0 LINE",
"1643 0 LINE",
"1643 703 LINE SMOOTH",
"1643 856 OFFCURVE",
"1465 1005 OFFCURVE",
"1333 1005 QCURVE SMOOTH",
"1217 1005 OFFCURVE",
"1003 910 OFFCURVE",
"919 818 QCURVE",
"910 853 LINE"
);
}
);
width = 1846;
},
{
layerId = "6A9C0B59-300C-41DD-B63B-D1D6BE2B1BF1";
paths = (
{
closed = 1;
nodes = (
"150 1000 LINE",
"310 1000 LINE",
"310 0 LINE",
"150 0 LINE"
);
},
{
closed = 1;
nodes = (
"322 933 OFFCURVE",
"523 1040 OFFCURVE",
"628 1040 QCURVE SMOOTH",
"788 1040 OFFCURVE",
"1000 870 OFFCURVE",
"1002 700 QCURVE SMOOTH",
"1002 0 LINE",
"842 0 LINE",
"842 660 LINE SMOOTH",
"842 777 OFFCURVE",
"745 890 OFFCURVE",
"626 890 QCURVE SMOOTH",
"516 890 OFFCURVE",
"350 794 OFFCURVE",
"272 706 QCURVE",
"250 838 LINE"
);
},
{
closed = 1;
nodes = (
"1022 933 OFFCURVE",
"1223 1040 OFFCURVE",
"1328 1040 QCURVE SMOOTH",
"1488 1040 OFFCURVE",
"1700 870 OFFCURVE",
"1702 700 QCURVE SMOOTH",
"1702 0 LINE",
"1542 0 LINE",
"1542 660 LINE SMOOTH",
"1542 777 OFFCURVE",
"1445 890 OFFCURVE",
"1326 890 QCURVE SMOOTH",
"1216 890 OFFCURVE",
"1050 794 OFFCURVE",
"972 706 QCURVE",
"950 838 LINE"
);
}
);
width = 1846;
}
);
unicode = 006D;
},
{
glyphname = n;
lastChange = "2018-08-08 18:49:00 +0000";
layers = (
{
layerId = "BFBF8D55-D2EA-42C2-8EE4-A778DD08AD04";
paths = (
{
closed = 1;
nodes = (
"150 1000 LINE",
"310 1000 LINE",
"310 0 LINE",
"150 0 LINE"
);
},
{
closed = 1;
nodes = (
"322 918 OFFCURVE",
"541 1040 OFFCURVE",
"666 1040 QCURVE SMOOTH",
"826 1040 OFFCURVE",
"1040 870 OFFCURVE",
"1040 700 QCURVE SMOOTH",
"1040 0 LINE",
"880 0 LINE",
"880 660 LINE SMOOTH",
"880 777 OFFCURVE",
"783 890 OFFCURVE",
"666 890 QCURVE SMOOTH",
"534 890 OFFCURVE",
"350 787 OFFCURVE",
"272 699 QCURVE",
"250 823 LINE"
);
}
);
width = 1184;
},
{
layerId = "1E479C38-E7C4-45DB-9AC0-D96E7E2DA744";
paths = (
{
closed = 1;
nodes = (
"170 1000 LINE",
"210 1000 LINE",
"210 0 LINE",
"170 0 LINE"
);
},
{
closed = 1;
nodes = (
"260 921 OFFCURVE",
"516 1040 OFFCURVE",
"651 1040 QCURVE SMOOTH",
"811 1040 OFFCURVE",
"1021 870 OFFCURVE",
"1021 700 QCURVE SMOOTH",
"1020 0 LINE",
"980 0 LINE",
"980 703 LINE SMOOTH",
"980 850 OFFCURVE",
"797 1005 OFFCURVE",
"651 1005 QCURVE SMOOTH",
"527 1005 OFFCURVE",
"278 894 OFFCURVE",
"212 814 QCURVE",
"204 839 LINE"
);
}
);
width = 1184;
},
{
layerId = "6A9C0B59-300C-41DD-B63B-D1D6BE2B1BF1";
paths = (
{
closed = 1;
nodes = (
"150 1000 LINE",
"310 1000 LINE",
"310 0 LINE",
"150 0 LINE"
);
},
{
closed = 1;
nodes = (
"322 918 OFFCURVE",
"541 1040 OFFCURVE",
"666 1040 QCURVE SMOOTH",
"826 1040 OFFCURVE",
"1040 870 OFFCURVE",
"1040 700 QCURVE SMOOTH",
"1040 0 LINE",
"880 0 LINE",
"880 660 LINE SMOOTH",
"880 777 OFFCURVE",
"783 890 OFFCURVE",
"666 890 QCURVE SMOOTH",
"534 890 OFFCURVE",
"350 787 OFFCURVE",
"272 699 QCURVE",
"250 823 LINE"
);
}
);
width = 1184;
}
);
unicode = 006E;
},
{
glyphname = o;
lastChange = "2018-08-08 18:49:00 +0000";
layers = (
{
layerId = "BFBF8D55-D2EA-42C2-8EE4-A778DD08AD04";
paths = (
{
closed = 1;
nodes = (
"356 -25 OFFCURVE",
"60 258 OFFCURVE",
"60 484 QCURVE SMOOTH",
"60 519 LINE SMOOTH",
"60 745 OFFCURVE",
"353 1040 OFFCURVE",
"556 1040 QCURVE SMOOTH",
"563 1040 LINE SMOOTH",
"771 1040 OFFCURVE",
"1075 745 OFFCURVE",
"1075 519 QCURVE SMOOTH",
"1075 484 LINE SMOOTH",
"1075 258 OFFCURVE",
"775 -25 OFFCURVE",
"567 -25 QCURVE SMOOTH",
"560 -25 LINE SMOOTH"
);
},
{
closed = 1;
nodes = (
"721 106 OFFCURVE",
"907 316 OFFCURVE",
"907 487 QCURVE SMOOTH",
"907 514 LINE SMOOTH",
"907 685 OFFCURVE",
"724 903 OFFCURVE",
"563 903 QCURVE SMOOTH",
"556 903 LINE SMOOTH",
"406 903 OFFCURVE",
"228 685 OFFCURVE",
"228 514 QCURVE SMOOTH",
"228 487 LINE SMOOTH",
"228 316 OFFCURVE",
"403 106 OFFCURVE",
"556 106 QCURVE SMOOTH",
"563 106 LINE SMOOTH"
);
}
);
width = 1135;
},
{
layerId = "1E479C38-E7C4-45DB-9AC0-D96E7E2DA744";
paths = (
{
closed = 1;
nodes = (
"354 -25 OFFCURVE",
"80 258 OFFCURVE",
"80 484 QCURVE SMOOTH",
"80 519 LINE SMOOTH",
"80 745 OFFCURVE",
"352 1040 OFFCURVE",
"556 1040 QCURVE SMOOTH",
"563 1040 LINE SMOOTH",
"773 1040 OFFCURVE",
"1055 745 OFFCURVE",
"1055 519 QCURVE SMOOTH",
"1055 484 LINE SMOOTH",
"1055 258 OFFCURVE",
"777 -25 OFFCURVE",
"567 -25 QCURVE SMOOTH",
"560 -25 LINE SMOOTH"
);
},
{
closed = 1;
nodes = (
"750 11 OFFCURVE",
"1015 272 OFFCURVE",
"1015 485 QCURVE SMOOTH",
"1015 518 LINE SMOOTH",
"1015 733 OFFCURVE",
"753 1004 OFFCURVE",
"561 1004 QCURVE SMOOTH",
"553 1004 LINE SMOOTH",
"377 1004 OFFCURVE",
"120 733 OFFCURVE",
"120 518 QCURVE SMOOTH",
"120 485 LINE SMOOTH",
"120 272 OFFCURVE",
"372 11 OFFCURVE",
"553 11 QCURVE SMOOTH",
"561 11 LINE SMOOTH"
);
}
);
width = 1135;
},
{
layerId = "6A9C0B59-300C-41DD-B63B-D1D6BE2B1BF1";
paths = (
{
closed = 1;
nodes = (
"356 -25 OFFCURVE",
"60 258 OFFCURVE",
"60 484 QCURVE SMOOTH",
"60 519 LINE SMOOTH",
"60 745 OFFCURVE",
"353 1040 OFFCURVE",
"556 1040 QCURVE SMOOTH",
"563 1040 LINE SMOOTH",
"771 1040 OFFCURVE",
"1075 745 OFFCURVE",
"1075 519 QCURVE SMOOTH",
"1075 484 LINE SMOOTH",
"1075 258 OFFCURVE",
"775 -25 OFFCURVE",
"567 -25 QCURVE SMOOTH",
"560 -25 LINE SMOOTH"
);
},
{
closed = 1;
nodes = (
"721 106 OFFCURVE",
"907 316 OFFCURVE",
"907 487 QCURVE SMOOTH",
"907 514 LINE SMOOTH",
"907 685 OFFCURVE",
"724 903 OFFCURVE",
"563 903 QCURVE SMOOTH",
"556 903 LINE SMOOTH",
"406 903 OFFCURVE",
"228 685 OFFCURVE",
"228 514 QCURVE SMOOTH",
"228 487 LINE SMOOTH",
"228 316 OFFCURVE",
"403 106 OFFCURVE",
"556 106 QCURVE SMOOTH",
"563 106 LINE SMOOTH"
);
}
);
width = 1135;
}
);
unicode = 006F;
},
{
glyphname = p;
lastChange = "2018-08-08 18:49:00 +0000";
layers = (
{
layerId = "BFBF8D55-D2EA-42C2-8EE4-A778DD08AD04";
paths = (
{
closed = 1;
nodes = (
"150 1000 LINE",
"310 1000 LINE",
"310 -500 LINE",
"150 -500 LINE"
);
},
{
closed = 1;
nodes = (
"210 745 OFFCURVE",
"447 1040 OFFCURVE",
"636 1040 QCURVE SMOOTH",
"643 1040 LINE SMOOTH",
"851 1040 OFFCURVE",
"1125 745 OFFCURVE",
"1125 519 QCURVE SMOOTH",
"1125 484 LINE SMOOTH",
"1125 258 OFFCURVE",
"855 -25 OFFCURVE",
"647 -25 QCURVE SMOOTH",
"640 -25 LINE SMOOTH",
"451 -25 OFFCURVE",
"210 258 OFFCURVE",
"210 484 QCURVE SMOOTH",
"210 519 LINE SMOOTH"
);
},
{
closed = 1;
nodes = (
"288 487 LINE SMOOTH",
"288 307 OFFCURVE",
"473 106 OFFCURVE",
"626 106 QCURVE SMOOTH",
"633 106 LINE SMOOTH",
"791 106 OFFCURVE",
"967 316 OFFCURVE",
"967 487 QCURVE SMOOTH",
"967 514 LINE SMOOTH",
"967 685 OFFCURVE",
"794 903 OFFCURVE",
"633 903 QCURVE SMOOTH",
"626 903 LINE SMOOTH",
"476 903 OFFCURVE",
"288 735 OFFCURVE",
"288 514 QCURVE SMOOTH"
);
}
);
width = 1185;
},
{
layerId = "1E479C38-E7C4-45DB-9AC0-D96E7E2DA744";
paths = (
{
closed = 1;
nodes = (
"170 1000 LINE",
"210 1000 LINE",
"210 -500 LINE",
"170 -500 LINE"
);
},
{
closed = 1;
nodes = (
"183 785 OFFCURVE",
"447 1040 OFFCURVE",
"642 1040 QCURVE SMOOTH",
"649 1040 LINE SMOOTH",
"854 1040 OFFCURVE",
"1105 745 OFFCURVE",
"1105 519 QCURVE SMOOTH",
"1105 484 LINE SMOOTH",
"1105 258 OFFCURVE",
"858 -25 OFFCURVE",
"653 -25 QCURVE SMOOTH",
"646 -25 LINE SMOOTH",
"451 -25 OFFCURVE",
"183 238 OFFCURVE",
"183 484 QCURVE SMOOTH",
"183 519 LINE SMOOTH"
);
},
{
closed = 1;
nodes = (
"209 485 LINE SMOOTH",
"209 261 OFFCURVE",
"458 11 OFFCURVE",
"652 11 QCURVE SMOOTH",
"661 11 LINE SMOOTH",
"831 11 OFFCURVE",
"1065 273 OFFCURVE",
"1065 485 QCURVE SMOOTH",
"1065 520 LINE SMOOTH",
"1065 732 OFFCURVE",
"835 1004 OFFCURVE",
"661 1004 QCURVE SMOOTH",
"652 1004 LINE SMOOTH",
"471 1004 OFFCURVE",
"209 765 OFFCURVE",
"209 520 QCURVE SMOOTH"
);
}
);
width = 1185;
},
{
layerId = "6A9C0B59-300C-41DD-B63B-D1D6BE2B1BF1";
paths = (
{
closed = 1;
nodes = (
"150 1000 LINE",
"310 1000 LINE",
"310 -500 LINE",
"150 -500 LINE"
);
},
{
closed = 1;
nodes = (
"210 745 OFFCURVE",
"447 1040 OFFCURVE",
"636 1040 QCURVE SMOOTH",
"643 1040 LINE SMOOTH",
"851 1040 OFFCURVE",
"1125 745 OFFCURVE",
"1125 519 QCURVE SMOOTH",
"1125 484 LINE SMOOTH",
"1125 258 OFFCURVE",
"855 -25 OFFCURVE",
"647 -25 QCURVE SMOOTH",
"640 -25 LINE SMOOTH",
"451 -25 OFFCURVE",
"210 258 OFFCURVE",
"210 484 QCURVE SMOOTH",
"210 519 LINE SMOOTH"
);
},
{
closed = 1;
nodes = (
"288 487 LINE SMOOTH",
"288 307 OFFCURVE",
"473 106 OFFCURVE",
"626 106 QCURVE SMOOTH",
"633 106 LINE SMOOTH",
"791 106 OFFCURVE",
"967 316 OFFCURVE",
"967 487 QCURVE SMOOTH",
"967 514 LINE SMOOTH",
"967 685 OFFCURVE",
"794 903 OFFCURVE",
"633 903 QCURVE SMOOTH",
"626 903 LINE SMOOTH",
"476 903 OFFCURVE",
"288 735 OFFCURVE",
"288 514 QCURVE SMOOTH"
);
}
);
width = 1185;
}
);
unicode = 0070;
},
{
glyphname = q;
lastChange = "2018-08-08 18:49:00 +0000";
layers = (
{
layerId = "BFBF8D55-D2EA-42C2-8EE4-A778DD08AD04";
paths = (
{
closed = 1;
nodes = (
"875 -500 LINE",
"875 1000 LINE",
"1035 1000 LINE",
"1035 -500 LINE"
);
},
{
closed = 1;
nodes = (
"975 484 LINE SMOOTH",
"975 258 OFFCURVE",
"734 -25 OFFCURVE",
"545 -25 QCURVE SMOOTH",
"538 -25 LINE SMOOTH",
"330 -25 OFFCURVE",
"60 258 OFFCURVE",
"60 484 QCURVE SMOOTH",
"60 519 LINE SMOOTH",
"60 745 OFFCURVE",
"334 1040 OFFCURVE",
"542 1040 QCURVE SMOOTH",
"549 1040 LINE SMOOTH",
"738 1040 OFFCURVE",
"975 745 OFFCURVE",
"975 519 QCURVE SMOOTH"
);
},
{
closed = 1;
nodes = (
"897 735 OFFCURVE",
"709 903 OFFCURVE",
"559 903 QCURVE SMOOTH",
"552 903 LINE SMOOTH",
"391 903 OFFCURVE",
"228 685 OFFCURVE",
"228 514 QCURVE SMOOTH",
"228 487 LINE SMOOTH",
"228 316 OFFCURVE",
"394 106 OFFCURVE",
"552 106 QCURVE SMOOTH",
"559 106 LINE SMOOTH",
"712 106 OFFCURVE",
"897 307 OFFCURVE",
"897 487 QCURVE SMOOTH",
"897 514 LINE SMOOTH"
);
}
);
width = 1185;
},
{
layerId = "1E479C38-E7C4-45DB-9AC0-D96E7E2DA744";
paths = (
{
closed = 1;
nodes = (
"975 -500 LINE",
"975 1000 LINE",
"1015 1000 LINE",
"1015 -500 LINE"
);
},
{
closed = 1;
nodes = (
"1005 484 LINE SMOOTH",
"1005 238 OFFCURVE",
"744 -25 OFFCURVE",
"555 -25 QCURVE SMOOTH",
"548 -25 LINE SMOOTH",
"340 -25 OFFCURVE",
"80 258 OFFCURVE",
"80 484 QCURVE SMOOTH",
"80 519 LINE SMOOTH",
"80 745 OFFCURVE",
"344 1040 OFFCURVE",
"552 1040 QCURVE SMOOTH",
"559 1040 LINE SMOOTH",
"748 1040 OFFCURVE",
"1005 795 OFFCURVE",
"1005 519 QCURVE SMOOTH"
);
},
{
closed = 1;
nodes = (
"977 784 OFFCURVE",
"726 1003 OFFCURVE",
"554 1003 QCURVE SMOOTH",
"545 1003 LINE SMOOTH",
"359 1003 OFFCURVE",
"121 732 OFFCURVE",
"121 518 QCURVE SMOOTH",
"121 485 LINE SMOOTH",
"121 271 OFFCURVE",
"371 9 OFFCURVE",
"543 9 QCURVE SMOOTH",
"552 9 LINE SMOOTH",
"738 9 OFFCURVE",
"977 260 OFFCURVE",
"977 485 QCURVE SMOOTH",
"977 518 LINE SMOOTH"
);
}
);
width = 1185;
},
{
layerId = "6A9C0B59-300C-41DD-B63B-D1D6BE2B1BF1";
paths = (
{
closed = 1;
nodes = (
"875 -500 LINE",
"875 1000 LINE",
"1035 1000 LINE",
"1035 -500 LINE"
);
},
{
closed = 1;
nodes = (
"975 484 LINE SMOOTH",
"975 258 OFFCURVE",
"734 -25 OFFCURVE",
"545 -25 QCURVE SMOOTH",
"538 -25 LINE SMOOTH",
"330 -25 OFFCURVE",
"60 258 OFFCURVE",
"60 484 QCURVE SMOOTH",
"60 519 LINE SMOOTH",
"60 745 OFFCURVE",
"334 1040 OFFCURVE",
"542 1040 QCURVE SMOOTH",
"549 1040 LINE SMOOTH",
"738 1040 OFFCURVE",
"975 745 OFFCURVE",
"975 519 QCURVE SMOOTH"
);
},
{
closed = 1;
nodes = (
"897 735 OFFCURVE",
"709 903 OFFCURVE",
"559 903 QCURVE SMOOTH",
"552 903 LINE SMOOTH",
"391 903 OFFCURVE",
"228 685 OFFCURVE",
"228 514 QCURVE SMOOTH",
"228 487 LINE SMOOTH",
"228 316 OFFCURVE",
"394 106 OFFCURVE",
"552 106 QCURVE SMOOTH",
"559 106 LINE SMOOTH",
"712 106 OFFCURVE",
"897 307 OFFCURVE",
"897 487 QCURVE SMOOTH",
"897 514 LINE SMOOTH"
);
}
);
width = 1185;
}
);
unicode = 0071;
},
{
glyphname = r;
lastChange = "2018-08-08 18:49:00 +0000";
layers = (
{
layerId = "BFBF8D55-D2EA-42C2-8EE4-A778DD08AD04";
paths = (
{
closed = 1;
nodes = (
"150 1000 LINE",
"310 1000 LINE",
"310 0 LINE",
"150 0 LINE"
);
},
{
closed = 1;
nodes = (
"322 918 OFFCURVE",
"541 1040 OFFCURVE",
"666 1040 QCURVE SMOOTH",
"679 1040 OFFCURVE",
"705 1039 OFFCURVE",
"717 1038 QCURVE",
"717 887 LINE",
"706 888 OFFCURVE",
"680 890 OFFCURVE",
"666 890 QCURVE SMOOTH",
"534 890 OFFCURVE",
"350 787 OFFCURVE",
"272 699 QCURVE",
"250 823 LINE"
);
}
);
width = 737;
},
{
layerId = "1E479C38-E7C4-45DB-9AC0-D96E7E2DA744";
paths = (
{
closed = 1;
nodes = (
"170 1000 LINE",
"210 1000 LINE",
"210 0 LINE",
"170 0 LINE"
);
},
{
closed = 1;
nodes = (
"232 908 OFFCURVE",
"501 1040 OFFCURVE",
"656 1040 QCURVE SMOOTH",
"669 1040 OFFCURVE",
"695 1039 OFFCURVE",
"707 1038 QCURVE",
"707 990 LINE",
"696 991 OFFCURVE",
"670 993 OFFCURVE",
"656 993 QCURVE SMOOTH",
"504 993 OFFCURVE",
"259 879 OFFCURVE",
"202 779 QCURVE",
"180 803 LINE"
);
}
);
width = 737;
},
{
layerId = "6A9C0B59-300C-41DD-B63B-D1D6BE2B1BF1";
paths = (
{
closed = 1;
nodes = (
"150 1000 LINE",
"310 1000 LINE",
"310 0 LINE",
"150 0 LINE"
);
},
{
closed = 1;
nodes = (
"322 918 OFFCURVE",
"541 1040 OFFCURVE",
"666 1040 QCURVE SMOOTH",
"679 1040 OFFCURVE",
"705 1039 OFFCURVE",
"717 1038 QCURVE",
"717 887 LINE",
"706 888 OFFCURVE",
"680 890 OFFCURVE",
"666 890 QCURVE SMOOTH",
"534 890 OFFCURVE",
"350 787 OFFCURVE",
"272 699 QCURVE",
"250 823 LINE"
);
}
);
width = 737;
}
);
unicode = 0072;
},
{
glyphname = s;
lastChange = "2018-08-08 18:49:00 +0000";
layers = (
{
layerId = "BFBF8D55-D2EA-42C2-8EE4-A778DD08AD04";
paths = (
{
closed = 1;
nodes = (
"760 353 OFFCURVE",
"667 423 OFFCURVE",
"483 465 QCURVE SMOOTH",
"277 512 OFFCURVE",
"96 639 OFFCURVE",
"96 772 QCURVE SMOOTH",
"96 783 LINE SMOOTH",
"96 899 OFFCURVE",
"295 1040 OFFCURVE",
"475 1040 QCURVE SMOOTH",
"484 1040 LINE SMOOTH",
"675 1040 OFFCURVE",
"854 893 OFFCURVE",
"863 774 QCURVE SMOOTH",
"868 708 LINE",
"725 708 LINE",
"725 750 LINE SMOOTH",
"725 826 OFFCURVE",
"599 899 OFFCURVE",
"481 899 QCURVE SMOOTH",
"473 899 LINE SMOOTH",
"361 899 OFFCURVE",
"256 841 OFFCURVE",
"256 789 QCURVE SMOOTH",
"256 781 LINE SMOOTH",
"256 720 OFFCURVE",
"330 660 OFFCURVE",
"525 612 QCURVE SMOOTH",
"730 562 OFFCURVE",
"916 438 OFFCURVE",
"916 299 QCURVE SMOOTH",
"916 268 LINE SMOOTH",
"916 142 OFFCURVE",
"703 -27 OFFCURVE",
"499 -27 QCURVE SMOOTH",
"496 -27 LINE SMOOTH",
"271 -27 OFFCURVE",
"62 142 OFFCURVE",
"62 263 QCURVE SMOOTH",
"62 321 LINE",
"213 321 LINE",
"213 267 LINE SMOOTH",
"213 193 OFFCURVE",
"369 104 OFFCURVE",
"494 104 QCURVE SMOOTH",
"499 104 LINE SMOOTH",
"600 104 OFFCURVE",
"760 189 OFFCURVE",
"760 264 QCURVE SMOOTH",
"760 276 LINE SMOOTH"
);
}
);
width = 973;
},
{
layerId = "1E479C38-E7C4-45DB-9AC0-D96E7E2DA744";
paths = (
{
closed = 1;
nodes = (
"868 381 OFFCURVE",
"709 474 OFFCURVE",
"488 521 QCURVE SMOOTH",
"264 569 OFFCURVE",
"107 666 OFFCURVE",
"107 783 QCURVE SMOOTH",
"107 794 LINE SMOOTH",
"107 910 OFFCURVE",
"300 1040 OFFCURVE",
"475 1040 QCURVE SMOOTH",
"484 1040 LINE SMOOTH",
"659 1040 OFFCURVE",
"848 893 OFFCURVE",
"853 774 QCURVE SMOOTH",
"856 728 LINE",
"817 728 LINE",
"817 750 LINE SMOOTH",
"817 862 OFFCURVE",
"642 1004 OFFCURVE",
"481 1004 QCURVE SMOOTH",
"473 1004 LINE SMOOTH",
"303 1004 OFFCURVE",
"144 878 OFFCURVE",
"144 790 QCURVE SMOOTH",
"144 782 LINE SMOOTH",
"144 691 OFFCURVE",
"287 604 OFFCURVE",
"499 559 QCURVE SMOOTH",
"716 513 OFFCURVE",
"903 406 OFFCURVE",
"903 280 QCURVE SMOOTH",
"903 269 LINE SMOOTH",
"903 143 OFFCURVE",
"696 -25 OFFCURVE",
"486 -25 QCURVE SMOOTH",
"480 -25 LINE SMOOTH",
"278 -25 OFFCURVE",
"81 142 OFFCURVE",
"76 278 QCURVE SMOOTH",
"75 304 LINE",
"113 304 LINE",
"114 285 LINE SMOOTH",
"122 138 OFFCURVE",
"324 11 OFFCURVE",
"482 11 QCURVE SMOOTH",
"484 11 LINE SMOOTH",
"673 11 OFFCURVE",
"868 158 OFFCURVE",
"868 271 QCURVE SMOOTH",
"868 278 LINE SMOOTH"
);
}
);
width = 973;
},
{
layerId = "6A9C0B59-300C-41DD-B63B-D1D6BE2B1BF1";
paths = (
{
closed = 1;
nodes = (
"760 353 OFFCURVE",
"667 423 OFFCURVE",
"483 465 QCURVE SMOOTH",
"277 512 OFFCURVE",
"96 639 OFFCURVE",
"96 772 QCURVE SMOOTH",
"96 783 LINE SMOOTH",
"96 899 OFFCURVE",
"295 1040 OFFCURVE",
"475 1040 QCURVE SMOOTH",
"484 1040 LINE SMOOTH",
"675 1040 OFFCURVE",
"854 893 OFFCURVE",
"863 774 QCURVE SMOOTH",
"868 708 LINE",
"725 708 LINE",
"725 750 LINE SMOOTH",
"725 826 OFFCURVE",
"599 899 OFFCURVE",
"481 899 QCURVE SMOOTH",
"473 899 LINE SMOOTH",
"361 899 OFFCURVE",
"256 841 OFFCURVE",
"256 789 QCURVE SMOOTH",
"256 781 LINE SMOOTH",
"256 720 OFFCURVE",
"330 660 OFFCURVE",
"525 612 QCURVE SMOOTH",
"730 562 OFFCURVE",
"916 438 OFFCURVE",
"916 299 QCURVE SMOOTH",
"916 268 LINE SMOOTH",
"916 142 OFFCURVE",
"703 -27 OFFCURVE",
"499 -27 QCURVE SMOOTH",
"496 -27 LINE SMOOTH",
"271 -27 OFFCURVE",
"62 142 OFFCURVE",
"62 263 QCURVE SMOOTH",
"62 321 LINE",
"213 321 LINE",
"213 267 LINE SMOOTH",
"213 193 OFFCURVE",
"369 104 OFFCURVE",
"494 104 QCURVE SMOOTH",
"499 104 LINE SMOOTH",
"600 104 OFFCURVE",
"760 189 OFFCURVE",
"760 264 QCURVE SMOOTH",
"760 276 LINE SMOOTH"
);
}
);
width = 973;
}
);
unicode = 0073;
},
{
glyphname = t;
lastChange = "2018-08-08 18:49:00 +0000";
layers = (
{
layerId = "BFBF8D55-D2EA-42C2-8EE4-A778DD08AD04";
paths = (
{
closed = 1;
nodes = (
"56 861 LINE",
"56 1000 LINE",
"556 1000 LINE",
"556 861 LINE"
);
},
{
closed = 1;
nodes = (
"337 199 OFFCURVE",
"410 126 OFFCURVE",
"451 126 QCURVE SMOOTH",
"495 126 OFFCURVE",
"550 146 OFFCURVE",
"570 157 QCURVE",
"576 9 LINE",
"558 -1 OFFCURVE",
"476 -18 OFFCURVE",
"425 -18 QCURVE SMOOTH",
"318 -18 OFFCURVE",
"177 122 OFFCURVE",
"177 245 QCURVE SMOOTH",
"177 1233 LINE",
"337 1233 LINE",
"337 257 LINE SMOOTH"
);
}
);
width = 613;
},
{
layerId = "1E479C38-E7C4-45DB-9AC0-D96E7E2DA744";
paths = (
{
closed = 1;
nodes = (
"56 962 LINE",
"56 1000 LINE",
"556 1000 LINE",
"556 962 LINE"
);
},
{
closed = 1;
nodes = (
"277 131 OFFCURVE",
"357 20 OFFCURVE",
"433 20 QCURVE SMOOTH",
"485 20 OFFCURVE",
"545 39 OFFCURVE",
"563 49 QCURVE",
"568 12 LINE",
"551 2 OFFCURVE",
"470 -18 OFFCURVE",
"423 -18 QCURVE SMOOTH",
"339 -18 OFFCURVE",
"237 112 OFFCURVE",
"237 239 QCURVE SMOOTH",
"237 1233 LINE",
"277 1233 LINE",
"277 237 LINE SMOOTH"
);
}
);
width = 613;
},
{
layerId = "6A9C0B59-300C-41DD-B63B-D1D6BE2B1BF1";
paths = (
{
closed = 1;
nodes = (
"56 861 LINE",
"56 1000 LINE",
"556 1000 LINE",
"556 861 LINE"
);
},
{
closed = 1;
nodes = (
"337 199 OFFCURVE",
"410 126 OFFCURVE",
"451 126 QCURVE SMOOTH",
"495 126 OFFCURVE",
"550 146 OFFCURVE",
"570 157 QCURVE",
"576 9 LINE",
"558 -1 OFFCURVE",
"476 -18 OFFCURVE",
"425 -18 QCURVE SMOOTH",
"318 -18 OFFCURVE",
"177 122 OFFCURVE",
"177 245 QCURVE SMOOTH",
"177 1233 LINE",
"337 1233 LINE",
"337 257 LINE SMOOTH"
);
}
);
width = 613;
}
);
unicode = 0074;
},
{
glyphname = u;
lastChange = "2018-08-08 18:49:00 +0000";
layers = (
{
layerId = "BFBF8D55-D2EA-42C2-8EE4-A778DD08AD04";
paths = (
{
closed = 1;
nodes = (
"1034 2 LINE",
"874 2 LINE",
"874 1002 LINE",
"1034 1002 LINE"
);
},
{
closed = 1;
nodes = (
"866 104 OFFCURVE",
"643 -38 OFFCURVE",
"518 -38 QCURVE SMOOTH",
"358 -38 OFFCURVE",
"144 132 OFFCURVE",
"144 302 QCURVE SMOOTH",
"144 1002 LINE",
"304 1002 LINE",
"304 342 LINE SMOOTH",
"304 225 OFFCURVE",
"401 112 OFFCURVE",
"518 112 QCURVE SMOOTH",
"650 112 OFFCURVE",
"832 236 OFFCURVE",
"912 323 QCURVE",
"934 199 LINE"
);
}
);
width = 1184;
},
{
layerId = "1E479C38-E7C4-45DB-9AC0-D96E7E2DA744";
paths = (
{
closed = 1;
nodes = (
"1011 0 LINE",
"971 0 LINE",
"971 1000 LINE",
"1011 1000 LINE"
);
},
{
closed = 1;
nodes = (
"921 79 OFFCURVE",
"670 -40 OFFCURVE",
"535 -40 QCURVE SMOOTH",
"375 -40 OFFCURVE",
"170 130 OFFCURVE",
"170 300 QCURVE SMOOTH",
"171 1000 LINE",
"211 1000 LINE",
"211 297 LINE SMOOTH",
"211 143 OFFCURVE",
"389 -5 OFFCURVE",
"535 -5 QCURVE SMOOTH",
"659 -5 OFFCURVE",
"903 106 OFFCURVE",
"969 186 QCURVE",
"977 161 LINE"
);
}
);
width = 1184;
},
{
layerId = "6A9C0B59-300C-41DD-B63B-D1D6BE2B1BF1";
paths = (
{
closed = 1;
nodes = (
"1034 2 LINE",
"874 2 LINE",
"874 1002 LINE",
"1034 1002 LINE"
);
},
{
closed = 1;
nodes = (
"866 104 OFFCURVE",
"643 -38 OFFCURVE",
"518 -38 QCURVE SMOOTH",
"358 -38 OFFCURVE",
"144 132 OFFCURVE",
"144 302 QCURVE SMOOTH",
"144 1002 LINE",
"304 1002 LINE",
"304 342 LINE SMOOTH",
"304 225 OFFCURVE",
"401 112 OFFCURVE",
"518 112 QCURVE SMOOTH",
"650 112 OFFCURVE",
"832 236 OFFCURVE",
"912 323 QCURVE",
"934 199 LINE"
);
}
);
width = 1184;
}
);
unicode = 0075;
},
{
glyphname = v;
lastChange = "2018-08-08 18:49:00 +0000";
layers = (
{
layerId = "BFBF8D55-D2EA-42C2-8EE4-A778DD08AD04";
paths = (
{
closed = 1;
nodes = (
"10 1000 LINE",
"182 1000 LINE",
"468 188 LINE",
"765 1000 LINE",
"926 1000 LINE",
"546 0 LINE",
"386 0 LINE"
);
}
);
width = 936;
},
{
layerId = "1E479C38-E7C4-45DB-9AC0-D96E7E2DA744";
paths = (
{
closed = 1;
nodes = (
"30 1000 LINE",
"74 1000 LINE",
"466 33 LINE",
"865 1000 LINE",
"906 1000 LINE",
"494 0 LINE",
"436 0 LINE"
);
}
);
width = 936;
},
{
layerId = "6A9C0B59-300C-41DD-B63B-D1D6BE2B1BF1";
paths = (
{
closed = 1;
nodes = (
"10 1000 LINE",
"182 1000 LINE",
"468 188 LINE",
"765 1000 LINE",
"926 1000 LINE",
"546 0 LINE",
"386 0 LINE"
);
}
);
width = 936;
}
);
unicode = 0076;
},
{
glyphname = w;
lastChange = "2018-08-08 18:49:00 +0000";
layers = (
{
layerId = "BFBF8D55-D2EA-42C2-8EE4-A778DD08AD04";
paths = (
{
closed = 1;
nodes = (
"10 1000 LINE",
"182 1000 LINE",
"388 188 LINE",
"620 1000 LINE",
"766 1000 LINE",
"980 188 LINE",
"1197 1000 LINE",
"1358 1000 LINE",
"1058 0 LINE",
"898 0 LINE",
"683 735 LINE",
"466 0 LINE",
"306 0 LINE"
);
}
);
width = 1368;
},
{
layerId = "1E479C38-E7C4-45DB-9AC0-D96E7E2DA744";
paths = (
{
closed = 1;
nodes = (
"30 1000 LINE",
"72 1000 LINE",
"358 58 LINE",
"668 1010 LINE",
"709 1010 LINE",
"999 58 LINE",
"1297 1000 LINE",
"1338 1000 LINE",
"1018 -10 LINE",
"978 -10 LINE",
"687 945 LINE",
"376 -10 LINE",
"336 -10 LINE"
);
}
);
width = 1368;
},
{
layerId = "6A9C0B59-300C-41DD-B63B-D1D6BE2B1BF1";
paths = (
{
closed = 1;
nodes = (
"10 1000 LINE",
"182 1000 LINE",
"388 188 LINE",
"620 1000 LINE",
"766 1000 LINE",
"980 188 LINE",
"1197 1000 LINE",
"1358 1000 LINE",
"1058 0 LINE",
"898 0 LINE",
"683 735 LINE",
"466 0 LINE",
"306 0 LINE"
);
}
);
width = 1368;
}
);
unicode = 0077;
},
{
glyphname = x;
lastChange = "2018-08-08 18:49:00 +0000";
layers = (
{
layerId = "BFBF8D55-D2EA-42C2-8EE4-A778DD08AD04";
paths = (
{
closed = 1;
nodes = (
"690 1000 LINE",
"870 1000 LINE",
"170 0 LINE",
"-10 0 LINE"
);
},
{
closed = 1;
nodes = (
"21 1000 LINE",
"211 1000 LINE",
"880 0 LINE",
"691 0 LINE"
);
}
);
width = 870;
},
{
layerId = "1E479C38-E7C4-45DB-9AC0-D96E7E2DA744";
paths = (
{
closed = 1;
nodes = (
"782 1000 LINE",
"829 1000 LINE",
"69 0 LINE",
"22 0 LINE"
);
},
{
closed = 1;
nodes = (
"50 1000 LINE",
"99 1000 LINE",
"848 0 LINE",
"800 0 LINE"
);
}
);
width = 870;
},
{
layerId = "6A9C0B59-300C-41DD-B63B-D1D6BE2B1BF1";
paths = (
{
closed = 1;
nodes = (
"690 1000 LINE",
"870 1000 LINE",
"170 0 LINE",
"-10 0 LINE"
);
},
{
closed = 1;
nodes = (
"21 1000 LINE",
"211 1000 LINE",
"880 0 LINE",
"691 0 LINE"
);
}
);
width = 870;
}
);
unicode = 0078;
},
{
glyphname = y;
lastChange = "2018-08-08 18:49:00 +0000";
layers = (
{
layerId = "BFBF8D55-D2EA-42C2-8EE4-A778DD08AD04";
paths = (
{
closed = 1;
nodes = (
"10 1000 LINE",
"182 1000 LINE",
"468 188 LINE",
"765 1000 LINE",
"926 1000 LINE",
"546 1 LINE SMOOTH",
"477 -180 OFFCURVE",
"266 -500 OFFCURVE",
"94 -500 QCURVE SMOOTH",
"25 -500 OFFCURVE",
"-40 -491 OFFCURVE",
"-63 -484 QCURVE",
"-51 -332 LINE",
"-30 -337 OFFCURVE",
"41 -350 OFFCURVE",
"67 -350 QCURVE SMOOTH",
"193 -350 OFFCURVE",
"301 -182 OFFCURVE",
"384 0 QCURVE"
);
}
);
width = 936;
},
{
layerId = "1E479C38-E7C4-45DB-9AC0-D96E7E2DA744";
paths = (
{
closed = 1;
nodes = (
"30 1000 LINE",
"74 1000 LINE",
"468 30 LINE",
"865 1000 LINE",
"906 1000 LINE",
"481 -33 LINE SMOOTH",
"389 -257 OFFCURVE",
"203 -500 OFFCURVE",
"92 -500 QCURVE SMOOTH",
"39 -500 OFFCURVE",
"-16 -491 OFFCURVE",
"-39 -484 QCURVE",
"-27 -442 LINE",
"-6 -447 OFFCURVE",
"55 -460 OFFCURVE",
"93 -460 QCURVE SMOOTH",
"186 -460 OFFCURVE",
"354 -228 OFFCURVE",
"444 -17 QCURVE"
);
}
);
width = 936;
},
{
layerId = "6A9C0B59-300C-41DD-B63B-D1D6BE2B1BF1";
paths = (
{
closed = 1;
nodes = (
"10 1000 LINE",
"182 1000 LINE",
"468 188 LINE",
"765 1000 LINE",
"926 1000 LINE",
"546 1 LINE SMOOTH",
"477 -180 OFFCURVE",
"266 -500 OFFCURVE",
"94 -500 QCURVE SMOOTH",
"25 -500 OFFCURVE",
"-40 -491 OFFCURVE",
"-63 -484 QCURVE",
"-51 -332 LINE",
"-30 -337 OFFCURVE",
"41 -350 OFFCURVE",
"67 -350 QCURVE SMOOTH",
"193 -350 OFFCURVE",
"301 -182 OFFCURVE",
"384 0 QCURVE"
);
}
);
width = 936;
}
);
unicode = 0079;
},
{
glyphname = z;
lastChange = "2018-08-08 18:49:00 +0000";
layers = (
{
layerId = "BFBF8D55-D2EA-42C2-8EE4-A778DD08AD04";
paths = (
{
closed = 1;
nodes = (
"54 0 LINE",
"49 155 LINE",
"614 855 LINE",
"72 855 LINE",
"72 1000 LINE",
"794 1000 LINE",
"794 855 LINE",
"222 145 LINE",
"814 145 LINE",
"814 0 LINE"
);
}
